<?xml version="1.0" encoding="UTF-8"?>
<svg id="_レイヤー_2" data-name="レイヤー 2" xmlns="http://www.w3.org/2000/svg" xmlns:xlink="http://www.w3.org/1999/xlink" viewBox="0 0 544.21 543.93">
  <defs>
    <style>
      .cls-1 {
        fill: none;
      }

      .cls-2 {
        fill: #fff;
      }

      .cls-3 {
        fill: #323232;
      }

      .cls-4 {
        fill: #d6d6d6;
      }

      .cls-5 {
        fill: #6ec878;
      }

      .cls-6 {
        fill: #33c781;
      }

      .cls-7 {
        fill: url(#_新規パターン_2);
      }
    </style>
    <pattern id="_新規パターン_2" data-name="新規パターン 2" x="0" y="0" width="4.98" height="5.18" patternTransform="translate(-25.77 -28.25)" patternUnits="userSpaceOnUse" viewBox="0 0 4.98 5.18">
      <g>
        <rect class="cls-1" x="0" width="4.98" height="5.18"/>
        <rect class="cls-2" x="0" y="0" width="4.98" height="5.18"/>
        <circle class="cls-6" cx="2.49" cy="2.59" r="1.06"/>
      </g>
    </pattern>
  </defs>
  <g id="_レイヤー_1-2" data-name="レイヤー 1">
    <g>
      <g>
        <path class="cls-5" d="m122.05,470.51s.04.03.06.05c0,0,0,0,0,0-.02-.01-.04-.03-.06-.04Z"/>
        <path class="cls-5" d="m122.05,465.07s.03-.03.05-.04c0,0,0,0,0,0-.02.01-.04.04-.06.04Z"/>
        <path class="cls-5" d="m128.99,471.27c-.07.03-.09.05-.15.07-.06.05-.12.1-.17.12.11-.07.21-.15.32-.2Z"/>
        <path class="cls-5" d="m130.45,466.85c-.01.06-.01.1-.02.15,0,.02.01.04.02.06,0-.07-.01-.16,0-.22Z"/>
        <path class="cls-5" d="m130.48,467.18s-.02-.07-.03-.11c0,.1,0,.2,0,.31.04.05.07,0,.02-.2Z"/>
        <path class="cls-5" d="m126.79,472.38c-.05-.01-.08,0-.13-.02-.02,0-.04.01-.07.02.07,0,.14-.02.2,0Z"/>
        <path class="cls-5" d="m126.57,472.39s.01,0,.02,0c-.1,0-.19.01-.29.03.05,0,.14,0,.27-.02Z"/>
        <path class="cls-5" d="m122.24,470.75c.18.28.19.1.03-.08-.06-.05-.11-.09-.16-.12.04.07.09.13.13.2Z"/>
        <path class="cls-5" d="m122.37,464.78c.06-.2-.18.09-.27.25.08-.06.17-.14.27-.25Z"/>
        <path class="cls-5" d="m124.23,472.18s-.05-.03-.07-.06c-.01,0-.03,0-.04-.01.03.02.09.04.11.07Z"/>
        <path class="cls-5" d="m123.94,472.05c.06.02.12.04.18.06-.07-.05-.15-.11-.25-.15-.13-.03-.17.02.07.1Z"/>
        <path class="cls-4" d="m245.89,487.82c-7.33-27.47-14.67-54.94-22-82.41-.36-1.34-.41-1.78-1.18-2.02-34.13-2.47-68.38-4.9-102.55-7.37l-.29.93.29-.93c-33.21-2.39-66.43-4.77-99.64-7.16-3.64-.26-7.34-.76-10.99-.79-3.84-.18-.77,4.99-.58,7.04,10.95,41.66,21.9,83.32,32.85,124.99,72.27,5.64,144.61,10.41,216.91,15.74-4.27-16.01-8.55-32.02-12.82-48.03Zm-107.89-19.24c-.9,11.97-16.41,15.61-22.66,5.44-2.71-4.54-2.01-10.21,1.29-14.22,7.42-8.86,22.3-2.68,21.38,8.79Z"/>
        <path class="cls-2" d="m130.5,467.79c0-.12-.02-.27-.04-.41-.03-.04-.04-.18-.02-.37-.09-.36-.19-.71-.3-1.07-.18-.36-.38-.71-.61-1.03-.26-.26-.52-.52-.78-.78-.01-.01-.01-.01-.03-.02-.32-.24-.68-.41-1.03-.6-.4-.12-.79-.23-1.19-.33-.37-.02-.73-.03-1.1-.01,0,0-.04,0-.05,0-.44.06-.77.16-1.17.29-.24.23-.82.41-1.09.6-.09.06-.71.44-.15.09.54-.33-.02.04-.12.13-.11.11-.27.32-.43.5-.03.07-.11.17-.27.26-.2.29-.37.6-.53.91-.17.47-.3.96-.38,1.46.03-.09.03-.11.05-.17.04-.32.17-.59,0,0-.05.39-.02.79,0,1.18.07.45.26.87.39,1.31.14.29.31.56.49.82.06.04.12.07.16.12.24.23.53.61.7.78,0,0,0,0,0,0,.28.21.55.34.9.5.08.02.18.07.29.17.33.12.67.21,1.02.28.38.02.76.06,1.13.02-.13-.02.02-.1.35-.05.34-.08.67-.18,1-.28,0,0,0,0,.01,0,0,0,0,0,0,0,.35-.17.67-.37.99-.61-.17.09-.18.04.17-.13.25-.2.45-.45.67-.68.21-.32.39-.64.58-.97.22-.43.22-.91.38-1.37,0-.18.02-.35.02-.53Z"/>
        <path class="cls-5" d="m464.81,474.77c.07.06.07.06,0,0h0Z"/>
        <path class="cls-2" d="m463.07,459.56c-.21,2.08-.42,4.15-.63,6.23,18.63,3.42,15.77,29.99-3,29.63-.23,2.21-.46,4.41-.7,6.62,27.4-.78,31.16-37.14,4.33-42.48Z"/>
        <path class="cls-2" d="m270.3,282.51c-2.51-2.29-5.93-3.07-9.2-2.19-3.11.84-5.68,2.71-9.07,1.94-2.44-.56-4.8-3.76-7.22-3.42-2.66.37-3.7,3.46-5.84,4.62-4.41,2.4-6.92-2.17-10.17-4.01-.89-.51-3.1.56-4.99.42-1.35-.1-2.85-.66-4.12-.01-.3.15-.88.91-.98.99-1.45,2.71-1.8,7.68-2.31,10.95-.66,4.24-1.34,8.26-2.56,12.39-4.47,15.08-8.94,30.16-13.41,45.24-.96,3.24-4.76,3.27-6.54,1.43-.84,2.48-1.54,4.86-1.96,7.43,11.19,8.99,26.12,12.31,40.08,9.53.28-3.43,2.62-6.92,4-11.23-.43.27-.82.59-1.26.85-4.19,2.53-7.99-4.02-3.82-6.54,18.46-11.16,28.57-31.55,31.9-52.31.81-4.82,8.07-2.75,7.31,2.01-.45,2.72-1.54,7.68,1.4,9.43,3.31,1.97,3.14-5.28,3.35-7.11.79-6.89,1.02-15.3-4.58-20.4Z"/>
        <path class="cls-7" d="m382.21,446.84c.58-17.5,25.42-16.66,38.13-16.92,7.11.05,14.88-.25,22.29.75l-3.64-8.56c-1.56.71-3.43.43-4.34-1.61-5.3-11.87-8.26-24.76-11.48-37.31-3.37-13.15-6.59-26.37-10.76-39.29-3.48-10.78-7.52-21.19-15.71-29.32-19.13-18.98-47.85-24.01-67.23-42.73-4.47,3.01-7.63,7.61-11.03,11.75,1.77,1.8,1.02,4.48-.85,5.83-8.7,6.66-18.53,11.69-28.94,15.08-2.04.67-4.41-.89-4.71-2.97-.4.56-.89,1-1.45,1.36-.48,4.22-.53,9.67-3.79,12.86-3.25,3.27-8.96,2.69-12.27-.03-5.49,16.49-15.59,31.39-30.41,40.84-1.38,4.31-3.72,7.8-4,11.23,2.85-.57,5.66-1.36,8.38-2.44,2.17-2.91,7.82-.87,6.67,3.32-.33,1.19-.65,2.38-.98,3.56-2.28,8.31-4.55,16.61-6.83,24.92-.51,1.86-1.96,2.66-3.44,2.67-.84,3.18-2.01,6.14-3.12,9.14,3.54,13.26,7.08,26.51,10.62,39.77h15.06c-1.1-2.26-.03-5.63,3.23-5.59,3.96.05,7.92.09,11.87.14,27.66.33,55.32.66,82.98.98,2.71.03,3.91,2.39,3.61,4.46h22.24c-.05-.62-.18-1.3-.1-1.91Z"/>
        <path class="cls-2" d="m327.54,184.97c-.23-.98-1.12-2.51-1.88-3.26-.08-.06-.55-.28-.67-.35-1.35-.23-2.52,1.39-3.32,2.31-1.91,2.26-6.14.79-6.39-2.04-1.15.89-2.1,1.9-2.82,3.05.59.89.82,2.01.65,3.17-1.24,8.93-2.62,18.49.47,27.19.29-.38.65-.7,1.11-.9,10.03-4.62,16.04-18.48,12.84-29.16Z"/>
        <path class="cls-5" d="m323.98,489.02c.11.21.18.45.24.68h15.63l-15.88-.68Z"/>
        <path class="cls-4" d="m335.24,495l4.91-5.31h-15.93c.65,2.2-.49,4.99-3.46,4.95-2.47-.03-4.94-.06-7.4-.09-17.15-.2-34.29-.4-51.44-.6-3.56-.04-4.51-4.07-2.88-6.24h-5.34c4.23,15.84,8.46,31.68,12.69,47.52,21.22-13.99,42.44-27.97,63.66-41.96,2.23-1.47,4.36-.18,5.19,1.72Z"/>
        <path class="cls-2" d="m191.51,176.49c1.3,4.34,3.28,7.63,5.76,10.1h4.34-4.34c5.56,5.53,13.64,6.92,22.39,6.61-16.67-10.62-21.56-33.53-10.86-50.1,2.59-4.12,9.15-.32,6.54,3.82-9.63,14.91-3.72,34.97,12.49,42.22,1.48.7,2.02,1.9,1.93,3.1,5.18-.72,10.34-1.69,15.13-2.45-12.75-10.98-15.96-30.55-7.83-45.22,2.28-4.32,8.82-.49,6.54,3.82-6.86,13-3.08,29.48,8.97,37.99,1.21.85,1.94,2.18,1.85,3.56,9.49,3.15,20.01,2.36,26.85-3.92-5.19-2.14-9.87-5.46-13.44-9.92-6.33-7.89-8.78-17.89-7.2-27.83.47-2.7,4.51-3.69,6.23-1.69,21.36,4.62,32.23,23.47,38.41,42.99.17-1.26.35-2.51.52-3.76.51-3.01,5.23-3.74,6.66-1.15.72-1.15,1.67-2.16,2.82-3.05-.16-1.15.24-2.35,1.03-3.31,2.89-3.52,7.25-5.32,11.24-3.99.43-1.87.72-3.74.75-5.6-2.17.56-4.86-.61-4.88-3.51-.2-12.92-2.98-25.88-7.46-37.97-4.3-10.42-13.14-18.99-23.4-23.48-3.67-1.61-1.7-6.3,1.57-6.84-.77-.98-1.62-1.92-2.53-2.85-2.23,1.56-5.15.38-5.87-2.13-2.16,2.08-4.54,3.95-7.06,5.54-4.14,2.62-7.93-3.94-3.82-6.54,5.74-3.63,10.66-8.67,12.24-15.46,1.17-5.02-.14-12.41-5.55-14.61-1.9-.77-3.24-2.49-2.65-4.66.5-1.81,2.76-3.42,4.66-2.65,12.88,5.14,14.38,22.48,6.93,32.74,7.33-3.93,12.45-11.52,12.4-19.99-.05-7.84-6.1-17.28-15.07-15.15-3.25.77-5.21-2.4-4.61-4.84-1.22.15-2.44.4-3.65.72.88,2.73-2.18,6.34-5.56,4.59-9.1-4.38-20.25-.28-21.96,10.28-2.16,9.74,2.14,21.07,12.8,23.07,2.02.38,3.15,2.81,2.65,4.66-2.43,6.68-13.57-.68-16.48-3.94-4.28.25-8.71,1.03-12.28,3.31.56-.07,1.12-.16,1.68-.22,4.85-.51,4.8,7.07,0,7.58-8.89.93-17.53,3.78-25.18,8.42-12.97,7.87-21.65,20.52-26.57,34.69-5.45,15.69-4.52,32.04,6.73,44.98.59.68.89,1.42.96,2.15h.94c-2.48-2.47-4.46-5.76-5.76-10.1Z"/>
        <path class="cls-2" d="m327.86,270.34c-1.43-1.47-1.3-3.27-.43-4.6-1.26-1.92-2.2-4.08-2.98-6.24-2.48,6.55-7.28,12.07-14.53,15-4.53,1.83-6.48-5.5-2.01-7.31,6.05-2.45,9.94-8.64,10.88-14.92,1.16-7.78-1.74-15.1-5.6-21.69-8.94-13.95-10.48-24.76-7.9-41-6.19-19.52-17.06-38.38-38.41-42.99.93.93,1.3,2.31,1.08,3.71-2.35,14.8,8.73,29.2,23.62,30.75,2.04.21,3.79,1.56,3.79,3.79,0,1.9-1.75,4-3.79,3.79-3.54-.37-7.01-1.25-10.28-2.59-6.84,6.28-17.36,7.07-26.85,3.92-.05,2.59-3.47,4.51-5.68,2.98-1.36-.96-2.63-2.02-3.86-3.13-4.79.76-9.95,1.73-15.13,2.45-.18,2.39-2.84,4.81-5.75,3.44-1.52-.71-2.96-1.57-4.35-2.49-8.75.31-16.84-1.07-22.39-6.61h-.94c.32,3.2-3.71,6.21-6.32,3.21-.33-.39-.63-.79-.96-1.18.11,4.17.45,8.34,1.32,12.51,2-1.48,5.21-1.23,5.77,1.85,2.23,12.3,3.75,25,8.07,36.79,4.3,11.74,12.6,22.76,22.49,30.38.52.4.95.88,1.27,1.4,0,0,0,0,.01,0,3.45-.23,5.49,2.08,8.13,4.07,4.37-4.43,10.96-6.24,15.97-1.77,1.99,1.38,2.84.74,5.02-.11,7.75-3.03,16.01-.54,20.94,6.14,4.91,6.65,5.33,15.1,4.42,23.03,0,0,0,0,0,0,.56-.36,1.05-.8,1.45-1.36-.23-1.24.19-2.43,1.02-3.28,0-.18.04-.34.04-.54,0,.2-.03.36-.04.54.46-.47,1.02-.85,1.68-1.06,9.79-3.19,18.94-8.05,27.13-14.32,1.4-1.07,3.51-.48,4.68.72,3.4-4.14,6.56-8.74,11.03-11.75-.53-.51-1.08-.99-1.59-1.52Zm-108.73-59.73c-4.88,0-4.88-7.58,0-7.58s4.88,7.58,0,7.58Zm14.17,21.74c2.25-6.99,4.73-13.84,4.64-21.26.19-4.96,7.41-5,7.58,0-.04,8.09-2.45,15.66-4.91,23.27-.65,2.02-2.59,3.12-4.66,2.65-1.94-.44-3.26-2.77-2.65-4.66Zm32.34,24.28c-7.26,6.26-19.26,9.14-27.73,3.75-4.17-2.84-.54-8.94,3.82-6.54.47.35.97.65,1.5.9.86.21,1.7.52,2.58.7,1.61.2,3.24.15,4.86-.01,0,0,0,0,.01,0,1.8-.28,3.56-.76,5.26-1.44,1.31-.58,2.57-1.33,3.71-2.15,3.62-4.18,9.64.57,5.99,4.8Zm-.81-46.72c-4.88,0-4.88-7.58,0-7.58s4.88,7.58,0,7.58Zm28.38,56.37c-3.17,4.21-6.34,8.32-10.39,11.74-1.57,1.32-3.81,1.55-5.36,0-1.36-1.36-1.56-4.04,0-5.36,6.58-5.56,12.03-13.22,16.27-20.69,3.73-6.56,5.54-13.66,6.02-21.16.31-4.85,7.89-4.87,7.58,0-.51,13.16-5.92,25.3-14.13,35.47Z"/>
        <path class="cls-7" d="m192.51,393.65c10.06.72,20.2,1.15,30.24,2.17,7.67.77,8.3,7.32,9.94,13.16,1.11-3,2.28-5.96,3.12-9.14-2.28.02-4.64-1.83-3.86-4.68.33-1.19.65-2.38.98-3.56,1.58-5.77,3.16-11.55,4.75-17.32-18.09,5.29-42.22.4-54.52-14.39-4.79,9.35-9.58,16.68-14.37,26.27,4.79-9.58,9.58-16.92,14.37-26.27-.79-3.09,3.44-6.37,6.43-3.61.76.7,1.54,1.37,2.34,2.01.42-2.57,1.12-4.96,1.96-7.43-.79-.82-1.19-2-.76-3.44,3.18-10.71,6.35-21.43,9.53-32.14,2.23-7.5,4.83-14.91,6.01-22.66.64-4.16.94-9.03,2.45-13.17-4.69,2.62-9.99,4.22-15.1,6.62,1.87,1.63,1.91,5.62-1.23,6.88-9.18,3.7-18.3,7.67-26.86,12.67-5.24,3.06-11.4,6.56-15.41,11.21-3.73,4.33-5.43,10.57-6.99,15.93-4.51,15.52-6.99,31.62-12.94,46.71-1.4,3.56-6.28,3.05-7.36.44l-2.74,8.73c23.34,1.68,46.68,3.35,70.02,5.03Z"/>
        <path class="cls-5" d="m128.67,471.47s0,0,0,0c0,0,0,0,0,0Z"/>
        <path class="cls-2" d="m448.23,439.72c-10.27-2.91-21.54-2.32-32.13-2.21-7.07.26-26.97.06-26.32,10.22,2.1,20.78,4.19,41.57,6.29,62.35.88,7.68.15,17.61,10.48,18.08,9.71.25,19.45,0,29.17,0,4.38,0,8.84.25,11.86-3.68,1.99-2.59,1.96-5.93,2.28-9.05,1-9.9,2-19.79,3-29.69,1.08-10.71,2.16-21.42,3.24-32.14,1.21-8.28,1.22-11.32-7.86-13.9Zm-3.86,11.37c-13.56,1.84-27.22,1.26-40.82.25-4.86-.27-4.87-7.85,0-7.58,6.81.38,13.62.93,20.44,1.01,6.82.07,13.61-.51,20.38-1.26,2.05-.23,3.79,1.91,3.79,3.79,0,2.21-1.76,3.56-3.79,3.79Z"/>
        <path class="cls-3" d="m299.76,230.82c-.48,7.5-2.3,14.6-6.02,21.16-4.24,7.47-9.69,15.13-16.27,20.69-3.4,3.6,1.56,8.71,5.36,5.36,7.17-6.46,12.8-14.51,17.75-22.75,4.22-7.61,6.2-15.81,6.76-24.46.31-4.87-7.27-4.85-7.58,0Z"/>
        <path class="cls-3" d="m219.13,210.61c4.88,0,4.88-7.58,0-7.58s-4.88,7.58,0,7.58Z"/>
        <path class="cls-3" d="m264.83,202.34c-4.88,0-4.88,7.58,0,7.58s4.88-7.58,0-7.58Z"/>
        <path class="cls-3" d="m237.91,260.38c8.47,5.39,20.47,2.51,27.73-3.75,3.67-4.22-2.4-8.98-5.99-4.8-1.14.82-2.41,1.58-3.71,2.15-1.69.68-3.46,1.16-5.26,1.44,0,0,0,0-.01,0-1.61.16-3.24.21-4.86.01-.88-.18-1.72-.49-2.58-.7-.53-.25-1.03-.55-1.5-.9-4.36-2.4-7.99,3.71-3.82,6.54Z"/>
        <path class="cls-3" d="m334.21,201.45c2.94-8.58,3.22-23.1-6.66-27.14-.56,2.41-1.36,4.82-2.16,7.23.8-2.41,1.6-4.82,2.16-7.23-3.99-1.32-8.35.47-11.24,3.99-.79.96-1.18,2.17-1.03,3.31,1.36-1.05,3.01-1.93,5.05-2.61-2.04.68-3.69,1.56-5.05,2.61.25,2.83,4.48,4.31,6.39,2.04.8-.92,1.96-2.54,3.32-2.31.12.07.59.29.67.35,3.23,3.77,3.18,9.38,2.25,14.08-1.63,7.61-6.09,15.22-13.21,18.35-.46.2-.82.52-1.11.9-3.1-8.7-1.72-18.26-.47-27.19.17-1.16-.07-2.28-.65-3.17-1.59,2.53-2.23,5.7-2.23,9.5,0-3.8.64-6.97,2.23-9.5-1.42-2.58-6.15-1.86-6.66,1.15-1.1,7.74-2.23,15.58-1.26,23.4,1.41,15.58,16.73,26.78,14.24,43.06-.93,6.28-4.82,12.48-10.88,14.92-4.46,1.8-2.51,9.14,2.01,7.31,7.25-2.93,12.04-8.45,14.53-15-.58-1.6-1.08-3.21-1.59-4.71.5,1.5,1.01,3.11,1.59,4.71,2.71-7.14,2.67-15.51-.06-23.1-1.96-5.45-5.35-10.22-8.07-15.29,8.86-1.54,15.18-11.75,17.9-19.66Z"/>
        <path class="cls-3" d="m328.54,143.86c-3.68-20.29-12.42-37.92-32.15-46.66-.78-.34-1.55-.41-2.25-.3,3.11,3.95,5.31,8.17,8.51,11.38-3.21-3.21-5.4-7.43-8.51-11.38-3.28.54-5.25,5.23-1.57,6.84,10.26,4.49,19.1,13.07,23.4,23.49,4.48,12.09,7.26,25.05,7.46,37.97.02,2.9,2.71,4.07,4.88,3.51.05-3.3-.71-6.6-2.91-9.9,2.2,3.3,2.96,6.6,2.91,9.9,1.47-.38,2.71-1.54,2.69-3.51-.05-7.18-.92-14.32-2.46-21.33Z"/>
        <path class="cls-3" d="m121.23,467.23c.17-.59.04-.32,0,0h0Z"/>
        <path class="cls-3" d="m122.11,470.55s0,0,0,0c.05.03.1.06.16.12-.04-.04-.1-.08-.16-.12Z"/>
        <path class="cls-3" d="m128.67,471.47c.05-.03.11-.08.17-.13-.35.16-.34.22-.17.13Z"/>
        <path class="cls-3" d="m129.88,456.26c-10.51-3.92-20.32,8.22-14.55,17.76,6.26,10.17,21.77,6.53,22.66-5.44.48-5.47-3.06-10.44-8.11-12.33Zm.22,13.43c-.19.33-.38.65-.58.97-.22.23-.42.48-.67.68.05-.03.07-.04.15-.07-.11.05-.21.12-.32.2,0,0,0,0,0,0-.33.24-.64.44-.99.61,0,0,0,0,0,0,0,0,0,0-.01,0-.33.1-.66.2-1,.28.05,0,.07,0,.13.02-.05-.01-.13,0-.2,0-.12.03-.24.04-.29.03-.38.04-.76,0-1.13-.02-.34-.07-.69-.16-1.02-.28.02.02.05.03.07.06-.02-.03-.08-.04-.11-.07-.13-.03-.54-.19-.25-.15-.35-.16-.62-.29-.9-.5,0,0,0,0,0,0-.17-.17-.46-.55-.7-.78.3.46-.06.1-.16-.12-.02-.01-.04-.04-.06-.05.03.01.04.03.06.04-.18-.26-.35-.54-.49-.82-.13-.44-.32-.86-.39-1.31-.02-.39-.04-.79,0-1.18-.02.06-.02.08-.05.17.09-.49.22-.98.38-1.46.17-.31.33-.63.53-.91-.02.01-.03.03-.05.04.02,0,.04-.03.06-.04.08-.16.33-.45.27-.25.16-.18.32-.4.43-.5.1-.09.66-.46.12-.13-.56.35.06-.03.15-.09.27-.18.85-.37,1.09-.6.4-.14.73-.24,1.17-.29.02,0,.05,0,.05,0,.37-.02.74-.01,1.1.01.4.1.8.21,1.19.33.35.19.71.37,1.03.6.01,0,.01.01.03.02.26.26.52.52.78.78.23.33.43.68.61,1.03.11.35.21.71.3,1.07,0-.05,0-.09.02-.15-.01.06,0,.14,0,.22.03.09.1.42,0,.31.02.15.04.3.04.41,0,.18-.01.35-.02.53-.15.46-.16.94-.38,1.37Z"/>
        <path class="cls-3" d="m126.31,472.41c.09-.01.19-.02.29-.03.02,0,.04-.01.07-.02-.34-.05-.48.03-.35.05Z"/>
        <path class="cls-3" d="m124.12,472.11s.03,0,.04.01c-.11-.1-.21-.15-.29-.17.1.05.18.1.25.15Z"/>
        <path class="cls-3" d="m122.37,464.78c-.09.11-.18.19-.27.25,0,0,0,0,0,0,.16-.09.24-.19.27-.26Z"/>
        <path class="cls-3" d="m130.46,467.37c-.01-.11,0-.2,0-.31,0-.02-.01-.04-.02-.06-.02.19,0,.32.02.37Z"/>
        <path class="cls-3" d="m235.95,237.01c2.08.47,4.01-.63,4.66-2.65,2.46-7.61,4.87-15.18,4.91-23.27-.17-4.99-7.38-4.97-7.58,0,.09,7.41-2.39,14.26-4.64,21.26-.61,1.89.71,4.22,2.65,4.66Z"/>
        <path class="cls-3" d="m335.24,495l-3.77,4.07,3.77-4.07c-.83-1.9-2.96-3.19-5.19-1.72-21.22,13.99-42.44,27.97-63.66,41.96-4.23-15.84-8.46-31.68-12.69-47.52h-4.6,4.6c-3.47-12.99-6.94-25.98-10.4-38.97h-3.57,3.57c-3.54-13.26-7.08-26.51-10.62-39.77-1.71,4.61-3.28,9.31-3.28,15.05,0-5.75,1.57-10.45,3.28-15.05-1.63-5.84-2.27-12.39-9.94-13.16-10.04-1.02-20.18-1.45-30.24-2.17-23.34-1.68-46.68-3.35-70.02-5.03l-2.33,7.41c33.29,2.39,66.59,4.78,99.88,7.17,1.95.17,3.42-.56,3.85,2.21,11.61,43.48,23.22,86.96,34.83,130.44-72.3-5.34-144.64-10.1-216.91-15.74-10.95-41.66-21.9-83.32-32.85-124.99-.21-2.08-3.25-7.2.58-7.04,3.65.03,7.36.53,10.99.79,33.21,2.39,66.43,4.77,99.64,7.16l2.33-7.41c-36.82-2.64-73.64-5.29-110.46-7.93-7.49-1.52-13.54,3.84-11.69,11.49,1.05,4.19,2.2,8.36,3.3,12.54,5.59,21.27,11.18,42.55,16.77,63.82,4.93,18.77,9.87,37.54,14.8,56.31.45,1.7,1.99,2.66,3.65,2.78,7.44.53,14.87,1.07,22.31,1.6,67.88,4.57,135.82,10.28,203.66,14.47.91.36,1.98.32,3.09-.4,19.25-12.69,38.49-25.37,57.74-38.06,2.74-1.81,5.48-3.61,8.22-5.42,1.85-1.22,2.06-3.23,1.36-4.82Z"/>
        <path class="cls-3" d="m316.68,488.71l7.3.31c-.55-1.1-1.62-1.93-3.21-1.95-17.15-.2-34.29-.4-51.44-.6-2.47-.03-4.94-.06-7.4-.09-1.32-.02-2.27.54-2.88,1.34h12.74-12.74c-1.63,2.16-.68,6.19,2.88,6.24,17.15.2,34.29.4,51.44.6,2.47.03,4.94.06,7.4.09,3.28.04,4.34-3.37,3.21-5.63l-7.3-.31Z"/>
        <path class="cls-3" d="m278.04,279.89c-4.93-6.68-13.19-9.17-20.94-6.14-2.17.85-3.03,1.49-5.02.11-5.01-4.47-11.61-2.66-15.97,1.77-2.63-1.99-4.68-4.31-8.13-4.07,0,0,0,0-.01,0-.33-.53-.76-1.01-1.27-1.4-9.89-7.62-18.19-18.64-22.49-30.38-4.32-11.79-5.84-24.5-8.07-36.79-.56-3.08-3.77-3.33-5.77-1.85.75,3.57,1.88,7.15,3.67,10.72l2.53-2.53-2.53,2.53c-1.79-3.57-2.92-7.15-3.67-10.72-1.11.82-1.85,2.16-1.54,3.87.7,3.86,1.33,7.77,2,11.68.29,5.37-4.78,10.72-7.85,14.66-4.04,5.26-7.42,10.37-8.36,17.11-2.02,14.41,7.12,27.94,21.06,31.84,4.7,1.32,6.71-5.99,2.01-7.31-12.39-3.47-19.26-17.07-14.06-29.05,2.15-4.95,6.42-9.25,9.82-13.89,3.45,16.27,11.97,31.29,24.41,42.41-3.32.98-5.77,3.71-6.76,6.97,3.06-1.71,5.86-3.85,8.19-6.96-2.33,3.1-5.13,5.25-8.19,6.96-1.5,4.14-1.81,9.01-2.45,13.17-1.18,7.75-3.78,15.16-6.01,22.66-3.18,10.71-6.35,21.43-9.53,32.14-.43,1.44-.03,2.62.76,3.44.81-2.37,1.74-4.83,2.68-7.64-.94,2.81-1.87,5.27-2.68,7.64,1.79,1.84,5.58,1.81,6.54-1.43,4.47-15.08,8.94-30.16,13.41-45.24,1.22-4.12,1.89-8.14,2.56-12.39.51-3.27.86-8.24,2.31-10.95.1-.08.68-.83.98-.99,1.27-.64,2.77-.09,4.12.01,1.89.14,4.09-.93,4.99-.42,3.25,1.84,5.76,6.42,10.17,4.01,2.14-1.17,3.19-4.25,5.84-4.62,2.42-.34,4.78,2.86,7.22,3.42,3.39.78,5.96-1.09,9.07-1.94,3.27-.89,6.69-.1,9.2,2.19,5.6,5.1,5.37,13.52,4.58,20.4-.21,1.84-.04,9.09-3.35,7.11-2.94-1.75-1.85-6.71-1.4-9.43.77-4.76-6.5-6.83-7.31-2.01-3.34,20.76-13.45,41.15-31.9,52.31-4.17,2.52-.36,9.08,3.82,6.54.44-.26.83-.58,1.26-.85.57-1.78.98-3.68.98-5.8,0,2.12-.41,4.02-.98,5.8,14.82-9.45,24.92-24.35,30.41-40.84,3.31,2.72,9.02,3.31,12.27.03,3.26-3.19,3.3-8.63,3.79-12.86-2.44,1.56-6.01,1.76-7.59,4.92,1.58-3.17,5.15-3.36,7.59-4.92,0,0,0,0,0,0,.9-7.93.49-16.38-4.42-23.03Z"/>
        <path class="cls-3" d="m283.91,301.56c.57-.79.95-1.84,1.02-3.28-.83.85-1.25,2.04-1.02,3.28Z"/>
        <path class="cls-3" d="m318.93,284.26c-.13-.23-.31-.44-.51-.64-4.01,4.88-8.39,9.07-15.76,9.07,7.37,0,11.75-4.19,15.76-9.07-1.17-1.19-3.28-1.79-4.68-.72-8.18,6.27-17.33,11.13-27.13,14.32-.65.21-1.22.59-1.68,1.06-.08,1.44-.45,2.49-1.02,3.28.3,2.07,2.67,3.63,4.71,2.97,10.41-3.39,20.24-8.42,28.94-15.08,1.62-1.24,2.48-3.26,1.36-5.18Z"/>
        <path class="cls-3" d="m192.76,285.63c-15.47,6.24-31.11,13.14-43.87,24.14-4.61,3.98-7.03,9.94-8.98,15.55-2.65,7.66-4.41,15.62-6.3,23.49-2.33,9.66-4.69,19.36-8.34,28.63-.37.94-.33,1.76-.05,2.45l2.54-8.09-2.54,8.09c1.08,2.62,5.96,3.13,7.36-.44,5.94-15.09,8.43-31.2,12.94-46.71,1.56-5.36,3.25-11.6,6.99-15.93,4.01-4.65,10.17-8.15,15.41-11.21,8.56-5,17.68-8.97,26.86-12.67,3.14-1.27,3.1-5.26,1.23-6.88-2.41,1.13-4.78,2.43-7.02,4.11,2.24-1.68,4.61-2.98,7.02-4.11-.79-.69-1.9-.96-3.24-.42Z"/>
        <path class="cls-3" d="m277.81,45.07c-9.56-4.96-22.89-3.07-29.34,5.98-6.98,9.94-6.18,25.97,2.52,34.63,2.15-.13,4.26-.13,6.2-.13-1.94,0-4.05,0-6.2.13,2.91,3.27,14.06,10.61,16.48,3.94.51-1.85-.62-4.28-2.65-4.66-10.66-2-14.96-13.33-12.8-23.07,1.7-10.56,12.86-14.67,21.96-10.28,3.38,1.75,6.44-1.85,5.56-4.59-.72.19-1.43.4-2.15.64.72-.24,1.43-.45,2.15-.64-.25-.76-.79-1.46-1.73-1.96Z"/>
        <path class="cls-3" d="m310.41,64.88c-.25-12.53-11.7-24.18-24.61-21.04-1.5.36-2.32,1.33-2.6,2.47,5.64-.68,11.29.76,16.93,6.41-5.64-5.64-11.29-7.08-16.93-6.41-.59,2.44,1.37,5.61,4.61,4.84,8.97-2.13,15.02,7.31,15.07,15.15.06,8.47-5.06,16.06-12.4,19.99,7.45-10.26,5.95-27.61-6.93-32.74-1.9-.77-4.16.84-4.66,2.65-.6,2.17.74,3.89,2.65,4.66,5.42,2.2,6.72,9.58,5.55,14.61-1.58,6.79-6.5,11.83-12.24,15.46-4.11,2.6-.31,9.16,3.82,6.54,2.52-1.6,4.9-3.46,7.06-5.54.72,2.51,3.64,3.7,5.87,2.13-1.21-1.23-2.53-2.4-4.11-3.46,1.58,1.05,2.9,2.23,4.11,3.46,11.34-5.23,19.64-16.21,18.8-29.18Z"/>
        <path class="cls-3" d="m240.39,88.77c-.56.06-1.12.14-1.68.22-1.63,1.04-3.08,2.38-4.25,4.14,1.17-1.76,2.63-3.1,4.25-4.14-17.38,2.23-33.56,10.52-44.55,24.4-16.72,20.89-24.27,53.47-5.11,75.23-.06-2.36-.07-4.72-.07-7.08,0,2.36,0,4.72.07,7.08.32.39.62.8.96,1.18,3.21,3.69,8.55-1.69,5.36-5.36-21.4-24.51-5.11-64.2,19.84-79.67,7.65-4.64,16.29-7.49,25.18-8.42,4.8-.5,4.85-8.09,0-7.58Z"/>
        <path class="cls-3" d="m219.66,193.2c1.4.92,2.83,1.77,4.35,2.49,2.91,1.37,5.58-1.05,5.75-3.44-3.4.47-6.8.83-10.11.95Z"/>
        <path class="cls-3" d="m227.84,189.14c-16.21-7.26-22.12-27.31-12.49-42.22,2.6-4.14-3.95-7.95-6.54-3.82-10.7,16.57-5.81,39.48,10.86,50.1,3.31-.12,6.71-.48,10.11-.95.09-1.21-.45-2.41-1.93-3.1Z"/>
        <path class="cls-3" d="m252.58,186.39c-12.06-8.51-15.83-24.99-8.97-37.99,2.27-4.31-4.26-8.14-6.54-3.82-8.13,14.67-4.91,34.24,7.83,45.22,1.61-.26,3.19-.49,4.71-.68-1.52.19-3.09.42-4.71.68,1.22,1.11,2.5,2.17,3.86,3.13,2.21,1.54,5.63-.39,5.68-2.98-2.56-.85-5.04-1.97-7.35-3.36,2.31,1.39,4.8,2.51,7.35,3.36.09-1.38-.65-2.71-1.85-3.56Z"/>
        <path class="cls-3" d="m291.57,181.05c-14.89-1.55-25.97-15.95-23.62-30.75.32-2.02-.52-4.08-2.65-4.66-1.8-.5-4.34.61-4.66,2.65-2.75,15.45,5.86,32.05,20.65,37.75,1.39-1.27,2.64-2.75,3.68-4.49-1.04,1.74-2.3,3.22-3.68,4.49,3.27,1.34,6.74,2.22,10.28,2.59,2.04.21,3.79-1.89,3.79-3.79,0-2.23-1.74-3.58-3.79-3.79Z"/>
        <path class="cls-3" d="m478.86,458.62c-4.35-3.62-9.49-5.85-15-6.6,3.11-14.46-9.08-19.71-21.24-21.34l1.81,4.26-1.81-4.26c-7.4-1.01-15.18-.7-22.29-.75-12.69.25-37.54-.58-38.13,16.92-.08.6.05,1.29.1,1.91h6.88-6.88c1.98,19.62,3.96,39.23,5.94,58.85,1.21,9.32.18,20.76,9.8,25.94,4.58,2.55,9.58,2.19,14.6,2.19h19.06c4.34,0,9.36.56,13.55-.81,7.56-2.47,11.25-9,11.88-16.54.27-3.22.6-6.44.93-9.65.56.38,1.25.61,2.11.6,12.04-.17,22.72-7.56,27.01-18.83,4.2-11.05.76-24.3-8.33-31.87Zm-22.77-5.01c-2.08,20.61-4.16,41.21-6.24,61.82-.31,3.11-.28,6.46-2.28,9.05-3.03,3.93-7.48,3.68-11.86,3.68-9.71,0-19.46.25-29.17,0-10.32-.48-9.59-10.39-10.47-18.08-2.1-20.78-4.19-41.57-6.29-62.35-.68-10.14,19.26-9.97,26.32-10.22,10.59-.11,21.86-.7,32.13,2.21,8.98,2.53,9.11,5.59,7.86,13.9Zm5.59,19.68c.51.1,1.01.29,1.53.49.63.33,1.02.53,1.53.93.49.41.92.87,1.34,1.35-.26-.26-.3-.3-.24-.24.52.54.83,1.16,1.15,1.84.23.62.43,1.25.54,1.9,0,.01,0,.02,0,.03.05.65.04,1.3,0,1.95-.13.63-.32,1.3-.55,1.9-.23.52-.48.93-.78,1.39-.12.19-.7.82-.11.17-.38.5-.91.89-1.33,1.34-.02.02,0,0-.02.02-.47.35-.98.62-1.5.88-.64.3-1.56.57-2.22.62-.27.02-.54.04-.81.04.49-4.87.98-9.74,1.47-14.62Zm-1.51,28.45c-.54,0-1.02.12-1.44.29.24-2.21.47-4.41.7-6.62,18.79.36,21.62-26.21,3-29.63.21-2.08.42-4.15.63-6.23,25.94,4.62,23.46,41.01-2.89,42.19Z"/>
        <path class="cls-3" d="m444.36,443.51c-13.56,1.84-27.22,1.26-40.82.25-4.87-.27-4.86,7.31,0,7.58,13.6,1.01,27.26,1.58,40.82-.26,2.03-.22,3.79-1.58,3.79-3.79,0-1.87-1.74-4.02-3.79-3.79Z"/>
        <path class="cls-3" d="m327.43,265.74c-.87,1.33-1,3.13.43,4.6.51.53,1.06,1.01,1.59,1.52.84-.56,1.73-1.07,2.67-1.5-1.97-1.19-3.49-2.79-4.69-4.61Z"/>
        <path class="cls-3" d="m441.18,416.68c-4.67-10.45-7.24-21.99-10.08-33.03-3.4-13.2-6.61-26.47-10.68-39.49-3.47-11.1-7.42-22.31-15.03-31.31-8.78-10.39-21.03-17.16-32.97-23.27-13.68-7-28.35-13.39-39.21-24.61-1.97-2.04-4.59-1.08-5.79.76,1.2,1.83,2.72,3.43,4.69,4.61.29-.13.55-.29.85-.41-.3.12-.56.28-.85.41,2.17,1.31,4.89,2.12,8.43,2.12-3.53,0-6.26-.81-8.43-2.12-.94.44-1.83.94-2.67,1.5,19.38,18.72,48.1,23.75,67.23,42.73,8.19,8.12,12.23,18.54,15.71,29.32,4.17,12.92,7.39,26.14,10.76,39.29,3.22,12.54,6.18,25.44,11.48,37.31.91,2.04,2.78,2.32,4.34,1.61l-4.41-10.36,4.41,10.36c1.85-.83,3.27-3.05,2.2-5.44Z"/>
        <path class="cls-3" d="m258.37,448.75c.54,1.12,1.61,1.97,3.23,1.99,27.66.33,55.32.65,82.98.98,3.96.05,7.92.09,11.87.14,2.17.03,3.37-1.46,3.61-3.11h-101.7Z"/>
        <path class="cls-3" d="m356.46,444.29c-31.62-.37-63.24-.75-94.86-1.12-3.26-.04-4.33,3.33-3.23,5.59h101.7c.3-2.08-.89-4.43-3.61-4.46Z"/>
        <path class="cls-3" d="m240.39,365.37c-2.73,1.08-5.54,1.87-8.38,2.44-.02.22-.07.44-.07.65,0-.22.06-.44.07-.65-13.95,2.78-28.88-.55-40.08-9.53-.26,1.61-.41,3.3-.41,5.14,0-1.84.15-3.52.41-5.14-.8-.64-1.58-1.31-2.34-2.01-3-2.76-7.22.53-6.43,3.61.26-.51.52-1,.78-1.52-.26.52-.52,1.01-.78,1.52,12.31,14.8,36.41,19.68,54.52,14.39-1.58,5.77-3.16,11.55-4.75,17.32-.33,1.19-.65,2.38-.98,3.56-.78,2.85,1.59,4.7,3.86,4.68.71-2.67,1.18-5.5,1.18-8.65,0,3.14-.47,5.97-1.18,8.65,1.49-.01,2.94-.81,3.44-2.67,2.28-8.31,4.55-16.61,6.83-24.92.33-1.19.65-2.38.98-3.56,1.15-4.19-4.5-6.23-6.67-3.32Z"/>
      </g>
      <g>
        <path class="cls-2" d="m537.87,55.02h-143.03v70.18c0,2.41-.08,4.83,0,7.24.2,6.29,5.15,10.18,11.15,10.22,8.06.05,16.12,0,24.18,0h93.14c1.98,0,4.12.19,6.09-.14,11.11-1.89,8.47-16.8,8.47-24.85v-62.65Zm-124.09,64.87c-4.06,0-4.06-6.31,0-6.31s4.06,6.31,0,6.31Zm0-20.31c-4.06,0-4.06-6.31,0-6.31s4.06,6.31,0,6.31Zm0-20.31c-4.06,0-4.06-6.31,0-6.31s4.06,6.31,0,6.31Zm21.15,40.62c-4.06,0-4.06-6.31,0-6.31s4.06,6.31,0,6.31Zm0-20.31c-4.06,0-4.06-6.31,0-6.31s4.06,6.31,0,6.31Zm0-20.31c-4.06,0-4.06-6.31,0-6.31s4.06,6.31,0,6.31Zm21.15,40.62c-4.07,0-4.06-6.31,0-6.31s4.06,6.31,0,6.31Zm0-20.31c-4.07,0-4.06-6.31,0-6.31s4.06,6.31,0,6.31Zm0-20.31c-4.07,0-4.06-6.31,0-6.31s4.06,6.31,0,6.31Zm21.15,40.62c-4.07,0-4.06-6.31,0-6.31s4.06,6.31,0,6.31Zm0-20.31c-4.07,0-4.06-6.31,0-6.31s4.06,6.31,0,6.31Zm0-20.31c-4.07,0-4.06-6.31,0-6.31s4.06,6.31,0,6.31Zm21.15,40.62c-4.07,0-4.06-6.31,0-6.31s4.06,6.31,0,6.31Zm0-20.31c-4.07,0-4.06-6.31,0-6.31s4.06,6.31,0,6.31Zm0-20.31c-4.07,0-4.06-6.31,0-6.31s4.06,6.31,0,6.31Zm21.15,40.62c-4.07,0-4.06-6.31,0-6.31s4.06,6.31,0,6.31Zm0-20.31c-4.07,0-4.06-6.31,0-6.31s4.06,6.31,0,6.31Zm0-20.31c-4.07,0-4.06-6.31,0-6.31s4.06,6.31,0,6.31Z"/>
        <path class="cls-6" d="m527.64,21.64c-.71-.02-1.43,0-2.14,0h-8.14c0,2.52.11,5.07,0,7.59-.2,4.45-3.1,7.52-7.31,8.18-.25.06-.52.1-.82.1-.18.01-.34.01-.5,0-4,.02-8.26.21-10.76-3.61-1.72-2.63-1.39-5.71-1.39-8.7,0-1.19-.01-2.38-.03-3.57h-60.4c0,2.52.11,5.07,0,7.59-.2,4.45-3.1,7.52-7.31,8.18-.25.06-.52.1-.82.1-.18.01-.34.01-.5,0-4,.02-8.26.21-10.76-3.61-1.72-2.63-1.39-5.71-1.39-8.7,0-1.22-.01-2.44-.03-3.66-3.36-.02-6.71,0-10.06.08-3.4.09-6.46,1.46-8.49,4.26-1.92,2.64-1.93,5.55-1.93,8.63v14.19h143.03v-16.86c-.19-5.7-4.53-10.03-10.23-10.21Z"/>
        <path class="cls-3" d="m544.18,53.86v-22.01c0-.14,0-.27-.02-.4-.49-9.14-7.64-15.94-16.8-16.12-2.84-.06-5.7,0-8.54,0h-1.45v-4.19c0-2.78.13-5.44-1.64-7.82-2.58-3.47-6.72-3.41-10.62-3.28-4.72.15-8.28,3.33-8.52,8.13-.12,2.38-.14,4.77-.12,7.16h-17.58c-14.23,0-28.49-.16-42.73-.21v-3.99c0-2.78.13-5.44-1.64-7.82-2.58-3.47-6.72-3.41-10.62-3.28-4.72.15-8.28,3.33-8.52,8.13-.12,2.33-.14,4.67-.12,7.02-3.28.03-6.56.08-9.84.15-9.48.19-16.75,7.39-16.86,16.91-.08,6.54,0,13.08,0,19.62v67.99c0,3.9-.02,7.79,0,11.69.04,7.18,3.79,13.69,10.68,16.34,3.02,1.16,6.07,1.09,9.22,1.09h95.13c7.86,0,15.72.08,23.58,0,7.33-.07,13.89-4.38,16.23-11.47,1.08-3.29.8-6.92.8-10.34V53.86Zm-40.76-46.98c1-1,5.25-.98,6.5-.41,1.5.68,1.13,2.7,1.13,4.03v15.92c0,1.65.54,4.6-1.82,4.79-1.59,0-4.99.68-6.02-.84-.7-1.02-.33-3.03-.33-4.19v-15.26c0-1.12-.35-3.15.54-4.04Zm-81.22,0c1-1,5.25-.98,6.5-.41,1.5.68,1.13,2.7,1.13,4.03v15.92c0,1.65.54,4.6-1.82,4.79-1.59,0-4.99.68-6.02-.84-.7-1.02-.33-3.03-.33-4.19v-15.26c0-1.12-.35-3.15.54-4.04Zm-27.36,27.64c0-3.08,0-5.98,1.93-8.63,2.03-2.8,5.09-4.16,8.49-4.26,3.35-.09,6.7-.1,10.06-.08.02,1.22.03,2.44.03,3.66,0,2.98-.33,6.07,1.39,8.7,2.5,3.81,6.76,3.63,10.76,3.61.16,0,.33.01.5,0,.3,0,.57-.04.82-.1,4.21-.67,7.11-3.74,7.31-8.18.11-2.52,0-5.07,0-7.59h60.4c.02,1.19.03,2.39.03,3.57,0,2.98-.33,6.07,1.39,8.7,2.5,3.81,6.76,3.63,10.76,3.61.16,0,.33.01.5,0,.3,0,.57-.04.82-.1,4.21-.67,7.11-3.74,7.31-8.18.11-2.52,0-5.07,0-7.59h8.14c.71,0,1.43-.02,2.14,0,5.7.18,10.04,4.52,10.23,10.21v16.86h-143.03v-14.19Zm134.56,108c-1.96.33-4.11.14-6.09.14h-93.14c-8.06,0-16.12.05-24.18,0-6-.03-10.95-3.92-11.15-10.22-.08-2.41,0-4.83,0-7.24V55.02h143.03v62.65c0,8.05,2.64,22.97-8.47,24.85Z"/>
        <path class="cls-2" d="m429.83,17.84v-7.34c0-1.33.37-3.35-1.13-4.03-1.25-.57-5.5-.59-6.5.41-.89.89-.54,2.92-.54,4.04v15.26c0,1.16-.36,3.17.33,4.19,1.03,1.52,4.43.84,6.02.84,2.37-.19,1.82-3.14,1.82-4.79v-8.57Z"/>
        <path class="cls-2" d="m511.05,17.84v-7.34c0-1.33.37-3.35-1.13-4.03-1.25-.57-5.5-.59-6.5.41-.89.89-.54,2.92-.54,4.04v15.26c0,1.16-.36,3.17.33,4.19,1.03,1.52,4.43.84,6.02.84,2.37-.19,1.82-3.14,1.82-4.79v-8.57Z"/>
        <path class="cls-3" d="m413.78,72.97c-4.06,0-4.06,6.31,0,6.31s4.07-6.31,0-6.31Z"/>
        <path class="cls-3" d="m434.93,72.97c-4.06,0-4.06,6.31,0,6.31s4.07-6.31,0-6.31Z"/>
        <path class="cls-3" d="m456.08,72.97c-4.06,0-4.07,6.31,0,6.31s4.07-6.31,0-6.31Z"/>
        <path class="cls-3" d="m477.23,72.97c-4.06,0-4.07,6.31,0,6.31s4.07-6.31,0-6.31Z"/>
        <path class="cls-3" d="m498.38,72.97c-4.06,0-4.07,6.31,0,6.31s4.07-6.31,0-6.31Z"/>
        <path class="cls-3" d="m519.53,72.97c-4.06,0-4.07,6.31,0,6.31s4.07-6.31,0-6.31Z"/>
        <path class="cls-3" d="m413.78,93.28c-4.06,0-4.06,6.31,0,6.31s4.07-6.31,0-6.31Z"/>
        <path class="cls-3" d="m434.93,93.28c-4.06,0-4.06,6.31,0,6.31s4.07-6.31,0-6.31Z"/>
        <path class="cls-3" d="m456.08,93.28c-4.06,0-4.07,6.31,0,6.31s4.07-6.31,0-6.31Z"/>
        <path class="cls-3" d="m477.23,93.28c-4.06,0-4.07,6.31,0,6.31s4.07-6.31,0-6.31Z"/>
        <path class="cls-3" d="m498.38,93.28c-4.06,0-4.07,6.31,0,6.31s4.07-6.31,0-6.31Z"/>
        <path class="cls-3" d="m519.53,93.28c-4.06,0-4.07,6.31,0,6.31s4.07-6.31,0-6.31Z"/>
        <path class="cls-3" d="m413.78,113.59c-4.06,0-4.06,6.31,0,6.31s4.07-6.31,0-6.31Z"/>
        <path class="cls-3" d="m434.93,113.59c-4.06,0-4.06,6.31,0,6.31s4.07-6.31,0-6.31Z"/>
        <path class="cls-3" d="m456.08,113.59c-4.06,0-4.07,6.31,0,6.31s4.07-6.31,0-6.31Z"/>
        <path class="cls-3" d="m477.23,113.59c-4.06,0-4.07,6.31,0,6.31s4.07-6.31,0-6.31Z"/>
        <path class="cls-3" d="m498.38,113.59c-4.06,0-4.07,6.31,0,6.31s4.07-6.31,0-6.31Z"/>
        <path class="cls-3" d="m519.53,113.59c-4.06,0-4.07,6.31,0,6.31s4.07-6.31,0-6.31Z"/>
      </g>
    </g>
  </g>
</svg>