<?xml version="1.0" encoding="UTF-8" standalone="no"?> <!-- Created with Vectornator for iOS (http://vectornator.io/) --><!DOCTYPE svg PUBLIC "-//W3C//DTD SVG 1.1//EN" "http://www.w3.org/Graphics/SVG/1.1/DTD/svg11.dtd">
<svg height="100%" style="fill-rule:nonzero;clip-rule:evenodd;stroke-linecap:round;stroke-linejoin:round;" xmlns:xlink="http://www.w3.org/1999/xlink" xmlns="http://www.w3.org/2000/svg" xml:space="preserve" width="100%" xmlns:vectornator="http://vectornator.io" version="1.1" viewBox="0 0 367.464 127.988">
<metadata>
<vectornator:setting key="DimensionsVisible" value="0"/>
<vectornator:setting key="PencilOnly" value="0"/>
<vectornator:setting key="SnapToPoints" value="0"/>
<vectornator:setting key="OutlineMode" value="0"/>
<vectornator:setting key="CMYKEnabledKey" value="0"/>
<vectornator:setting key="RulersVisible" value="1"/>
<vectornator:setting key="SnapToEdges" value="0"/>
<vectornator:setting key="GuidesVisible" value="1"/>
<vectornator:setting key="DisplayWhiteBackground" value="0"/>
<vectornator:setting key="doHistoryDisabled" value="0"/>
<vectornator:setting key="SnapToGuides" value="1"/>
<vectornator:setting key="TimeLapseWatermarkDisabled" value="0"/>
<vectornator:setting key="Units" value="Points"/>
<vectornator:setting key="DynamicGuides" value="1"/>
<vectornator:setting key="IsolateActiveLayer" value="0"/>
<vectornator:setting key="SnapToGrid" value="0"/>
</metadata>
<defs/>
<g id="þÿ0ì0¤0ä0ü" vectornator:layerName="þÿ0ì0¤0ä0ü">
<path d="M53.0516+77.7366C53.7976+77.1776+58.2616+74.0166+62.1676+67.6886C53.4236+68.2506+45.9826+67.5056+39.6596+65.8306C37.9846+70.1106+36.3096+73.8306+34.8226+76.8046C42.6346+78.4816+49.5186+78.1066+53.0516+77.7366M23.6596+68.6206C24.4056+70.8516+24.9636+72.5266+25.5196+73.8306C28.3116+74.9466+31.1006+75.8756+33.7066+76.4346C34.2646+74.2016+35.1936+71.0406+36.3096+67.1326C32.7766+68.6206+28.4976+69.3656+23.6596+68.6206M67.3756+49.4596C61.9826+49.8326+54.3546+49.8326+45.9826+47.5996C45.0526+50.3906+44.3096+52.9926+43.3796+55.5986C48.5876+55.5986+52.1216+54.8556+52.1216+54.8556C52.1216+54.8556+48.2166+60.4336+41.5196+64.5306C49.7036+66.3886+57.1446+66.9466+62.5406+66.9466C64.9576+62.6676+67.0026+56.9006+67.3756+49.4596M24.9636+36.4376C29.6136+39.2286+35.7516+42.5776+43.5656+44.9976C45.2406+39.9706+47.2856+34.5786+49.1456+29.5546C44.6796+28.0676+39.8446+25.8366+35.3796+22.8586C31.6576+26.2066+27.7536+30.6716+24.9636+36.4376M22.7296+42.2066C21.8006+45.3666+21.2426+48.5306+21.2426+51.5086C27.5676+54.4836+34.4496+55.4126+40.0306+55.5986C40.9606+52.8086+41.8906+49.8326+43.0076+46.6706C37.0546+44.8086+30.7286+41.8336+24.5896+37.1816C23.8476+38.8576+23.2876+40.5306+22.7296+42.2066M43.7506+9.46563C25.8936+9.46563+11.0106+21.9286+7.29061+38.6716C10.4536+44.0666+14.5456+47.7866+19.1966+50.3906C19.1966+47.4126+19.5686+44.2536+20.4976+40.9016C21.0566+39.0426+21.6146+37.1816+22.3586+35.5076C20.3126+33.8356+18.2676+31.9746+16.2186+29.9266C16.2186+29.9266+18.4526+31.9746+22.7296+34.7636C25.5196+29.1846+29.7986+24.9046+33.8916+21.7446C31.8466+20.2536+29.6136+18.5776+27.7536+16.5336C27.7536+16.5336+30.3586+18.3936+35.0086+20.8136C42.0766+15.7896+48.7746+13.9296+48.7746+13.9296C48.7746+13.9296+42.8206+16.1626+36.4966+21.5546C40.0306+23.4166+44.6796+25.6496+49.8896+27.5086C51.7516+22.8586+53.7976+18.2096+55.8436+14.3016C55.8436+14.3016+54.3546+20.0686+51.9356+28.2536C56.2146+29.7396+60.6806+31.0456+65.5156+31.9746C64.2136+27.1376+62.3536+22.1126+59.7496+16.5336C59.7496+16.5336+63.8426+22.8586+66.8176+32.3466C69.6086+32.7176+72.3996+33.0906+75.1896+33.2746C75.1896+33.2746+72.0266+33.4626+67.0026+33.0906C68.3066+37.7416+69.4236+42.9486+69.6086+48.5306C71.6546+48.5306+73.7016+48.3436+75.9346+47.9726C75.9346+47.9726+73.5136+48.7156+69.6086+49.0896L69.6086+50.9476C69.4236+57.4606+67.1916+62.8536+64.5856+66.9466C68.8646+66.7596+71.2836+66.3886+71.2836+66.3886C68.8646+66.7596+66.4446+67.1326+64.2136+67.3186C59.7496+73.8306+53.9816+76.9916+53.0516+77.5496C54.1696+77.3636+54.9126+77.3636+55.2846+77.1776C47.1006+78.8516+40.0306+78.4816+34.4496+77.1776C33.8916+78.1066+33.3336+79.0366+32.9626+79.5966C32.9626+79.5966+33.1486+78.6666+33.7066+76.9916C30.7286+76.2486+28.3116+75.3166+26.0776+74.3846C26.4516+75.3166+26.8226+75.8756+26.8226+75.8756C26.8226+75.8756+26.4516+75.3166+25.7076+74.2016C19.7546+71.4116+16.7766+68.2506+16.7766+68.2506C19.5686+70.2956+22.3586+71.9696+25.1476+73.2696C24.4056+71.9696+23.4736+70.2956+22.5446+68.0636C18.6366+67.1326+14.3596+65.2716+9.89562+61.7386C9.70761+61.5516+9.70761+61.5516+9.52261+61.3636C15.2896+74.5736+28.3116+83.6866+43.7506+83.6866C64.4006+83.6866+80.9546+66.9466+80.9546+46.4816C80.9546+26.2066+64.2136+9.46563+43.7506+9.46563M65.7026+33.0906C61.6096+32.7176+56.7726+31.9746+51.3786+30.2986C50.0756+34.9506+48.4016+40.3466+46.5406+45.9256C52.6816+47.5996+59.7496+48.7156+67.3756+48.7156C67.5626+44.0666+67.0026+38.8576+65.7026+33.0906" opacity="1" fill="#1181be"/>
<path d="M47.206+49.1063L108.771+49.1063L108.771+110.671L47.206+110.671L47.206+49.1063Z" opacity="1" fill="#ffffff"/>
<path d="M111.325+46.5523L44.653+46.5523L44.653+113.225L111.325+113.225L111.325+46.5523ZM106.218+108.116L49.761+108.116L49.761+51.6603L106.218+51.6603L106.218+108.116Z" opacity="1" fill="#231916"/>
<path d="M66.889+58.5653L58.41+58.5653L58.41+101.343L66.889+101.343L66.889+58.5653Z" opacity="1" fill="#231916"/>
<path d="M82.2288+79.9544L73.7498+79.9544L89.0888+101.343L97.5678+101.343L82.2288+79.9544Z" opacity="1" fill="#231916"/>
<path d="M97.5682+58.434L89.0892+58.434L73.7492+79.823L82.2292+79.823L97.5682+58.434Z" opacity="1" fill="#00ada9"/>
<path d="M263.327+96.4935C263.449+96.6375+263.511+96.8175+263.511+97.0355C263.511+97.1445+263.49+97.2735+263.449+97.4235L259.279+111.571C259.211+111.788+259.105+111.957+258.962+112.072C258.819+112.187+258.651+112.246+258.462+112.246C258.27+112.246+258.103+112.185+257.961+112.062C257.817+111.939+257.718+111.782+257.664+111.591L254.352+99.5095L251.06+111.571C250.992+111.776+250.887+111.939+250.743+112.062C250.601+112.185+250.433+112.246+250.243+112.246C250.053+112.246+249.886+112.185+249.742+112.062C249.599+111.939+249.5+111.782+249.446+111.591L245.255+97.4235C245.214+97.2735+245.193+97.1515+245.193+97.0555C245.193+96.8235+245.262+96.6375+245.397+96.4935C245.534+96.3505+245.711+96.2785+245.93+96.2785C246.311+96.2785+246.57+96.4825+246.706+96.8925L250.243+109.221L253.596+97.2395C253.637+97.0905+253.728+96.9675+253.872+96.8715C254.014+96.7765+254.175+96.7285+254.352+96.7285C254.529+96.7285+254.685+96.7765+254.822+96.8715C254.959+96.9675+255.055+97.0975+255.109+97.2605L258.481+109.24L262.039+96.8105C262.147+96.4565+262.407+96.2785+262.815+96.2785C263.034+96.2785+263.204+96.3505+263.327+96.4935" opacity="1" fill="#1181be"/>
<path d="M269.015+102.944C268.382+103.312+267.884+103.819+267.523+104.467C267.162+105.114+266.982+105.847+266.982+106.664C266.982+107.469+267.162+108.194+267.523+108.841C267.884+109.489+268.382+109.998+269.015+110.366C269.649+110.732+270.355+110.917+271.131+110.917C271.922+110.917+272.63+110.732+273.257+110.366C273.884+109.998+274.374+109.489+274.73+108.841C275.083+108.194+275.261+107.469+275.261+106.664C275.261+105.847+275.083+105.114+274.73+104.467C274.374+103.819+273.884+103.312+273.257+102.944C272.63+102.577+271.922+102.392+271.131+102.392C270.355+102.392+269.649+102.577+269.015+102.944M274.035+101.697C274.893+102.188+275.571+102.869+276.069+103.741C276.566+104.614+276.815+105.587+276.815+106.664C276.815+107.741+276.57+108.712+276.078+109.578C275.587+110.444+274.91+111.121+274.044+111.612C273.178+112.103+272.208+112.348+271.131+112.348C270.055+112.348+269.083+112.103+268.218+111.612C267.352+111.121+266.674+110.444+266.184+109.578C265.693+108.712+265.448+107.741+265.448+106.664C265.448+105.587+265.693+104.614+266.184+103.741C266.674+102.869+267.352+102.188+268.218+101.697C269.083+101.207+270.055+100.962+271.131+100.962C272.208+100.962+273.175+101.207+274.035+101.697" opacity="1" fill="#1181be"/>
<path d="M287.287+101.165C287.621+101.314+287.786+101.526+287.786+101.799C287.786+101.88+287.78+101.941+287.766+101.982C287.712+102.173+287.628+102.303+287.512+102.371C287.394+102.438+287.234+102.473+287.031+102.473C286.907+102.473+286.697+102.46+286.396+102.433C286.287+102.419+286.124+102.411+285.907+102.411C284.884+102.411+284.049+102.685+283.402+103.229C282.754+103.775+282.431+104.483+282.431+105.355L282.431+111.468C282.431+111.714+282.362+111.904+282.225+112.041C282.09+112.177+281.899+112.245+281.655+112.245C281.408+112.245+281.218+112.177+281.081+112.041C280.945+111.904+280.877+111.714+280.877+111.468L280.877+101.839C280.877+101.595+280.945+101.403+281.081+101.267C281.218+101.131+281.408+101.062+281.655+101.062C281.899+101.062+282.09+101.131+282.225+101.267C282.362+101.403+282.431+101.595+282.431+101.839L282.431+102.738C282.826+102.166+283.33+101.723+283.943+101.41C284.556+101.096+285.218+100.94+285.927+100.94C286.499+100.94+286.952+101.015+287.287+101.165" opacity="1" fill="#1181be"/>
<path d="M291.185+96.4935C291.333+96.3505+291.519+96.2785+291.736+96.2785C291.967+96.2785+292.155+96.3505+292.298+96.4935C292.442+96.6375+292.512+96.8235+292.512+97.0555L292.512+108.71C292.512+109.295+292.632+109.772+292.87+110.14C293.109+110.509+293.413+110.691+293.781+110.691L294.29+110.691C294.496+110.691+294.659+110.764+294.783+110.907C294.905+111.05+294.966+111.238+294.966+111.469C294.966+111.7+294.879+111.889+294.71+112.031C294.54+112.174+294.319+112.246+294.046+112.246L293.781+112.246C292.949+112.246+292.271+111.915+291.747+111.254C291.222+110.595+290.958+109.746+290.958+108.71L290.958+97.0555C290.958+96.8235+291.034+96.6375+291.185+96.4935" opacity="1" fill="#1181be"/>
<path d="M304.906+110.355C305.534+109.98+306.027+109.469+306.388+108.821C306.749+108.174+306.929+107.448+306.929+106.644C306.929+106.413+306.922+106.242+306.909+106.133C306.895+106.106+306.889+106.072+306.889+106.031C306.754+104.967+306.305+104.096+305.549+103.414C304.794+102.733+303.877+102.392+302.801+102.392C302.023+102.392+301.319+102.577+300.684+102.944C300.051+103.312+299.552+103.819+299.191+104.467C298.831+105.114+298.651+105.84+298.651+106.644C298.651+107.448+298.831+108.174+299.191+108.821C299.552+109.469+300.051+109.98+300.684+110.355C301.319+110.729+302.023+110.917+302.801+110.917C303.577+110.917+304.277+110.729+304.906+110.355M308.483+101.839L308.483+106.644C308.483+107.707+308.233+108.675+307.737+109.546C307.24+110.419+306.557+111.104+305.693+111.602C304.828+112.099+303.862+112.348+302.801+112.348C301.737+112.348+300.772+112.099+299.907+111.602C299.043+111.104+298.36+110.419+297.862+109.546C297.366+108.675+297.117+107.707+297.117+106.644C297.117+105.581+297.357+104.617+297.843+103.751C298.325+102.886+298.987+102.205+299.826+101.707C300.663+101.209+301.6+100.961+302.636+100.961C303.523+100.961+304.334+101.148+305.069+101.523C305.804+101.898+306.411+102.412+306.889+103.066L306.889+97.0769C306.889+96.8449+306.964+96.6539+307.114+96.5039C307.263+96.3539+307.453+96.2789+307.685+96.2789C307.919+96.2789+308.105+96.3539+308.248+96.5039C308.391+96.6539+308.464+96.8449+308.464+97.0769L308.464+101.657C308.475+101.697+308.483+101.758+308.483+101.839" opacity="1" fill="#1181be"/>
<path d="M313.813+98.303C313.813+98.071+313.883+97.881+314.027+97.731C314.17+97.58+314.357+97.505+314.589+97.505C314.821+97.505+315.01+97.58+315.162+97.731C315.311+97.881+315.387+98.071+315.387+98.303L315.387+101.472L317.697+101.472C317.915+101.472+318.088+101.536+318.217+101.665C318.346+101.795+318.412+101.961+318.412+102.166C318.412+102.358+318.346+102.518+318.217+102.647C318.088+102.778+317.915+102.841+317.697+102.841L315.387+102.841L315.387+108.3C315.387+108.994+315.591+109.564+315.999+110.006C316.409+110.449+316.933+110.671+317.575+110.671L318.126+110.671C318.343+110.671+318.521+110.745+318.658+110.897C318.792+111.046+318.863+111.238+318.863+111.468C318.863+111.687+318.78+111.87+318.617+112.021C318.453+112.171+318.249+112.245+318.004+112.245L317.575+112.245C316.853+112.245+316.204+112.072+315.631+111.725C315.059+111.376+314.613+110.907+314.292+110.314C313.973+109.72+313.813+109.049+313.813+108.3L313.813+98.303Z" opacity="1" fill="#1181be"/>
<path d="M328.981+110.366C329.607+109.998+330.101+109.489+330.462+108.842C330.824+108.194+331.005+107.47+331.005+106.664C331.005+105.861+330.824+105.135+330.462+104.487C330.101+103.841+329.607+103.329+328.981+102.954C328.353+102.58+327.653+102.392+326.876+102.392C326.099+102.392+325.393+102.58+324.759+102.954C324.127+103.329+323.629+103.841+323.267+104.487C322.907+105.135+322.725+105.861+322.725+106.664C322.725+107.47+322.907+108.194+323.267+108.842C323.629+109.489+324.127+109.998+324.759+110.366C325.393+110.732+326.099+110.917+326.876+110.917C327.653+110.917+328.353+110.732+328.981+110.366M329.769+101.707C330.632+102.205+331.314+102.889+331.811+103.762C332.309+104.634+332.559+105.601+332.559+106.664L332.559+111.469C332.559+111.687+332.483+111.871+332.335+112.021C332.183+112.172+331.994+112.246+331.761+112.246C331.53+112.246+331.338+112.174+331.19+112.031C331.039+111.888+330.963+111.7+330.963+111.469L330.963+110.242C330.488+110.897+329.88+111.411+329.144+111.786C328.409+112.16+327.597+112.348+326.711+112.348C325.677+112.348+324.74+112.099+323.9+111.602C323.063+111.104+322.402+110.424+321.919+109.558C321.433+108.692+321.193+107.727+321.193+106.664C321.193+105.601+321.441+104.634+321.938+103.762C322.436+102.889+323.117+102.205+323.983+101.707C324.849+101.21+325.813+100.962+326.876+100.962C327.939+100.962+328.903+101.21+329.769+101.707" opacity="1" fill="#1181be"/>
<path d="M336.798+96.4935C336.948+96.3505+337.132+96.2785+337.349+96.2785C337.581+96.2785+337.768+96.3505+337.911+96.4935C338.055+96.6375+338.125+96.8235+338.125+97.0555L338.125+108.71C338.125+109.295+338.245+109.772+338.485+110.14C338.722+110.509+339.026+110.691+339.394+110.691L339.905+110.691C340.109+110.691+340.274+110.764+340.396+110.907C340.518+111.05+340.579+111.238+340.579+111.469C340.579+111.7+340.494+111.889+340.323+112.031C340.153+112.174+339.932+112.246+339.659+112.246L339.394+112.246C338.564+112.246+337.884+111.915+337.36+111.254C336.835+110.595+336.573+109.746+336.573+108.71L336.573+97.0555C336.573+96.8235+336.649+96.6375+336.798+96.4935" opacity="1" fill="#1181be"/>
<path d="M352.461+111.59C352.461+111.795+352.366+111.979+352.176+112.143C352.012+112.266+351.848+112.327+351.683+112.327C351.466+112.327+351.282+112.232+351.132+112.04L346.92+106.868L345.388+108.259L345.388+111.468C345.388+111.699+345.316+111.888+345.173+112.03C345.03+112.173+344.842+112.245+344.61+112.245C344.378+112.245+344.192+112.173+344.048+112.03C343.904+111.888+343.834+111.699+343.834+111.468L343.834+97.0562C343.834+96.8232+343.904+96.6372+344.048+96.4932C344.192+96.3512+344.378+96.2782+344.61+96.2782C344.842+96.2782+345.03+96.3512+345.173+96.4932C345.316+96.6372+345.388+96.8232+345.388+97.0562L345.388+106.358L351.151+101.145C351.302+101.008+351.466+100.941+351.644+100.941C351.848+100.941+352.018+101.023+352.154+101.185C352.305+101.362+352.378+101.527+352.378+101.676C352.378+101.866+352.29+102.037+352.114+102.187L348.025+105.888L352.278+111.12C352.4+111.257+352.461+111.414+352.461+111.59" opacity="1" fill="#1181be"/>
<path d="M138.538+24.5355L151.64+11.0275L158.444+11.0275L143.159+26.3635L158.546+44.8985L151.64+44.8985L139.554+29.8675L138.538+30.8835L138.538+44.8985L133.358+44.8985L133.358+11.0275L138.538+11.0275L138.538+24.5355Z" opacity="1" fill="#231916"/>
<path d="M170.379+44.8993L165.199+44.8993L165.199+11.0282L170.379+11.0282L170.379+44.8993Z" opacity="1" fill="#231916"/>
<path d="M185.765+26.5667L187.39+26.5667C188.812+26.5667+194.601+26.4147+194.601+21.0317C194.601+16.2577+190.081+15.8007+187.542+15.8007L185.765+15.8007L185.765+26.5667ZM186.628+11.0277C190.742+11.0277+193.382+11.5357+195.566+13.0077C199.273+15.4967+199.577+19.5077+199.577+20.9807C199.577+25.8557+196.581+29.4107+192.062+30.4257L202.624+44.8987L196.378+44.8987L186.679+31.0357L185.765+31.0357L185.765+44.8987L180.585+44.8987L180.585+11.0277L186.628+11.0277Z" opacity="1" fill="#231916"/>
<path d="M214.965+44.8993L209.785+44.8993L209.785+11.0282L214.965+11.0282L214.965+44.8993Z" opacity="1" fill="#231916"/>
<path d="M230.351+24.434L244.874+24.434L244.874+11.028L250.054+11.028L250.054+44.899L244.874+44.899L244.874+29.309L230.351+29.309L230.351+44.899L225.171+44.899L225.171+11.028L230.351+11.028L230.351+24.434Z" opacity="1" fill="#231916"/>
<path d="M278.086+31.848L273.059+20.371L267.828+31.848L278.086+31.848ZM280.168+36.723L265.695+36.723L261.988+44.899L256.402+44.899L273.262+9.04697L289.309+44.899L283.723+44.899L280.168+36.723Z" opacity="1" fill="#231916"/>
<path d="M300.836+26.5667L302.461+26.5667C303.883+26.5667+309.672+26.4147+309.672+21.0317C309.672+16.2577+305.152+15.8007+302.613+15.8007L300.836+15.8007L300.836+26.5667ZM301.699+11.0277C305.813+11.0277+308.453+11.5357+310.637+13.0077C314.344+15.4967+314.649+19.5077+314.649+20.9807C314.649+25.8557+311.652+29.4107+307.133+30.4257L317.695+44.8987L311.449+44.8987L301.75+31.0357L300.836+31.0357L300.836+44.8987L295.656+44.8987L295.656+11.0277L301.699+11.0277Z" opacity="1" fill="#231916"/>
<path d="M342.68+31.848L337.653+20.371L332.422+31.848L342.68+31.848ZM344.762+36.723L330.289+36.723L326.582+44.899L320.996+44.899L337.856+9.04697L353.903+44.899L348.317+44.899L344.762+36.723Z" opacity="1" fill="#231916"/>
<path d="M149.774+69.3881C149.774+64.6531+146.51+61.3251+141.934+61.3251C137.359+61.3251+134.095+64.6531+134.095+69.3881C134.095+74.1241+137.359+77.4511+141.934+77.4511C146.51+77.4511+149.774+74.1241+149.774+69.3881M153.038+69.3881C153.038+75.6591+148.335+80.4591+141.934+80.4591C135.535+80.4591+130.832+75.6591+130.832+69.3881C130.832+63.1171+135.535+58.3171+141.934+58.3171C148.335+58.3171+153.038+63.1171+153.038+69.3881" opacity="1" fill="#231916"/>
<path d="M157.327+66.5726L160.463+66.5726L160.463+67.8206C161.806+66.3166+163.343+66.2196+164.11+66.2196C166.606+66.2196+167.662+67.4686+168.078+68.0446C168.59+68.7806+168.91+69.7086+168.91+71.7886L168.91+80.0436L165.774+80.0436L165.774+72.5556C165.774+69.1326+164.494+69.0366+163.31+69.0366C161.902+69.0366+160.463+69.2276+160.463+73.5806L160.463+80.0436L157.327+80.0436L157.327+66.5726Z" opacity="1" fill="#231916"/>
<path d="M176.813+80.0432L173.677+80.0432L173.677+56.7172L176.813+56.7172L176.813+80.0432Z" opacity="1" fill="#231916"/>
<path d="M184.718+80.0432L181.582+80.0432L181.582+66.5723L184.718+66.5723L184.718+80.0432ZM183.15+58.9882C184.303+58.9882+185.166+59.8532+185.166+61.0053C185.166+62.1562+184.303+63.0212+183.15+63.0212C181.998+63.0212+181.135+62.1562+181.135+61.0053C181.135+59.8532+181.998+58.9882+183.15+58.9882" opacity="1" fill="#231916"/>
<path d="M189.454+66.5726L192.59+66.5726L192.59+67.8206C193.933+66.3166+195.47+66.2196+196.237+66.2196C198.733+66.2196+199.789+67.4686+200.205+68.0446C200.717+68.7806+201.037+69.7086+201.037+71.7886L201.037+80.0436L197.901+80.0436L197.901+72.5556C197.901+69.1326+196.621+69.0366+195.437+69.0366C194.029+69.0366+192.59+69.2276+192.59+73.5806L192.59+80.0436L189.454+80.0436L189.454+66.5726Z" opacity="1" fill="#231916"/>
<path d="M214.764+71.5003C214.636+70.7643+214.284+70.1243+213.804+69.6763C213.388+69.2923+212.716+68.9083+211.692+68.9083C210.604+68.9083+209.9+69.3563+209.485+69.7713C209.036+70.1883+208.684+70.8283+208.525+71.5003L214.764+71.5003ZM217.868+76.9723C217.291+77.9953+216.459+78.8923+215.596+79.4363C214.508+80.1403+213.068+80.4593+211.628+80.4593C209.836+80.4593+208.365+80.0113+207.084+78.7313C205.804+77.4513+205.101+75.5963+205.101+73.5803C205.101+71.5003+205.836+69.4843+207.244+68.0443C208.365+66.9243+209.836+66.2203+211.756+66.2203C213.9+66.2203+215.276+67.1483+216.076+67.9803C217.804+69.7713+217.963+72.2683+217.963+73.6763L217.963+74.0603L208.3+74.0603C208.365+75.0203+208.781+76.1073+209.452+76.7793C210.188+77.5163+211.084+77.6443+211.852+77.6443C212.716+77.6443+213.356+77.4513+213.995+76.9723C214.539+76.5563+214.955+76.0123+215.243+75.5003L217.868+76.9723Z" opacity="1" fill="#231916"/>
<path d="M242.091+71.8196L238.923+64.5886L235.627+71.8196L242.091+71.8196ZM243.403+74.8916L234.283+74.8916L231.947+80.0436L228.428+80.0436L239.051+57.4536L249.162+80.0436L245.643+80.0436L243.403+74.8916Z" opacity="1" fill="#231916"/>
<path d="M262.508+70.7006C261.069+69.2926+259.66+69.0366+258.7+69.0366C257.229+69.0366+256.301+69.6436+255.725+70.2206C255.149+70.7966+254.572+71.8196+254.572+73.3236C254.572+74.8916+255.181+75.9476+255.788+76.5556C256.492+77.2276+257.485+77.6436+258.636+77.6436C259.916+77.6436+261.42+77.1326+262.508+75.9156L262.508+79.4036C261.74+79.8836+260.492+80.4596+258.412+80.4596C256.172+80.4596+254.572+79.8196+253.293+78.4756C252.333+77.4836+251.373+75.8846+251.373+73.4206C251.373+70.8916+252.429+69.1966+253.421+68.2046C254.477+67.1486+256.172+66.2206+258.828+66.2206C259.853+66.2206+261.069+66.3806+262.508+67.1796L262.508+70.7006Z" opacity="1" fill="#231916"/>
<path d="M268.811+73.3558C268.811+75.6918+270.283+77.6438+272.555+77.6438C274.539+77.6438+276.363+76.2038+276.363+73.3878C276.363+70.4448+274.539+69.0368+272.555+69.0368C270.283+69.0368+268.811+70.9568+268.811+73.3558M276.17+66.5728L279.306+66.5728L279.306+80.0428L276.17+80.0428L276.17+78.6358C274.794+80.2358+273.099+80.4598+272.139+80.4598C267.979+80.4598+265.612+77.0038+265.612+73.2928C265.612+68.9088+268.62+66.2198+272.171+66.2198C273.163+66.2198+274.891+66.4768+276.17+68.1398L276.17+66.5728Z" opacity="1" fill="#231916"/>
<path d="M286.571+73.3558C286.571+75.6918+288.043+77.6438+290.315+77.6438C292.299+77.6438+294.123+76.2038+294.123+73.3878C294.123+70.4448+292.299+69.0368+290.315+69.0368C288.043+69.0368+286.571+70.9568+286.571+73.3558M293.93+56.7168L297.066+56.7168L297.066+80.0428L293.93+80.0428L293.93+78.6358C292.554+80.2358+290.859+80.4598+289.899+80.4598C285.739+80.4598+283.372+77.0038+283.372+73.2928C283.372+68.9088+286.38+66.2198+289.931+66.2198C290.923+66.2198+292.651+66.4768+293.93+68.1398L293.93+56.7168Z" opacity="1" fill="#231916"/>
<path d="M310.795+71.5003C310.667+70.7643+310.315+70.1243+309.835+69.6763C309.419+69.2923+308.747+68.9083+307.723+68.9083C306.635+68.9083+305.931+69.3563+305.516+69.7713C305.067+70.1883+304.715+70.8283+304.556+71.5003L310.795+71.5003ZM313.899+76.9723C313.322+77.9953+312.49+78.8923+311.627+79.4363C310.539+80.1403+309.099+80.4593+307.659+80.4593C305.867+80.4593+304.396+80.0113+303.115+78.7313C301.835+77.4513+301.132+75.5963+301.132+73.5803C301.132+71.5003+301.867+69.4843+303.275+68.0443C304.396+66.9243+305.867+66.2203+307.787+66.2203C309.931+66.2203+311.307+67.1483+312.107+67.9803C313.835+69.7713+313.994+72.2683+313.994+73.6763L313.994+74.0603L304.331+74.0603C304.396+75.0203+304.812+76.1073+305.483+76.7793C306.219+77.5163+307.115+77.6443+307.883+77.6443C308.747+77.6443+309.387+77.4513+310.026+76.9723C310.57+76.5563+310.986+76.0123+311.274+75.5003L313.899+76.9723Z" opacity="1" fill="#231916"/>
<path d="M318.058+66.5726L321.194+66.5726L321.194+67.8206C322.25+66.5406+323.498+66.2196+324.522+66.2196C325.93+66.2196+327.242+66.8926+328.01+68.2046C329.129+66.6046+330.826+66.2196+332.009+66.2196C333.641+66.2196+335.081+66.9886+335.849+68.3326C336.105+68.7806+336.553+69.7716+336.553+71.7236L336.553+80.0436L333.417+80.0436L333.417+72.6206C333.417+71.1166+333.257+70.5086+333.129+70.2196C332.937+69.7086+332.457+69.0366+331.337+69.0366C330.57+69.0366+329.898+69.4526+329.482+70.0286C328.938+70.7966+328.873+71.9486+328.873+73.0996L328.873+80.0436L325.738+80.0436L325.738+72.6206C325.738+71.1166+325.578+70.5086+325.45+70.2196C325.258+69.7086+324.778+69.0366+323.658+69.0366C322.89+69.0366+322.218+69.4526+321.802+70.0286C321.258+70.7966+321.194+71.9486+321.194+73.0996L321.194+80.0436L318.058+80.0436L318.058+66.5726Z" opacity="1" fill="#231916"/>
<path d="M345.291+77.932L339.532+66.5729L343.308+66.5729L347.147+74.444L351.051+66.5729L354.57+66.5729L343.852+87.371L340.332+87.371L345.291+77.932Z" opacity="1" fill="#231916"/>
<path d="M159.792+108.916C159.792+110.324+160.704+111.044+161.697+111.044C162.833+111.044+163.569+110.068+163.569+108.899C163.569+107.699+162.833+106.738+161.697+106.738C160.704+106.738+159.792+107.443+159.792+108.916M159.888+115.91L158.319+115.91L158.319+105.506L159.888+105.506L159.888+106.242C160.465+105.554+161.217+105.33+161.889+105.33C163.666+105.33+165.17+106.69+165.17+108.836C165.17+111.108+163.506+112.453+161.905+112.453C161.537+112.453+160.593+112.325+159.888+111.461L159.888+115.91Z" opacity="1" fill="#231916"/>
<path d="M172.45+108.9C172.45+107.364+171.442+106.739+170.45+106.739C169.457+106.739+168.449+107.364+168.449+108.9C168.449+110.197+169.217+111.045+170.45+111.045C171.682+111.045+172.45+110.197+172.45+108.9M174.051+108.884C174.051+110.949+172.482+112.454+170.45+112.454C168.417+112.454+166.848+110.949+166.848+108.884C166.848+106.803+168.417+105.331+170.45+105.331C172.482+105.331+174.051+106.803+174.051+108.884" opacity="1" fill="#231916"/>
<path d="M176.944+105.506L178.689+109.363L180.578+104.93L182.466+109.363L184.212+105.506L185.972+105.506L182.466+112.725L180.578+108.419L178.689+112.725L175.183+105.506L176.944+105.506Z" opacity="1" fill="#231916"/>
<path d="M191.938+107.971C191.874+107.603+191.698+107.284+191.458+107.059C191.25+106.867+190.914+106.675+190.401+106.675C189.857+106.675+189.504+106.899+189.296+107.107C189.073+107.315+188.896+107.635+188.816+107.971L191.938+107.971ZM193.49+110.708C193.202+111.221+192.786+111.669+192.354+111.941C191.809+112.293+191.089+112.453+190.369+112.453C189.472+112.453+188.736+112.229+188.096+111.589C187.456+110.949+187.104+110.02+187.104+109.012C187.104+107.971+187.472+106.963+188.176+106.242C188.736+105.683+189.472+105.33+190.433+105.33C191.505+105.33+192.194+105.794+192.594+106.21C193.459+107.107+193.539+108.356+193.539+109.06L193.539+109.252L188.705+109.252C188.736+109.732+188.945+110.277+189.281+110.613C189.649+110.981+190.097+111.044+190.481+111.044C190.914+111.044+191.233+110.949+191.553+110.708C191.826+110.5+192.034+110.229+192.177+109.972L193.49+110.708Z" opacity="1" fill="#231916"/>
<path d="M195.567+105.506L197.135+105.506L197.135+106.114C197.312+105.906+197.568+105.683+197.793+105.554C198.096+105.378+198.4+105.33+198.753+105.33C199.136+105.33+199.552+105.395+199.985+105.651L199.344+107.075C198.993+106.851+198.705+106.835+198.545+106.835C198.209+106.835+197.872+106.883+197.568+107.203C197.135+107.667+197.135+108.308+197.135+108.756L197.135+112.245L195.567+112.245L195.567+105.506Z" opacity="1" fill="#231916"/>
<path d="M205.762+107.971C205.698+107.603+205.522+107.284+205.282+107.059C205.074+106.867+204.738+106.675+204.225+106.675C203.681+106.675+203.328+106.899+203.12+107.107C202.897+107.315+202.72+107.635+202.64+107.971L205.762+107.971ZM207.314+110.708C207.026+111.221+206.61+111.669+206.178+111.941C205.633+112.293+204.913+112.453+204.193+112.453C203.296+112.453+202.56+112.229+201.92+111.589C201.28+110.949+200.928+110.02+200.928+109.012C200.928+107.971+201.296+106.963+202+106.242C202.56+105.683+203.296+105.33+204.257+105.33C205.329+105.33+206.018+105.794+206.418+106.21C207.283+107.107+207.363+108.356+207.363+109.06L207.363+109.252L202.529+109.252C202.56+109.732+202.769+110.277+203.105+110.613C203.473+110.981+203.921+111.044+204.305+111.044C204.738+111.044+205.057+110.949+205.377+110.708C205.65+110.5+205.858+110.229+206.001+109.972L207.314+110.708Z" opacity="1" fill="#231916"/>
<path d="M210.64+108.9C210.64+110.069+211.376+111.045+212.512+111.045C213.505+111.045+214.417+110.325+214.417+108.917C214.417+107.444+213.505+106.739+212.512+106.739C211.376+106.739+210.64+107.7+210.64+108.9M214.322+100.577L215.89+100.577L215.89+112.246L214.322+112.246L214.322+111.542C213.633+112.341+212.785+112.454+212.304+112.454C210.224+112.454+209.039+110.725+209.039+108.868C209.039+106.675+210.543+105.331+212.321+105.331C212.817+105.331+213.681+105.459+214.322+106.291L214.322+100.577Z" opacity="1" fill="#231916"/>
<path d="M223.872+108.916C223.872+110.324+224.784+111.044+225.777+111.044C226.913+111.044+227.649+110.068+227.649+108.899C227.649+107.699+226.913+106.738+225.777+106.738C224.784+106.738+223.872+107.443+223.872+108.916M223.968+106.29C224.608+105.458+225.473+105.33+225.969+105.33C227.746+105.33+229.25+106.675+229.25+108.867C229.25+110.725+228.065+112.453+225.985+112.453C225.505+112.453+224.656+112.341+223.968+111.541L223.968+112.245L222.399+112.245L222.399+100.576L223.968+100.576L223.968+106.29Z" opacity="1" fill="#231916"/>
<path d="M233.263+111.189L230.381+105.506L232.27+105.506L234.191+109.444L236.144+105.506L237.905+105.506L232.542+115.911L230.782+115.911L233.263+111.189Z" opacity="1" fill="#231916"/>
</g>
</svg>
