<?xml version="1.0" encoding="UTF-8"?>
<svg id="_レイヤー_2" data-name="レイヤー 2" xmlns="http://www.w3.org/2000/svg" xmlns:xlink="http://www.w3.org/1999/xlink" viewBox="0 0 600 600">
  <defs>
    <style>
      .cls-1 {
        fill: none;
      }

      .cls-2 {
        clip-path: url(#clippath);
      }

      .cls-3 {
        fill: #fff;
      }

      .cls-4 {
        fill: #ffe033;
      }

      .cls-5 {
        fill: #323232;
      }

      .cls-6 {
        fill: #6ec878;
      }

      .cls-7 {
        fill: #5a5a5a;
      }

      .cls-8 {
        fill: url(#_新規パターン_4);
      }
    </style>
    <clipPath id="clippath">
      <circle class="cls-4" cx="300" cy="300" r="300"/>
    </clipPath>
    <pattern id="_新規パターン_4" data-name="新規パターン 4" x="0" y="0" width="4.98" height="5.18" patternTransform="translate(-10605.55 20206.74) rotate(45) scale(3.2)" patternUnits="userSpaceOnUse" viewBox="0 0 4.98 5.18">
      <g>
        <rect class="cls-1" x="0" width="4.98" height="5.18"/>
        <rect class="cls-3" x="0" y="0" width="4.98" height="5.18"/>
        <circle class="cls-6" cx="2.49" cy="2.59" r="1.06"/>
      </g>
    </pattern>
  </defs>
  <g id="_レイヤー_1-2" data-name="レイヤー 1">
    <g>
      <circle class="cls-4" cx="300" cy="300" r="300"/>
      <g class="cls-2">
        <g>
          <path class="cls-6" d="m260.3,196.26c-1.68,1.4-3.41,2.72-5.18,3.97h3.52c.21-1.44.76-2.84,1.66-3.97Z"/>
          <path class="cls-3" d="m238.85,346.38c24.52,27.08,63.36,36.04,95.65,17.25,30.98-17.62,44.41-52.62,45.63-86.62-4.44-15.79,13.62-30.42,27.96-22.05,5.67-8,8.72-17.93,8.14-27.81-.84-4.06-1.81-8.07-2.79-12.1-5.64-12.66-16.06-8.4-24.81-1.82-4.61,3.16-11.59-1.29-10.95-6.67-.77-.83-1.4-1.82-1.8-2.93-8.49-23.62-22.61-44.77-40.66-62.05-8.86,34.62-30.07,78.1-71.59,66.54-4.1-1.14-5.49-4.63-5.01-7.89h-3.52c-12.37,8.56-27.75,14.45-43.58,12.48-6.82,36.46-17.42,102.52,32.68,112.17,8.3,1.55,5.96,13.01-1.24,14.12-1.22,2.61-2.79,4.94-4.65,6.9.18.16.36.29.53.48Zm102.57-124.03c9.42,0,9.4,14.61,0,14.61s-9.4-14.61,0-14.61Zm-48.13,11.25c.5-9.61,14.41-9.61,14.61,0-.59,7.27-.9,14.6.05,21.85,1.01,5.54,3.15,13.16-4.02,15.34-3.54,1.15-8.27-1.34-8.99-5.1-2.24-10.55-2.71-21.36-1.65-32.08Zm-22.14,77.3c1.78-3.37,6.79-4.72,10-2.62,1.77,1.27,5.76,3.35,6.88,3.89,2.6,1.07,5.32,1.86,8.1,2.31,0,0,.23.01.7.07,1.99.12,3.98.16,5.96-.08.08-.02.28-.05.64-.11,2.15-.48,4.2-.99,6.28-1.79,2.67-1.15,5.17-2.65,7.57-4.28,8.39-4.51,15.52,7.15,7.38,12.62-15,11.07-35.8,10.73-50.88,0-3.42-2.23-4.55-6.35-2.62-10Zm-13.16-88.55c9.42,0,9.4,14.61,0,14.61s-9.4-14.61,0-14.61Z"/>
          <path class="cls-3" d="m241.25,375.68c.54,31.85-18.87,50.1-47.31,60.21,1.58,1.17,2.74,2.95,2.95,5.39,4.09,48.21,8.72,96.38,12.2,144.65.17,2.4-.66,4.18-2,5.35l.91,12.08h163.23l.58-5.97c-.58-1.04-.84-2.32-.65-3.89.85-6.68,1.7-13.36,2.55-20.04,6.2-47.28,11.67-94.71,18.23-141.91-24.93-11.23-39.21-34.45-41.2-61.21-35.26,27.8-88.03,21.98-118.6-9.87l-1.27,8.79c4.33-1.79,10.42.34,10.39,6.43Zm54.24,70.35c24.4-.15,49.71.65,73.62-4,3.92-.94,6.85,1.11,8.23,3.93,1.84,3.77.89,8.91-4.35,10.16-10.57,2.53-21.72,3.12-32.54,3.71-29.68,1.44-59.5,1.28-89.11-1.27-9.88-.92-20.78-1.57-30.09-5.33-8.39-3.25-5.17-17.52,3.88-14.09,22.5,7.14,46.98,5.83,70.35,6.9Z"/>
          <path class="cls-7" d="m385.51,331.65c28.97-8.4,38.52-43.08,35.84-70.31-1.16,1.78-2.4,3.5-3.74,5.14.65,2.23,1.18,4.8.76,7.18-.77,12-13.3,20.89-24.83,17.1-1.91,20.97-9.09,41.7-21.94,58.58,4.54-1.93,8.16-2.94,12.26-4.43-4.72-3.01-5.32-11.57,1.64-13.26Z"/>
          <path class="cls-7" d="m238.32,345.9c1.86-1.96,3.43-4.29,4.65-6.9-60.23-7.16-55.58-83.89-45.64-127.64,1.09-4.96,5.67-6.08,9.35-4.65-.56-4.02,1.75-8.41,6.95-8.21,28.16,1.07,51.83-21.69,61.15-47.43,1.35-3.72,4.93-6.22,8.99-5.1,3.59.99,6.45,5.28,5.1,8.99-5.41,14.95-14.75,29.11-26.83,39.75,1.47-.9,3.32-1.26,5.48-.66,3.98,1.11,6.89,1.57,11.06,1.35,28.69-3.64,39.3-42.14,44.54-66.26-1.42-7.39,6.8-11.76,12.29-6.92,23.97,19.48,42.15,45.25,53.18,74.04,6.04-3.03,12.63-4.82,19.05-3.65-7.12-25.49-14.13-51.44-27.2-74.65-8.1-14.34-19.29-29.02-36.63-31.55-7.97-1.16-6.16-11.66.31-13.78-3.03-3.3-6.17-6.18-9.96-7.68-1.83,3.2-5.83,5.42-10.1,3.4-24.54-11.06-66.2,4.28-87.09,19.02-21.25,15.98-34.21,42.44-43.72,66.59-9.75,24.77-17.45,50.84-23.67,76.71-4.64,24.48-13.88,50.25-4.99,74.77,7.91,22.19,27.44,37.88,51.51,35.77,6.53-.57,8.46,6.32,5.91,10.85,1.53.25,3.05.3,4.54.12-.24-5.73,6.73-10.9,11.73-6.26Z"/>
          <path class="cls-8" d="m194.47,585.93c-3.41-48.61-8.37-97.12-12.18-145.69-27.69,9.98-57.02,17.87-82.46,32.83-10.25,6.03-19.71,13.65-25.77,24.04-3.64,6.24-5.48,12.98-7.04,19.96-6.44,28.69-12.87,57.39-19.31,86.08,53.45-.05,106.86.38,160.3.19l-.91-12.08c-3.89,3.4-12.12,1.6-12.62-5.35Z"/>
          <path class="cls-8" d="m374.7,603.36h163.3c-6.82-28.97-11.99-58.36-19.03-87.24-14.46-50.15-71.47-60.45-113.4-78.33-6.59,51.9-13.19,103.81-19.79,155.71-.51,6.84-10.96,9.45-13.96,3.89l-.58,5.97h3.46Z"/>
          <path class="cls-5" d="m216.13,341.19c-24.07,2.11-43.6-13.58-51.51-35.77-8.89-24.51.36-50.29,4.99-74.77,6.21-25.87,13.92-51.95,23.67-76.71,9.51-24.15,22.47-50.61,43.72-66.59,20.92-14.77,62.54-30.06,87.09-19.02,4.27,2.02,8.27-.2,10.1-3.4,1.79-3.14,1.49-7.23-2.72-9.22-28.52-13.46-64.11-1.44-90.4,12.08-51.85,28.19-69.49,100.81-84.28,153.91-5.64,27.7-15.53,56.7-7.19,84.79,9.11,29.18,34.77,52.11,66.55,49.32,8.72-.41,9.85-15.29,0-14.61Z"/>
          <path class="cls-5" d="m217.76,441.21c-8.37,16.68,23.9,15.76,33.59,17.35,29.61,2.56,59.44,2.71,89.12,1.27,10.81-.59,21.97-1.18,32.54-3.71,5.23-1.25,6.19-6.39,4.35-10.16-1.38-2.82-4.31-4.87-8.23-3.93-23.92,4.65-49.22,3.85-73.62,4-23.37-1.07-47.84.24-70.35-6.9-3.31-1.34-5.9-.13-7.38,2.08Z"/>
          <path class="cls-5" d="m341.42,236.96c9.4,0,9.42-14.61,0-14.61s-9.42,14.61,0,14.61Z"/>
          <path class="cls-5" d="m257.99,236.96c9.4,0,9.42-14.61,0-14.61s-9.42,14.61,0,14.61Z"/>
          <path class="cls-5" d="m273.77,320.9c15.08,10.73,35.89,11.07,50.89,0,3.16-2.14,4.86-6.52,2.62-10-2.03-3.14-6.62-4.92-10-2.62-2.4,1.63-4.9,3.13-7.57,4.28-2.08.81-4.13,1.32-6.28,1.79-.37.06-.56.09-.64.11-1.98.24-3.98.2-5.96.08-.47-.05-.69-.07-.7-.07-2.78-.45-5.5-1.24-8.1-2.31-1.16-.56-5.08-2.6-6.88-3.89-8.43-4.64-15.44,7.38-7.38,12.62Z"/>
          <path class="cls-5" d="m303.93,270.79c7.18-2.18,5.03-9.79,4.02-15.34-.95-7.25-.63-14.58-.05-21.85-.2-9.6-14.11-9.62-14.61,0-1.06,10.72-.58,21.53,1.65,32.08.72,3.76,5.44,6.25,8.99,5.1Z"/>
          <path class="cls-3" d="m396.38,276.34c-.13-.14-.19-.19-.29-.29-.02-.01-.04-.02-.05-.03.12.1.24.21.35.32Z"/>
          <path class="cls-3" d="m395.5,275.53c-.17-.08.24.36.54.49-.16-.14-.32-.28-.47-.43,0,0-.04-.04-.06-.06Z"/>
          <path class="cls-3" d="m402.42,275.66c-.08.18.37-.26.49-.53-.16.19-.32.36-.49.53Z"/>
          <path class="cls-3" d="m402.55,268.74c.18.08-.26-.37-.54-.49.16.14.32.28.47.43,0,0,.04.04.06.06Z"/>
          <path class="cls-3" d="m394.81,269.5c.14-.13.19-.19.29-.29.01-.02.02-.04.03-.05-.1.12-.21.24-.32.35Z"/>
          <path class="cls-3" d="m401.66,267.93c.14.14.19.19.3.29.02.01.04.02.05.03-.12-.1-.24-.21-.35-.32Z"/>
          <path class="cls-3" d="m395.18,275.21c.13.14.25.25.32.32.07.03.27.2.59.52.28.18.57.31.86.47.46.16.93.28,1.4.39.45.02.9.02,1.35,0,.47-.11.94-.23,1.4-.39.34-.18.69-.34,1.01-.55.14-.13.25-.25.32-.32.03-.07.2-.26.52-.59.18-.28.31-.57.47-.86.19-.57.36-1.14.48-1.72,0-.12.02-.23.02-.35,0-.12-.02-.23-.02-.35-.12-.59-.29-1.16-.48-1.73-.18-.34-.34-.69-.55-1.01-.13-.14-.25-.25-.32-.32-.07-.03-.27-.2-.59-.52-.27-.18-.57-.32-.86-.47-.46-.16-.93-.28-1.4-.39-.45-.02-.9-.02-1.35,0-.47.11-.94.23-1.4.39-.34.18-.69.33-1.01.55-.13.13-.25.25-.32.32-.03.06-.2.26-.52.59-.18.27-.31.57-.47.86-.16.46-.28.93-.39,1.4-.02.45-.02.9,0,1.35.11.47.23.94.39,1.4.18.34.33.69.55,1.01Z"/>
          <path class="cls-3" d="m395.63,268.61c.08-.18-.37.26-.49.54.14-.16.28-.32.43-.47,0,0,.04-.04.06-.06Z"/>
          <path class="cls-3" d="m403.23,274.77c-.14.13-.19.19-.29.29-.01.02-.02.04-.03.05.1-.12.21-.24.32-.35Z"/>
          <path class="cls-5" d="m395.56,275.59c.15.15.31.29.47.43.02.01.04.02.05.03-.32-.32-.52-.5-.59-.52.02.02.06.06.06.06Z"/>
          <path class="cls-5" d="m402.48,268.68c-.15-.15-.31-.29-.47-.43-.02-.01-.04-.02-.05-.03.32.32.52.5.59.52-.02-.02-.06-.05-.06-.06Z"/>
          <path class="cls-5" d="m402.48,275.59c.15-.15.29-.31.43-.47.01-.02.02-.04.03-.05-.32.32-.5.52-.52.59.02-.02.06-.06.06-.06Z"/>
          <path class="cls-5" d="m395.56,268.68c-.15.15-.29.31-.43.47-.01.02-.02.04-.03.05.32-.32.5-.52.52-.59-.02.02-.06.06-.06.06Z"/>
          <path class="cls-5" d="m552.62,606.82c1.06-2.95-.49-6.43-.96-9.47-5.49-25.26-10.7-50.59-16.29-75.83-2.61-11.79-6.33-23.63-13.05-33.78-19.18-28.22-52.41-41.42-83.28-52.7-42.75-15.2-74.12-24.62-74.58-77.02,17.02-18.3,26.96-42.51,29.09-67.26,11.53,3.79,24.07-5.1,24.83-17.1.42-2.39-.12-4.96-.76-7.18,1.34-1.64,2.58-3.37,3.74-5.14,2.68,27.22-6.88,61.93-35.84,70.31-6.96,1.69-6.36,10.25-1.64,13.26,1.48.94,3.35,1.36,5.53.83,10.02-2.44,18.45-8.9,25.79-16.07,27.03-27.16,22.8-69.77,15.56-104.2-.37-4.75-1.43-9.56-3.14-14.08-11.18-40.85-30.79-137.48-83.46-138.78-6.48,2.13-8.28,12.62-.31,13.78,39.33,7.1,53.88,73.19,63.83,106.19-6.42-1.16-13.01.62-19.05,3.65-11.03-28.78-29.21-54.55-53.18-74.04-5.48-4.83-13.71-.48-12.29,6.92-5.23,24.07-15.86,62.63-44.54,66.26-4.17.22-7.08-.24-11.06-1.35-2.16-.6-4.01-.24-5.48.66,12.08-10.63,21.42-24.8,26.83-39.75,1.34-3.71-1.51-8-5.1-8.99-4.06-1.12-7.64,1.38-8.99,5.1-9.31,25.74-32.99,48.5-61.15,47.43-5.21-.2-7.52,4.19-6.95,8.21-3.69-1.43-8.27-.3-9.35,4.65-9.94,43.75-14.59,120.49,45.64,127.64,7.2-1.11,9.54-12.57,1.24-14.12-50.1-9.66-39.5-75.7-32.68-112.17,18.14,2.14,35.34-5.47,48.76-16.45-2.96,3.9-2.42,10.25,3.35,11.86,41.52,11.55,62.73-31.92,71.59-66.54,18.06,17.27,32.17,38.43,40.66,62.05.4,1.12,1.03,2.1,1.8,2.93-.64,5.38,6.33,9.83,10.95,6.67,8.74-6.58,19.18-10.82,24.81,1.82.97,4.03,1.94,8.04,2.79,12.1.59,9.88-2.46,19.81-8.14,27.81-14.35-8.37-32.41,6.26-27.96,22.05-1.23,34-14.65,69-45.63,86.62-32.58,18.98-71.58,9.57-96.19-17.74-6.79-6.13-15.75,4.79-9.8,10.82,30.1,34.75,85.43,42.71,122.22,13.62,1.99,26.77,16.27,49.98,41.2,61.21-6.56,47.2-12.03,94.63-18.23,141.91-.85,6.68-1.7,13.36-2.55,20.04-.19,1.57.07,2.86.65,3.89,3.01,5.53,13.45,2.96,13.96-3.89,6.6-51.9,13.19-103.81,19.79-155.71,121.86,44.95,105.58,45.97,132.44,165.58-163.44-.04-326.87.15-490.3-.19,6.44-28.69,12.87-57.39,19.31-86.08,1.57-6.98,3.4-13.72,7.04-19.96,6.07-10.39,15.52-18.01,25.77-24.04,25.45-14.97,54.77-22.85,82.46-32.83,3.81,48.57,8.78,97.07,12.18,145.69.73,9.46,15.39,9.22,14.61,0-3.48-48.26-8.11-96.43-12.2-144.65-.21-2.44-1.37-4.22-2.95-5.39,11.17-4.43,22.31-9.63,31.11-17.99,11.69-11.12,16.12-26.44,16.2-42.22.03-6.08-6.06-8.21-10.39-6.43-2.36.97-4.21,3.1-4.23,6.43-.07,13.11-3.63,24.99-13.89,33.65-9.66,8.16-22.35,12.48-34.05,16.75-29.04,10.59-60.15,18.82-86.88,34.75-19.37,11.54-33.38,27.94-38.41,50.2-6.89,32-14.91,63.88-21.2,95.95h.52c-2.23,4.33-.19,10.99,6.17,10.99h445.32c20.41,0,41.04.88,61.44,0,6.65.65,9.64-6.49,6.96-11.15Zm-158.37-335.36c.11-.47.23-.94.39-1.4.15-.29.29-.58.47-.86-.1.1-.15.16-.29.29.11-.11.21-.23.32-.35.12-.27.58-.71.49-.54.07-.07.18-.18.32-.32.32-.21.67-.37,1.01-.55.46-.16.93-.28,1.4-.39.45-.02.9-.02,1.35,0,.47.11.94.23,1.4.39.29.15.59.29.86.47-.1-.1-.16-.15-.3-.29.11.11.23.21.35.32.27.12.71.57.54.49.07.07.18.18.32.32.21.32.37.67.55,1.01.19.56.36,1.14.48,1.73,0,.12.02.23.02.35,0,.12-.02.23-.02.35-.12.59-.29,1.16-.48,1.72-.15.29-.29.58-.47.86.1-.1.15-.16.29-.29-.11.11-.21.23-.32.35-.12.27-.57.71-.49.53-.07.07-.18.18-.32.32-.32.21-.67.37-1.01.55-.46.16-.93.28-1.4.39-.45.02-.9.02-1.35,0-.47-.11-.94-.23-1.4-.39-.29-.15-.59-.29-.86-.47.1.1.16.15.29.29-.11-.11-.23-.22-.35-.32-.29-.14-.71-.57-.54-.49-.07-.07-.18-.18-.32-.32-.21-.32-.37-.67-.55-1.01-.16-.46-.28-.93-.39-1.4-.02-.45-.02-.9,0-1.35Z"/>
        </g>
      </g>
    </g>
  </g>
</svg>