<?xml version="1.0" encoding="utf-8"?>
<!-- Generator: Adobe Illustrator 27.2.0, SVG Export Plug-In . SVG Version: 6.00 Build 0)  -->
<svg version="1.1" id="レイヤー_1" xmlns="http://www.w3.org/2000/svg" xmlns:xlink="http://www.w3.org/1999/xlink" x="0px"
	 y="0px" viewBox="0 0 600 600" style="enable-background:new 0 0 600 600;" xml:space="preserve">
<style type="text/css">
	.st0{fill:#FFE033;}
	.st1{clip-path:url(#SVGID_00000101071512969635459470000011917611961414764450_);}
	.st2{fill:#6EC878;}
	.st3{fill:#5A5A5A;}
	.st4{fill:#FFFFFF;}
	.st5{fill:#323232;}
</style>
<circle class="st0" cx="300" cy="300" r="300"/>
<g>
	<defs>
		<circle id="SVGID_1_" cx="300" cy="300" r="300"/>
	</defs>
	<clipPath id="SVGID_00000172433113110375324780000009217120623861759384_">
		<use xlink:href="#SVGID_1_"  style="overflow:visible;"/>
	</clipPath>
	<g style="clip-path:url(#SVGID_00000172433113110375324780000009217120623861759384_);">
		<path class="st2" d="M419.4,209.5C419.4,209.5,419.4,209.5,419.4,209.5C419.1,209.4,418.9,209.4,419.4,209.5z"/>
		<path class="st2" d="M419.7,209.5C419.7,209.5,419.7,209.5,419.7,209.5C419.7,209.5,419.7,209.5,419.7,209.5
			C419.7,209.5,419.7,209.5,419.7,209.5z"/>
		<path class="st2" d="M419.7,209.5C419.7,209.5,419.7,209.5,419.7,209.5c-0.1,0-0.2,0-0.2-0.1c0,0,0,0,0,0
			C419.5,209.5,419.5,209.5,419.7,209.5C419.6,209.5,419.7,209.5,419.7,209.5z"/>
		<path class="st2" d="M419.7,209.5C419.7,209.5,419.7,209.5,419.7,209.5C419.7,209.5,419.7,209.5,419.7,209.5
			C419.7,209.5,419.7,209.5,419.7,209.5C419.7,209.5,419.7,209.5,419.7,209.5z"/>
		<path class="st2" d="M419.8,209.5c-0.1,0-0.1,0-0.1,0c0,0,0,0,0,0C419.8,209.5,419.8,209.5,419.8,209.5z"/>
		<path class="st2" d="M419.9,209.6c0,0-0.1,0-0.2,0c0,0.1,0.1,0.1,0.2,0.3C419.9,209.7,419.9,209.7,419.9,209.6z"/>
		<path class="st3" d="M99.1,599.5c6.3,0,12.5,0,18.8,0c-3.7-40.2-24-75.9-40.6-111.9c-3.9-8.4,8.6-15.8,12.5-7.3
			c17.7,38.5,38.6,76.2,42.6,119.2c42.3,0,84.6,0,126.8,0c-4.6-32.6-10.2-65.2-17-97.4c-6-31.1-14.3-63.1-27.1-92
			c-36,19.1-76.4,28.6-113.6,45.3c-23.2,8.8-35.6,15.4-43.4,40.3c-11.8,33.3-13,68.9-18,103.6C59.8,598.9,79.5,599.5,99.1,599.5z"/>
		<path class="st4" d="M259.7,186.5c-2.5,1.2-5.1,2.2-7.8,3c3.2,2.5,6,4.7,9.3,5.2C259.2,192.6,258.6,189.2,259.7,186.5z"/>
		<path class="st4" d="M333.5,48.5c-27.2-18.8-62.4-10.8-84.7,11.9c-10,10.2-20.9,21.5-35.4,24.7c3.4,2.3,5.3,7.4,1.8,11.4
			c-20.6,23.9-25.8,61.1-3.1,85.4c2.7,2.8,2.4,6.3,0.8,8.8c0.7,0.4,1.3,0.9,1.8,1.5c0.9-3,3.9-5,7-5.2c4.4-0.2,7.4,4,7.3,8
			c0.4,8.4,0.9,16.7,1.3,25.1c-0.4,9.5-14,9.7-14.5,0c-0.3-6.4-0.7-12.8-1-19.1c-2.2,3.1-6.1,3.5-9.5,2c-2-0.8-4.5,1.5-5.6,2.9
			c-9.5,17.8-1,41.3,15.1,52c4-3.3,12-1.4,12.3,5.4c1.2,24.2,7.5,48.6,22,68.4c19.1,26.1,52.6,39.8,84,30.1
			c38.8-12.1,56.3-53.2,59.5-90.7c0.4-5.2,5.3-7.5,9.3-6.9c11.6-5.2,18.8-14.4,21.2-27.1c1.4-8.6,1.9-19.2-2.5-26.9
			c0,0-0.3-0.3-0.5-0.5c0,0.1,0,0.1-0.2-0.3c0,0-0.1,0-0.1,0c-0.1,0-0.1,0-0.2,0c-0.2,0-2.1,0.8-1.6,0.5c-1.1,0.5-2.3,0.7-3.4,0.8
			c-3.5,5-6.9,9.9-10.4,14.9c-1.9,2.8-4.9,4.1-8.2,3.3c-3-0.7-5.5-4-5.3-7c0.8-11.9,0.9-24,2.1-35.8c-3.1-9.9-15.5-17.4-22.8-23.2
			c-13.5-9.4-17.2-25.3-12.9-40.7c-2.8,1.6-7.1,0.2-10.3,0.9c-1.3,0.2-2.5,0.5-3.7,1c-0.9,0.5-1.7,0.9-2.5,1.4
			c-0.9,0.7-1.7,1.6-2.5,2.5c-1.4,2-2.5,4.1-3.5,6.3c0,0,0,0,0,0c0,0,0,0,0,0c-4.6,11.8-6.7,24.6-12.9,35.8
			c-11.3,20.4-33.2,26.9-55.3,26.5c-2.1,0-3.8-0.8-4.9-2c-3.3-0.5-6.2-2.8-9.3-5.2c-5.5,1.3-12.3,4.3-17.8,1.8
			c-7.4-5.6-2.5-14.3,6.1-13.7c4-0.6,7.9-1.7,11.7-3.3c3.8-1.7,7.3-3.9,10.7-6.3c3.5-2.8,7-6.4,9.7-9.7c2.9-3.9,5.4-8.1,7.4-12.5
			c1.7-3.6,6.8-4.4,9.9-2.6c12.7,7.6-14.7,34.9-22.4,39.1c11.8,0.1,23.6-1.4,32.8-8.4c5.2-4.1,8.6-9.7,11.3-15.7c0,0,0,0,0-0.1
			c8.2-22.2,10.6-51.9,41.7-49.4c4.2,0.3,6.5,3.4,6.9,6.7c4.7-3.6,13.5,0.3,11.6,7.7c-1.6,6.4-3.4,13.8-0.5,20.1
			c3.2,6.9,10.9,11,16.7,15.4c11.4,8.8,21.6,21.8,19.6,36.8c2.6-4.2,6.3-9.3,11.8-6.9c5.7-12.6,9.8-27.5,11.5-41.5
			c0.7-8-0.9-13-3.8-21c-2.5-6.9-6.1-15.3-13.9-17c-4.4-0.9-5.8-4.6-5-8c-2-16.2-9.1-32.9-22.4-42.9c0.4,0.3,0.3,0.3-0.1,0
			c-4.2-3.1-8.8-5.5-14-6.2c-2-0.3-3.7-0.3-5.7-0.1c-2.1,0.3-4.2,1-6.2,1.7c-6,2.2-11.8-5.9-8-10.8c-2.3-1.6-4.9-2.6-7.9-2.3
			C345.2,45.9,339.5,52.7,333.5,48.5z M352.9,207.7c9.4,0,9.4,14.5,0,14.5C343.6,222.2,343.6,207.7,352.9,207.7z M314.1,212
			c4.3-0.2,6.8,3.5,7.3,7.3c1.4,11.4,2.8,22.8,4.2,34.2c0.5,4-3.7,7.1-7.3,7.3c-4.3,0.2-6.8-3.5-7.3-7.3
			c-1.4-11.4-2.8-22.8-4.2-34.2C306.4,215.3,310.6,212.2,314.1,212z M282.8,302.7c1-3.5,5.3-6.5,8.9-5.1c5.8,2.3,11.8,4.4,18.1,5.4
			c3.4,0.4,6.8,0.4,10.2-0.1c6-1,11.7-3,17.4-5.3c3.7-1.5,8,1.6,8.9,5.1c1.1,4.1-1.4,7.5-5.1,8.9c-17,8-36.4,7.8-53.4,0
			C284.2,310.2,281.7,306.8,282.8,302.7z M274.2,207.7c9.4,0,9.4,14.5,0,14.5C264.9,222.2,264.9,207.7,274.2,207.7z"/>
		<path class="st4" d="M277.2,372.4c-11.3-4.8-20.9-11.6-29-19.7c-1.4,18.8-8.3,37.7-22.8,50c1.2,0.6,2.4,1.6,3.2,3.2
			c7.5,15.1,12.5,31.4,17,47.6c13.2,47.7,21.7,97,28.3,146.1c51.2,0,102.4,0,153.5,0C421.2,544.7,418,489,405,435.3
			c-1.3-5.6,3.4-9.1,7.7-9l-3.3-11.4c-17.3-10.8-27.8-28.1-33.7-47.6c-2.4-7.6,7.4-11.5,12.1-7l-4.2-19.2
			C360.5,375.3,315.2,388.8,277.2,372.4z M393.9,407.8c8.6-1.9,13.4,12.1,3.9,14c-48.8,8.9-100.9,8.5-149.3-2.9
			c-6-1.4-6.3-7.9-3.3-11.6c1.6-1.9,4.1-3.1,7.2-2.4C298.1,415.7,347.8,416.3,393.9,407.8z"/>
		<path class="st3" d="M419.1,431.4c13.2,55,16.5,112,22.8,168.1c38.1,0,76.1,0,114.2,0c-4.5-22.9-7.8-46-13.3-68.6
			c-4.9-20.2-11-42.9-26.1-58c-15.1-15.1-35.2-25.4-54.4-34.3c-17.3-8-36.6-13.4-52.7-23.8l3.3,11.4
			C415.6,426.3,418.2,427.9,419.1,431.4z"/>
		<path class="st5" d="M252.4,404.9c-8.7-2.3-13.2,11.7-3.9,14c48.4,11.4,100.4,11.8,149.3,2.9c9.6-2,4.7-15.9-3.9-14
			C347.8,416.3,298.1,415.7,252.4,404.9z"/>
		<path class="st5" d="M352.9,222.2c9.4,0,9.4-14.5,0-14.5C343.6,207.7,343.6,222.2,352.9,222.2z"/>
		<path class="st5" d="M274.2,222.2c9.4,0,9.4-14.5,0-14.5C264.9,207.7,264.9,222.2,274.2,222.2z"/>
		<path class="st5" d="M287.9,311.6c17,7.8,36.4,8,53.4,0c3.6-1.5,6.2-4.8,5.1-8.9c-0.9-3.4-5.3-6.6-8.9-5.1
			c-5.6,2.3-11.3,4.3-17.4,5.3c-3.4,0.4-6.8,0.4-10.2,0.1c-6.2-0.9-12.2-3-18.1-5.4c-3.6-1.5-8,1.6-8.9,5.1
			C281.7,306.8,284.2,310.2,287.9,311.6z"/>
		<path class="st5" d="M419.9,209.8c-0.1-0.1-0.2-0.2-0.2-0.3c0,0,0,0,0,0C419.9,209.9,419.9,209.9,419.9,209.8z"/>
		<path class="st5" d="M419.4,209.5C419.4,209.5,419.4,209.5,419.4,209.5c0,0,0.1,0,0.2,0C419.5,209.5,419.5,209.5,419.4,209.5z"/>
		<path class="st5" d="M419.6,209.5C419.6,209.5,419.7,209.5,419.6,209.5C419.7,209.5,419.7,209.5,419.6,209.5
			C419.7,209.5,419.6,209.5,419.6,209.5z"/>
		<path class="st5" d="M419.7,209.5C419.7,209.5,419.7,209.5,419.7,209.5C419.7,209.5,419.7,209.5,419.7,209.5
			C419.7,209.5,419.7,209.5,419.7,209.5C419.7,209.5,419.7,209.5,419.7,209.5z"/>
		<path class="st5" d="M318.4,260.8c3.5-0.2,7.8-3.2,7.3-7.3c-1.4-11.4-2.8-22.8-4.2-34.2c-0.5-3.8-3-7.5-7.3-7.3
			c-3.5,0.2-7.8,3.2-7.3,7.3c1.4,11.4,2.8,22.8,4.2,34.2C311.6,257.3,314.1,261,318.4,260.8z"/>
		<path class="st5" d="M570.9,599.7c-4.3-21.1-7.4-42.4-12-63.4c-4.7-21.6-10.5-45.9-23.7-64c-12.3-16.9-31.2-28.6-49.4-38.2
			c-18.6-9.8-38.4-16.4-57.3-25.3c-9.6-4.5-18.6-10.2-25.5-18.4c-6.5-7.8-10.2-17.4-13.2-26.9c-0.4-1.4-1.1-2.4-2-3.2
			c-4.7-4.4-14.4-0.6-12.1,7c5.9,19.5,16.4,36.7,33.7,47.6c16.1,10.4,35.4,15.7,52.7,23.8c19.2,8.9,39.3,19.2,54.4,34.3
			c15.1,15.1,21.1,37.8,26.1,58c5.5,22.7,8.8,45.7,13.3,68.6c-38.1,0-76.1,0-114.2,0c-6.3-56.1-9.6-113.2-22.8-168.1
			c-0.9-3.5-3.5-5.1-6.3-5.2c-4.4-0.1-9.1,3.5-7.7,9c12.9,53.7,16.2,109.4,22.3,164.3c-51.2,0-102.4,0-153.5,0
			c-6.6-49.1-15.1-98.4-28.3-146.1c-4.5-16.2-9.6-32.5-17-47.6c-0.8-1.6-1.9-2.6-3.2-3.2c14.5-12.3,21.5-31.1,22.8-50
			c35,36.9,98.8,35.1,130.8-5.2c16.1-19.7,24.4-44.3,27.4-69.4c17.9-6.8,30-23.8,31.5-42.8c1.2-12,1.1-27.3-8.1-36.2
			c5.5-7.2,7.6-16.9,10.3-25.4c2.7-9.6,5-19.6,5.5-29.6c0.4-9.2-2.8-18.1-6.3-26.5c-3.6-8.6-9-17.2-17.6-21
			c-2.4-31.1-31.6-68.8-65.9-57.2c-9.2,3.3-5.4,16.2,3.9,14c2-0.7,4.1-1.4,6.2-1.7c2-0.2,3.7-0.2,5.7,0.1c5.2,0.8,9.8,3.2,14,6.2
			c0.4,0.3,0.4,0.3,0.1,0c13.3,10,20.4,26.7,22.4,42.9c-0.7,3.4,0.6,7.1,5,8c7.9,1.7,11.5,10.1,13.9,17c2.9,8.1,4.5,13,3.8,21
			c-1.7,14-5.8,28.9-11.5,41.5c-5.5-2.4-9.3,2.7-11.8,6.9c2-15-8.1-27.9-19.6-36.8c-5.8-4.4-13.5-8.6-16.7-15.4
			c-2.9-6.3-1.2-13.7,0.5-20.1c1.9-7.4-7-11.3-11.6-7.7c-0.4-3.3-2.7-6.4-6.9-6.7c-31.2-2.4-33.5,27.2-41.7,49.4c0,0,0,0,0,0.1
			c-2.6,6-6,11.6-11.3,15.7c-9.2,7-21,8.5-32.8,8.4c7.7-4.1,35.1-31.5,22.4-39.1c-3.1-1.8-8.3-1-9.9,2.6c-2,4.4-4.5,8.6-7.4,12.5
			c-2.7,3.3-6.2,6.9-9.7,9.7c-3.4,2.5-6.9,4.6-10.7,6.3c-3.8,1.6-7.6,2.6-11.7,3.3c-8.6-0.6-13.5,8.1-6.1,13.7
			c1.1,0.7,2.3,1.1,3.7,1c7.7-0.5,15-2.6,21.9-5.8c-1.8,4.6,1,10.3,6.5,10.3c22.1,0.4,44.1-6,55.3-26.5c6.3-11.2,8.3-24,12.9-35.8
			c0,0,0,0,0,0c0,0,0,0,0,0c1-2.2,2.1-4.3,3.5-6.3c0.8-0.8,1.6-1.7,2.5-2.5c0.8-0.5,1.6-1,2.5-1.4c1.2-0.4,2.4-0.8,3.7-1
			c3.1-0.7,7.4,0.7,10.3-0.9c-4.3,15.4-0.6,31.2,12.9,40.7c7.3,5.7,19.6,13.2,22.8,23.2c-1.2,11.8-1.3,23.9-2.1,35.8
			c-0.2,3,2.4,6.3,5.3,7c3.3,0.8,6.3-0.6,8.2-3.3c3.5-5,6.9-9.9,10.4-14.9c1.2-0.1,2.3-0.3,3.4-0.8c-0.5,0.2,1.5-0.5,1.6-0.5
			c-0.5-0.1-0.3-0.1,0,0c0,0,0,0,0,0c0,0,0.1,0,0.2,0c0,0,0,0,0-0.1c0,0,0,0,0,0.1c0,0,0.1,0,0.1,0c-0.1,0-0.1,0-0.1,0c0,0,0,0,0,0
			c0.1,0,0.1,0,0.2,0c0,0.1,0,0.2,0,0.2c0.2,0.3,0.5,0.5,0.5,0.5c4.4,7.7,3.9,18.3,2.5,26.9c-2.4,12.7-9.6,21.9-21.2,27.1
			c-4-0.7-8.8,1.6-9.3,6.9c-3.2,37.5-20.7,78.6-59.5,90.7c-31.4,9.8-64.9-3.9-84-30.1c-14.5-19.8-20.8-44.1-22-68.4
			c-0.3-6.9-8.3-8.7-12.3-5.4c-13.9-9.5-21.8-26.9-18.1-43.8c0.5-4.8,3.9-12.2,8.6-11.1c3.4,1.5,7.3,1.1,9.5-2
			c0.3,6.4,0.7,12.8,1,19.1c0.5,9.7,14.2,9.5,14.5,0c-0.4-8.4-0.9-16.7-1.3-25.1c0.1-4-2.9-8.2-7.3-8c-3.1,0.1-6.1,2.2-7,5.2
			c-0.5-0.6-1.1-1.1-1.8-1.5c1.6-2.6,1.9-6-0.8-8.8c-22.7-24.3-17.5-61.5,3.1-85.4c3.5-4,1.6-9.1-1.8-11.4
			c14.5-3.2,25.3-14.5,35.4-24.7c22.4-22.6,57.6-30.6,84.7-11.9c8.2,5.5,14.6-8,7.3-12.5c-29.5-20.3-68.2-14.4-95.2,7.5
			c-16.5,13.3-32.1,38.8-55.7,23.1c-7.8-5.2-15.1,7.4-7.3,12.5c7.1,4.7,14.8,7.1,22.5,7c-25.3,29-31.2,72.8-5.7,103.2
			c-16.4,4.8-19.5,25.2-17.7,39.9c2.3,19.8,14.6,35.6,31.8,45.2c2.4,21.4,9,42.7,20.5,60.6c0,0,0,0,0,0c2.1,34.6-9,58.6-42.7,70.7
			c-32.7,13.6-66.6,23.8-99,38c-11,4.9-23.7,9.4-32,18.6c-19.8,24.1-23.9,57-28.5,86.8c-2.6,18.9-3.1,38.6-7.8,57.1c0,0,0,0,0,0h2
			c-0.3,3.8,2,7.8,7,7.8c17.8,0,35.6,0,53.5,0c94.3,0,188.6,0,282.9,0c44.5,0,89.1,0,133.6,0c22,0,44.2,0.8,66.2,0
			C577.7,614.1,578.3,601.5,570.9,599.7z M58.1,495.7c7.8-25,20.2-31.5,43.4-40.3c37.1-16.7,77.5-26.2,113.6-45.3
			c12.9,28.9,21.2,60.9,27.1,92c6.8,32.3,12.4,64.8,17,97.4c-42.3,0-84.6,0-126.8,0c-4-43-24.8-80.7-42.6-119.2
			c-3.9-8.5-16.4-1.1-12.5,7.3c16.6,36,36.9,71.7,40.6,111.9c-25.9,0.2-51.8-0.7-77.7-0.1C45.1,564.7,46.3,529.1,58.1,495.7z"/>
	</g>
</g>
</svg>
