<?xml version="1.0" encoding="utf-8"?>
<!-- Generator: Adobe Illustrator 27.2.0, SVG Export Plug-In . SVG Version: 6.00 Build 0)  -->
<svg version="1.1" id="レイヤー_1" xmlns="http://www.w3.org/2000/svg" xmlns:xlink="http://www.w3.org/1999/xlink" x="0px"
	 y="0px" viewBox="0 0 600 600" style="enable-background:new 0 0 600 600;" xml:space="preserve">
<style type="text/css">
	.st0{fill:#FFE033;}
	.st1{clip-path:url(#SVGID_00000076592705664002519870000001089632407843662000_);}
	.st2{fill:none;}
	.st3{fill:#6EC878;}
	.st4{fill:#FFFFFF;}
	.st5{fill:#5A5A5A;}
	.st6{fill:#323232;}
</style>
<circle class="st0" cx="300" cy="300" r="300"/>
<g>
	<defs>
		<circle id="SVGID_1_" cx="300" cy="300" r="300"/>
	</defs>
	<clipPath id="SVGID_00000065767965193761868690000008501747301455602573_">
		<use xlink:href="#SVGID_1_"  style="overflow:visible;"/>
	</clipPath>
	<g style="clip-path:url(#SVGID_00000065767965193761868690000008501747301455602573_);">
		<path class="st2" d="M388.6,364.8c-0.1,0.1-0.1,0.2-0.2,0.4C388.5,365,388.6,364.9,388.6,364.8z"/>
		<path class="st2" d="M392.8,381c-0.1,0.2-0.3,0.3-0.4,0.5C392.6,381.4,392.7,381.2,392.8,381z"/>
		<path class="st2" d="M391.6,387.1c-0.1-0.6-0.2-1.2-0.2-1.8C391.4,385.8,391.5,386.4,391.6,387.1z"/>
		<path class="st2" d="M391.6,383.6c-0.1,0.3-0.1,0.7-0.1,1.1C391.5,384.3,391.5,384,391.6,383.6z"/>
		<path class="st2" d="M392.1,382.2c-0.1,0.3-0.2,0.5-0.3,0.8C391.9,382.7,392,382.4,392.1,382.2z"/>
		<path class="st3" d="M247.4,427.4C247.8,426.1,247,426.7,247.4,427.4L247.4,427.4z"/>
		<path class="st4" d="M235.4,383.7c3.7,7.4,7.7,15.4,11.5,22.5c4.4,5.6,11.4,8.9,14.4,15.7c5.7,12.6-9.3,24.8-17.6,34.8
			c8.8,8.6,13.2,20.1,17,31.6c1.9,6,7.2,13.9-1.4,16.6c-4.8,39.3-9.5,78.6-14.3,117.9c37.4,0,74.9,0,112.3,0
			c9.5-63.3,21.9-126.1,39.7-187.6c1.4-4.8,6-6,9.7-4.8c1.4-3.6,3.3-7,5.7-10c-7.3-5.9-31.3-36.7-15.7-42.2
			c-1.6-5.4-3.1-11.4-7.5-15.2c-3.3,8-11.3,13.3-17.6,18.9c-14.2,11.6-29,22.1-44.4,32.1c0.9,0.8,1.6,1.8,2.1,3.2
			c4.3,12.8,8.6,25.6,12.9,38.4c15.6-15.3,31.7-30.4,45.5-47.4c7-6.7,17.1,2.9,10.6,10.6c-16.4,20-35.6,37.7-54.1,55.8
			c-4.2,4-10.7,2-12.5-3.3c-5.6-16.7-11.2-33.3-16.8-50c-1.4,0.7-2.7,1.5-4.1,2.2c-9.9,18.6-19.8,37.2-29.6,55.8
			c-1.9,3.6-6.8,4.7-10.2,2.7c-7-5-1.8-11.8,1.2-17.5c8.3-15.6,16.6-31.2,24.9-46.8c0.2-2,1.2-4,2.8-5.1c1.2-1.6,3.1-2.6,5.1-2.8
			c21.7-12.3,41.9-26.4,61.2-42.4c-1-5.3-0.1-10.8-0.4-16.2c-36.6,45.5-98.9,49.5-139.2,5.6l0.8,21.9
			C230.6,378.2,233.8,379.9,235.4,383.7z"/>
		<path class="st3" d="M411.5,439.3c-17.4,60.3-29.6,121.7-39,183.6c73.1,0,146.3,0,219.4,0c-0.6-34.3-7.5-67.8-16.5-100.8
			c-2.8-10.8-12.5-19.4-20.7-26.3c-8.1-6.7-16.9-12.7-26.3-17.4c-40.6-14.6-83.1-28.6-115.8-57.9c-2.5,3-4.3,6.4-5.7,10
			C410.1,431.7,412.7,434.9,411.5,439.3z M448.2,605.5c19.2-36.8,51.3-99.4,96.8-105c10.1-0.8,9.2,15.1-0.8,15
			c-37.6,8.4-66.4,65.5-83.1,97.5C456.8,621.7,443.9,614.1,448.2,605.5z"/>
		<path class="st4" d="M341.9,119.4c-6.4-12.4-19-20.4-33.1-19.3c-15.5,1.2-24.5,12.2-32.2,24.5c-13.1,23.2-35.7,41.1-62.9,43.5
			c-0.8,6.1-1.6,12.3-2.5,18.4c0,1.3-0.3,2.6-1,3.8c-0.4,0.5-0.8,1-1.2,1.5c0,0,0,0,0,0c6.2,1.1,12.4,2.7,18.6,4
			c4.3,0.9,5.8,5.6,5.6,9.5c1.1,14.8,23,23.2,33.2,12.5c4.3-5.1,5.8-12.1,7.3-18.4c0.8-3.2,4-5.5,7.2-5.5c9.9,0,19.8,0,29.7,0
			c4.1,0,6.8,3.1,7.4,6.8c0.6,3.4,1.4,6.3,3.1,9.2c6.5,12.4,29.7,15.2,34.8,0.3c1.5-4.2,1.7-5.9,1.5-9.9c0.2-9.4,11.6-7.3,18-7.7
			c0.3-10.5,0.2-21.1-1.1-31.5c-0.4-2.9-0.9-5.7-1.9-8.4c-0.2-0.5-0.5-1-0.8-1.5c-0.2-0.3-0.3-0.5-0.5-0.8c0,0,0,0-0.1-0.1
			c-5.3-5.2-9.1-10.7-11.4-17.8c-3.1-3.3-4.9-7.6-7.2-11C349.2,123.9,344.3,124.1,341.9,119.4z M253.6,210.6c-9.6,0-9.6-14.9,0-14.9
			C263.2,195.7,263.2,210.6,253.6,210.6z M336.6,210.6c-9.6,0-9.6-14.9,0-14.9C346.2,195.7,346.2,210.6,336.6,210.6z"/>
		<path class="st5" d="M197.3,85.1c-18.8,9.9-15.4,37.3-14.4,55c0.9,15.4,2.1,30.7,3.2,46.1c6.8,0.7,7.9,9.5,3,13.3
			c-0.6,4.9,0.7,8.5,10.6,6.1c0.8-0.8,1.4-1.6,2-2.4c-1.6-2.8-0.8-6.8,1.5-9.2c-3.7-0.2-7-3.7-6.8-7.4c1-7.2,1.9-14.4,2.9-21.6
			c0-1.3,0.3-2.6,1-3.8c0.3-0.3,0.5-0.7,0.8-1c0.5-3.3,2.9-6.3,7.1-6.5c15.5-0.8,30.5-7.2,41.7-18c11.3-10.9,16.5-26.5,28-37.2
			c23.6-22.1,62.3-15.1,77,13.4c2,3.9,0.4,7.5-2.3,9.6c2.2,3.4,4.1,7.7,7.2,11c-2.8-9.6,11.2-13.7,14.3-4.2c0.7,2.4,2,5,3.3,6.8
			c2.3,2.7,5,5,6.9,8c3.7,5.6,4.5,12.7,5.2,19.2c1.1,10,1.3,20.3,0.9,30.4c6.9,2.3,6.1,14.3-2.6,14.5c-1.3,0-2.5,0.1-3.8,0.1
			c0,4.2,0,8.2,0,8.2c12.1,3,18.7-3.2,22-11.9c-0.9-1.9-0.9-4.2-0.2-6.2c-3.2-0.5-6-2.9-5.9-7.1c0.5-20.3,5-40.3,5.5-60.6
			c1.5-17.3-7.7-32.8-21.3-42.8c-5.6-4.5-1.1-11.5,4.7-12.3c-1.6-2.3-3.3-4.4-5.5-5.9c-0.9,7.6-13.8,6.9-14.9-1.9
			c-2.3-18.6-23.8-29.7-40-33.8c-17.3-4.3-37.7-3.1-54.4,3.3c-26.7,10.2-65.9,45-92.8,17.8c-7.9,7.9,3.3,12.8,3.8,21.3
			c1.6-1.2,3.2-2.3,5.1-3.3C198.3,67.8,205.8,80.7,197.3,85.1z"/>
		<path class="st4" d="M396.2,251.8c2.2-1.1,4.3-2.2,6.2-3.8c2.3-1.9,4.3-4,6.2-6.2c1.6-2.2,3.1-4.6,4.3-7c0,0,0.4-0.8,0.5-1.1
			c1.1-2.6,1.9-5.4,2.3-8.2c0.3-2.1,0.1-4.2,0.1-6.2c-0.4-1.8-0.8-3.5-1.5-5.3c-0.7-1.5-1.4-2.6-2.3-3.9c-1.7-2.5-4.7-3.8-6.2-6.4
			c-3.3,8.7-9.9,14.9-22,11.9c0,0,0-4,0-8.2c-4,0.1-8,0.2-12,0.3c-5.5,37.7-57.9,35.1-67.4,1.3c-5.9,0-11.9,0-17.8,0
			c-2.2,7.9-5.4,15.8-11.6,21.3c-18.8,16.3-52.7,3.5-56.5-21c-5.3-1.9-13.7-1-17.1-6c-0.6,0.8-1.2,1.6-2,2.4
			c-9.8,2.5-11.2-1.2-10.6-6.1c-1.5,1.2-3.5,1.8-5.9,1.3c-1.5,0.7-3.4,0.9-5.1,0.6c0,0,0,0,0,0c-0.3,0.4-0.9,1.1-1.3,1.6
			c-0.6,0.9-1.1,1.9-1.6,2.8c-1.2,2.8-1.8,5.6-2.3,8.5c-0.7,4.7-0.5,9.3-0.1,14c0.4,1.7,0.6,3.5,1.3,5.1
			c4.7,10.1,10.7,22.3,22.5,24.9c3.6-1,7.6,0.4,8.4,5.1c4.1,22.7,8.8,46.1,20.2,66.4c20.4,37.7,70,57.2,107.4,31.9
			c31.9-20.3,46.7-58.7,46.8-95.3c0-7.7,9.4-9.2,13.3-4.7c0.2-0.2,0.3-0.3,0.5-0.4C391.9,257.8,392.9,253.4,396.2,251.8z
			 M287.6,248.3c0.5-7.1,1.1-14.1,1.6-21.2c0.3-4.2,3.2-7.3,7.5-7.5c3.8-0.2,7.8,3.6,7.5,7.5c-0.6,8.1-1.2,16.2-1.9,24.3
			C300.9,263.2,284.7,259.8,287.6,248.3z M325,311.2c-18.6,7.8-40.1,7.7-58.5-0.9c-8.2-5.1-1.6-17.3,7.5-12.9
			c15.4,6.8,31.5,5.6,46.9-0.6c3.8-1.5,8.2,1.7,9.2,5.2C331.4,306.3,328.8,309.7,325,311.2z"/>
		<path class="st3" d="M187.6,428c-15.3,14.5-36.5,20.9-55.7,28.4c-15.7,5.5-32.5,7.8-46.5,17.3c-43,32-51.6,101.3-71.4,148.9
			c42.5,0,84.9,0.5,127.4,0.3c7.6-56,18.1-112.2,33.1-166.7c2.1-7.7,12.5-6.2,14.4-0.2c1.2-1,2.4-2,3.6-3.1c7-17,14-34,21-51
			l-25.4,16.4C190,421.2,190.4,424.9,187.6,428z"/>
		<path class="st4" d="M189,460.2c-14.6,53.1-25.2,108-32.6,162.7c24.6,0,49.2,0,73.7,0c5.7-43.4,9.7-87.2,16.3-130.4
			c-3.3-11.4-8.6-21.9-17.7-29.6c-7.7-8.5,8.4-19.9,12.9-26.7c2.1-2.6,4.6-5.5,5.7-8.7c-4.9-5.9-11.8-9.7-15-17
			c-1.1-2.4-2.2-4.7-3.4-7c-8.2,19.9-16.4,39.8-24.5,59.7c-1.5,3.7-4.9,6.4-9.2,5.2c-3.5-1-6.8-5.4-5.2-9.2c0.9-2.1,1.7-4.2,2.6-6.3
			c-1.2,1-2.4,2.1-3.6,3.1C189.3,457.3,189.4,458.7,189,460.2z"/>
		<path class="st6" d="M294.8,258.8c4.3-0.2,7.1-3.3,7.5-7.5c0.5-7.1,1.1-14.1,1.6-21.2c1.2-5.1-1.6-10.5-7.2-10.5
			c-4.3,0.2-7.1,3.3-7.5,7.5c-0.5,7.1-1.1,14.1-1.6,21.2C286.3,253.4,289.2,258.8,294.8,258.8z"/>
		<path class="st6" d="M321,296.8c-15.4,6.2-31.6,7.3-46.9,0.6c-3.7-1.6-8-1.1-10.2,2.7c-1.9,3.2-1,8.6,2.7,10.2
			c18.3,8.6,39.8,8.8,58.5,0.9c3.7-1.5,6.4-5,5.2-9.2C329.2,298.5,324.8,295.3,321,296.8z"/>
		<path class="st6" d="M253.6,195.7c-9.6,0-9.6,14.9,0,14.9C263.2,210.6,263.2,195.7,253.6,195.7z"/>
		<path class="st6" d="M336.6,195.7c-9.6,0-9.6,14.9,0,14.9C346.2,210.6,346.2,195.7,336.6,195.7z"/>
		<path class="st6" d="M365.9,351.2c0.3,5.4-0.6,10.9,0.4,16.2c-19.3,16-39.5,30.1-61.2,42.4c-2,0.2-3.9,1.2-5.1,2.8
			c-1.7,1.2-2.6,3.1-2.8,5.1c-8.3,15.6-16.6,31.2-24.9,46.8c-3,5.7-8.2,12.5-1.2,17.5c3.4,2,8.3,0.9,10.2-2.7
			c9.9-18.6,19.8-37.2,29.6-55.8c1.4-0.7,2.7-1.4,4.1-2.2c5.6,16.7,11.2,33.3,16.8,50c1.8,5.3,8.3,7.3,12.5,3.3
			c7.4-7,14.6-14.2,21.9-21.4c11.1-11.1,22.4-22.2,32.2-34.4c2.5-3.2,3.1-7.5,0-10.6c-2.6-2.6-8-3.2-10.6,0
			c-13.8,17-29.9,32.1-45.5,47.4c-4.3-12.8-8.6-25.6-12.9-38.4c-0.5-1.4-1.2-2.4-2.1-3.2c21.2-15,44.7-28.5,61.2-48.9
			c3.2-5.3-1.3-11.9-7.6-11c0-8.8,0-17.6,0-26.4c9.2-19.1,13.5-40.3,13.5-61.5c0-2-0.6-3.5-1.6-4.7c-3.9-4.5-13.3-3-13.3,4.7
			c2.1,56.3-44.5,123.2-106.7,103.3c-46.1-15-61.1-62.9-67.8-106.3c-0.8-4.7-4.8-6.1-8.4-5.1c-11.8-2.6-17.8-14.7-22.5-24.9
			c-0.7-1.6-1-3.4-1.3-5.1c-0.4-4.7-0.6-9.3,0.1-14c0.5-3,1.1-5.7,2.3-8.5c0.5-1,1-1.9,1.6-2.8c0.4-0.5,1-1.2,1.3-1.6c0,0,0,0,0,0
			c1.8,0.4,3.6,0.2,5.1-0.6c9.5,2.1,13-13.4,3-14.6c-1.1-15.4-2.3-30.7-3.2-46.1c-1-17.6-4.4-45.1,14.4-55c8.5-4.5,1-17.4-7.5-12.9
			c-21.5,11.2-23.3,38.5-22.2,60.5c0.8,18.4,2.3,36.9,3.7,55.3c-13.7,8.5-14.8,27.5-13.3,42.1c3.6,17.4,15.3,37.2,33.5,42.1
			c5.6,30,13.7,61.7,35.2,84.5C267,400.6,329.3,396.6,365.9,351.2z"/>
		<path class="st6" d="M384,87c13.6,10,22.8,25.5,21.3,42.8c-0.4,20.3-5,40.2-5.5,60.6c-0.1,4.2,2.7,6.6,5.9,7.1
			c-0.8,2-0.8,4.4,0.2,6.2c1.5,2.5,4.5,3.9,6.2,6.4c0.9,1.3,1.6,2.4,2.3,3.9c0.7,1.8,1.1,3.5,1.5,5.3c0.1,2.1,0.2,4.2-0.1,6.2
			c-0.5,2.8-1.2,5.6-2.3,8.2c-0.1,0.3-0.5,1.1-0.5,1.1c-1.2,2.5-2.6,4.8-4.3,7c-1.9,2.3-3.9,4.4-6.2,6.2c-2,1.5-4,2.7-6.2,3.8
			c-8.2,5.1-1.4,17.4,7.5,12.9c26.1-11.7,39.9-56,10.4-71.6c1.5-22.1,5.9-44.5,6-66.7c-0.3-20.6-9.9-37.1-25.7-49.9
			C388,70.5,376.2,80.4,384,87z"/>
		<path class="st6" d="M273.7,36.4c16.7-6.4,37.1-7.7,54.4-3.3c16.2,4.1,37.7,15.2,40,33.8c1.1,8.8,14.1,9.5,14.9,1.9
			c-3.2-43.5-56.8-56.5-92.5-51.6c-19.1,2.5-34.6,11-51.2,20.1c-14.4,7.9-36.5,19.7-49.9,4.3c-6.3-7.3-16.8,3.3-10.6,10.6
			C205.2,82.9,246.4,47.1,273.7,36.4z"/>
		<path class="st6" d="M206.1,206.4c4.2,0.9,8.4,1.8,12.6,2.8c3.7,24.5,37.6,37.3,56.5,21c6.2-5.6,9.3-13.4,11.6-21.3
			c5.9,0,11.9,0,17.8,0c9.5,33.8,61.9,36.4,67.4-1.3c5.2-0.1,10.5-0.3,15.7-0.4c8.6-0.2,9.5-12.3,2.6-14.5
			c0.4-10.1,0.2-20.3-0.9-30.4c-0.7-6.5-1.5-13.6-5.2-19.2c-2-3-4.6-5.3-6.9-8c-1.3-1.8-2.6-4.4-3.3-6.8c-3.1-9.5-17.1-5.4-14.3,4.2
			c2.3,7.1,6.1,12.6,11.4,17.8c0,0.1,0,0,0.1,0.1c0.2,0.2,0.3,0.5,0.5,0.8c0.3,0.5,0.5,1,0.8,1.5c1,2.7,1.5,5.6,1.9,8.4
			c1.2,10.4,1.3,21,1.1,31.5c-6.4,0.4-17.8-1.7-18,7.7c0.2,4.1,0,5.8-1.5,9.9c-5.1,14.9-28.3,12.1-34.8-0.3
			c-1.7-2.9-2.5-5.9-3.1-9.2c-0.6-3.7-3.3-6.8-7.4-6.8c-9.9,0-19.8,0-29.7,0c-3.2,0-6.4,2.3-7.2,5.5c-1.5,6.3-3,13.3-7.3,18.4
			c-10.2,10.8-32.1,2.4-33.2-12.5c0.2-3.9-1.3-8.5-5.6-9.5c-6.2-1.3-12.4-2.9-18.6-4c0,0,0,0,0,0c0.4-0.5,0.8-1,1.2-1.5
			c0.7-1.2,1-2.4,1-3.8c0.8-6.1,1.6-12.3,2.5-18.4c27.1-2.5,49.7-20.3,62.9-43.5c7.6-12.3,16.6-23.3,32.2-24.5
			c14.2-1.1,26.7,6.9,33.1,19.3c4.7,8.7,17.3,0.6,12.9-7.5c-14.8-28.6-53.5-35.6-77-13.4c-11.5,10.8-16.7,26.3-28,37.2
			c-11.2,10.8-26.2,17.2-41.7,18c-4.2,0.2-6.6,3.2-7.1,6.5c-0.3,0.3-0.5,0.7-0.8,1c-0.7,1.2-1,2.4-1,3.8c-1,7.2-1.9,14.4-2.9,21.6
			c-0.2,3.7,3.1,7.2,6.8,7.4C199.3,197.9,200.1,205.2,206.1,206.4z"/>
		<path class="st6" d="M461.1,613.1c16.6-31.9,45.6-89.1,83.1-97.5c9.9,0.1,10.9-15.8,0.8-15c-18,1.5-33,13.2-45,25.8
			c-21.8,22.8-37.7,51.2-51.8,79.2C443.9,614.1,456.8,621.7,461.1,613.1z"/>
		<path class="st6" d="M607,629.8c-0.2-35.9-6-71.4-16-105.9c-6.7-29.4-36.2-51.1-63.1-61.4c-23.1-8.1-46.2-16.6-68-27.9
			c-21.1-10.9-48.1-26.5-53.9-51.5c-1.5-6.8-9.8-6.6-13.2-2.1c-1.3,1.7-1.7,3.9-1.2,6c13.8,51.1,91.9,74.8,136.7,91.4
			c9.4,4.7,18.2,10.7,26.3,17.4c8.2,6.9,17.9,15.5,20.7,26.3c9,33,15.9,66.5,16.5,100.8c-73.2,0-146.3,0-219.4,0
			c9.4-62,21.6-123.4,39-183.6c2.7-9.3-11.8-13.2-14.4-4c-17.8,61.6-30.2,124.3-39.7,187.6c-37.4,0-74.9,0-112.3,0
			c4.8-39.3,9.5-78.6,14.3-117.9c8.5-2.7,3.2-10.6,1.4-16.6c-3.8-11.5-8.2-23-17-31.6c8.2-10.1,23.3-22.2,17.6-34.8
			c-3.1-6.8-10-10-14.4-15.7c-3.8-7.1-7.8-15.1-11.5-22.5c-1.6-3.8-4.9-5.5-8-5.2c-2.6,0.3-5.1,2-6.4,5.2c-2.5,6.1-5,12.2-7.5,18.3
			c-7.8,19.1-15.7,38.2-23.5,57.3c-1.5,3.8,1.7,8.2,5.2,9.2c4.3,1.2,7.7-1.5,9.2-5.2c8.2-19.9,16.4-39.8,24.5-59.7
			c1.2,2.3,2.4,4.6,3.4,7c3.2,7.2,10.1,11.1,15,17c-1,3.2-3.5,6.1-5.7,8.7c-4.5,6.8-20.6,18.2-13,26.7c9.1,7.8,14.4,18.3,17.7,29.6
			c-6.6,43.2-10.6,87-16.3,130.4c-24.6,0-49.2,0-73.7,0c7.4-54.7,18-109.6,32.6-162.7c2.7-8.6-11.6-13.6-14.4-4
			c-15,54.4-25.6,110.6-33.1,166.7c-42.5,0.2-84.9-0.3-127.4-0.3c19.8-47.5,28.4-116.9,71.4-148.9c14-9.5,30.8-11.8,46.5-17.3
			c11-3.9,21.9-8.2,32.4-13.3c7.6-4.2,31.2-13.6,23.8-24.6c-2.5-3.4-7.4-5-11.1-1c-13.2,12.1-31.3,17.5-47.7,24.1
			c-16.4,5.9-34.1,8.4-49.1,17.8c-53.6,36.4-57.6,109.1-82.4,164c-7.2,2.2-6.4,14.6,2.3,14.6c19.9,0,39.8,0,59.7,0
			c47.4,0,94.8,0,142.2,0c131.4-0.3,262.9,0.4,394.3,0c5.2,0.6,8.7-3.7,8.2-8H607z M247.4,427.4C247,426.7,247.8,426.1,247.4,427.4
			L247.4,427.4z"/>
	</g>
</g>
</svg>
