<?xml version="1.0" encoding="UTF-8"?>
<svg id="_レイヤー_2" data-name="レイヤー 2" xmlns="http://www.w3.org/2000/svg" xmlns:xlink="http://www.w3.org/1999/xlink" viewBox="0 0 600 600">
  <defs>
    <style>
      .cls-1 {
        clip-path: url(#clippath);
      }

      .cls-2 {
        fill: #f5f5f5;
      }

      .cls-3 {
        fill: #fff;
      }

      .cls-4 {
        fill: #ffe033;
      }

      .cls-5 {
        fill: #323232;
      }

      .cls-6 {
        fill: #6ec878;
      }

      .cls-7 {
        fill: #5a5a5a;
      }
    </style>
    <clipPath id="clippath">
      <circle class="cls-4" cx="300" cy="300" r="300"/>
    </clipPath>
  </defs>
  <g id="_レイヤー_1-2" data-name="レイヤー 1">
    <g>
      <circle class="cls-4" cx="300" cy="300" r="300"/>
      <g class="cls-1">
        <g>
          <path class="cls-3" d="m574.79,642.3c-6.92-39.27-13.1-79.99-29.91-116.47-10.39-21.8-34.18-31.77-53.52-44.22-25.07-15.2-51.75-27.33-77.81-40.63-23.04-11.6-42.4-31.11-48.52-56.67-40.12,40.85-105.79,34.57-141.57-10.06-.19,3.1-.59,6.35-1.32,9.6,4.7.08,9.76,5.41,7.18,11.26-24.03,55.34-83.48,70.3-134.51,90.5-20.46,8.58-41.35,19.97-52.68,39.88-5.05,8.88-7.36,18.67-9.61,28.54-6.35,28.3-11.8,56.79-17.27,85.27,118.22-.1,236.47.24,354.71.09,61.2,0,122.4,0,183.61,0,4.5,0,6.84,3.31,7.07,6.8h15.17c-.63-1.1-.79-2.59-1.01-3.88Zm-179.4-187.71c-52.29,33.1-135.55,32.98-186.78-2.27-7.56-5.39-.38-18.22,7.43-12.72,46.83,32.51,124,32.69,171.91,2.27,8.29-5.28,15.09,7.96,7.43,12.71Z"/>
          <path class="cls-6" d="m182.05,227.52s-.02,0-.03,0c-.79.03-.41.06.03,0Z"/>
          <path class="cls-7" d="m191.69,222.82c2.61,4.85,3.03,12.4,6.13,16.86-.5-6.42-2.79-14.96,2.2-20.01-.38-3.2,1.13-6.45,5.23-7.31,26.54-5.89,31.3-37.19,41.28-58.25,8.34-21.52,29.7-35.32,51.34-22.47.49-.15.99-.32,1.48-.49-1.35-3.1-1.01-7.1,2.45-9.61,12.58-9.14,28.32-4.17,39.36,4.91,29.78,22.53,18.33,87.41,55.18,97.42,2.91.66,4.51,2.52,5.06,4.69,2.16-1.68,4.28-3.61,6.58-5.5-3-2.52-4.24-7.06-.55-10.52,28.56-25.92,10.57-66.46-7.97-92.84-9.96-14.71-22.13-27.16-33.63-40.59-5.52-6.45-10.42-13.17-17.56-17.97-18.4-13.35-45.67-12.52-59.5,6.85-1.79,2.31-5.22,2.6-7.9,1.57-.51,4.12-3.87,7.68-8.79,5.77-28.52-11.08-51.46,13.45-68.05,33.57-10.1,12.24-21.89,26.66-23.91,42.97-2.07,16.7,4.38,33.79,5.86,50.35.45,5.05-3.55,7.35-7.5,6.99-.15,1.44-.23,2.83-.19,4.16,7.9-2.13,15.65.39,13.42,9.44Z"/>
          <path class="cls-3" d="m407.96,223.05c-2.3,1.89-4.42,3.82-6.58,5.5,1.18,4.73-2.65,10.94-8.97,9.5-25.76-5.86-34.41-32.93-40.71-55.38-3.21-11.42-5.86-23.43-11.33-34.03-5.39-10.45-19.43-22.91-31.15-14.39-4.19,3.04-8.26.62-9.88-3.1-.49.17-.98.34-1.48.49,5.62,6.44-1.46,15.38-9.04,11.54-23.01-10.48-31.65,23.7-37.72,38.58-7.71,18.92-18.34,38.29-39.15,44.07-.32,3.42-.26,6.86.13,10.27.44,2.72,1.06,5.4,1.93,8.02,1.3,3.91-1.51,7.88-5.14,9.06-8.14,2.11-10.2-7.44-11.05-13.49-3.1-4.46-3.52-12-6.13-16.86-1.09,4.09-5.4,4.92-9.57,4.7-.93.14-1.81.48-2.71.73-.55.09-3.16,2.37-1.44.75-.6.59-1.16,1.04-1.73,1.69-.51.87-1.11,1.7-1.51,2.62-.63,1.65-.99,3.36-1.32,5.08-.31,3.1-.25,6.23.11,9.32.64,4.65,2.02,9.28,3.69,13.65,1.72,3.9,3.88,7.79,6.37,11.17,1.7,2.14,3.64,4.1,5.71,5.87,1.37.92,2.86,1.8,4.3,2.59.73.19,1.48.52,2.22.68-.1-1.25-.22-2.51-.32-3.76-.73-9.47,14-9.39,14.72,0,2.03,26.48,5.11,55.43,18.85,78.77,21.94,37.02,74.45,53.43,111.4,28.86,38.73-23.98,43.19-72.54,46.11-113.73.67-9.41,15.39-9.46,14.72,0-.13,1.88-.28,3.74-.43,5.62,3.71-3.06,7.11-6.44,10.06-10.25,2.42-3.26,4.58-6.72,6.23-10.44.86-2.06,1.48-4.17,1.91-6.35.08-.4.14-2.18.09-.44.09-1.37.21-2.8.04-4.16-.22-1.08-.48-2.13-.85-3.17-.09-.19-.18-.37-.28-.55-.32-.51-.62-1.04-.93-1.54-.07-.1-.14-.2-.21-.3-.03-.03-.13-.14-.37-.43-5.5-3.8-4.26-12.86,2.67-13.82-.59-.96-1.23-1.86-1.83-2.71-3.15,2.6-6.91,1.9-9.43-.22Zm-112.54,57.92c.24-7.61.47-15.21.71-22.82.13-4.13,3.27-7.18,7.36-7.36,3.89-.17,7.48,3.51,7.36,7.36-.27,8.7-.54,17.4-.81,26.11-1.54,11.76-16.99,8.55-14.62-3.28Zm-37.03-35.23c-9.49,0-9.48-14.72,0-14.72s9.48,14.72,0,14.72Zm70.46,92.74c-18.48,6.41-38.35,5.87-56.8-.33-3.78-1.27-6.25-5.04-5.14-9.06,1.01-3.68,5.29-6.41,9.06-5.14,16.21,5.45,32.74,5.96,48.97.33,9.38-2.28,13.17,11.08,3.91,14.2Zm14.3-92.74c-9.49,0-9.48-14.72,0-14.72s9.48,14.72,0,14.72Z"/>
          <path class="cls-5" d="m258.4,231.01c-9.48,0-9.49,14.72,0,14.72s9.49-14.72,0-14.72Z"/>
          <path class="cls-5" d="m343.16,231.01c-9.48,0-9.49,14.72,0,14.72s9.49-14.72,0-14.72Z"/>
          <path class="cls-5" d="m324.94,324.27c-16.23,5.63-32.77,5.11-48.97-.33-3.77-1.27-8.05,1.46-9.06,5.14-1.1,4.02,1.36,7.79,5.14,9.06,18.46,6.2,38.32,6.74,56.8.33,3.76-1.3,6.24-5.04,5.14-9.06-1-3.65-5.28-6.45-9.06-5.14Z"/>
          <path class="cls-5" d="m302.69,291.61c4.09-.18,7.23-3.23,7.36-7.36.24-7.61.47-15.21.71-22.82.9-4.95-1.53-10.75-7.26-10.65-4.09.18-7.23,3.23-7.36,7.36-.24,7.61-.47,15.21-.71,22.82-.9,4.95,1.53,10.75,7.26,10.65Z"/>
          <path class="cls-5" d="m203.2,252.43c5.28,3.37,12.82-2.23,10.82-8.32-.87-2.62-1.49-5.3-1.93-8.02-.39-3.42-.45-6.85-.13-10.27,20.8-5.79,31.43-25.16,39.15-44.07,6.07-14.88,14.72-49.06,37.72-38.58,8.75,4.35,15.58-7.53,7.43-12.72-21.85-10.51-41.56,2.7-49.73,23.65-9.98,21.06-14.75,52.37-41.28,58.25-4.1.86-5.61,4.11-5.23,7.31-5.75,3.79-2.76,29.73,3.18,32.76Z"/>
          <path class="cls-5" d="m309.22,134.24c11.73-8.52,25.77,3.95,31.15,14.39,15.26,30.18,12.54,78.84,52.04,89.42,9.31,2.08,13.08-12.18,3.91-14.2-36.8-9.94-25.45-74.95-55.18-97.42-11.04-9.08-26.77-14.05-39.35-4.91-7.34,4.99-.71,18.33,7.43,12.71Z"/>
          <path class="cls-5" d="m185.96,202.22c-1.48-16.56-7.93-33.65-5.86-50.35,2.02-16.31,13.81-30.73,23.91-42.97,16.59-20.12,39.53-44.65,68.05-33.57,4.92,1.91,8.27-1.65,8.79-5.77,2.69,1.02,6.11.73,7.9-1.57,13.84-19.36,41.09-20.21,59.5-6.85,7.14,4.8,12.03,11.52,17.56,17.97,11.5,13.44,23.67,25.89,33.63,40.59,18.54,26.37,36.53,66.94,7.97,92.84-3.69,3.46-2.44,7.99.56,10.52,2.63,2.3,6.76,2.75,9.86-.1,14.31-13.43,21.29-31.78,19.11-51.33-5.03-39.97-32.8-71.62-58.63-100.54-11.68-14.79-25.85-28.64-45.07-32.33-21.24-4.66-46.25,2.62-56.74,22.63-33.12-13.5-61.95,11.91-81.82,35.81-11.62,13.95-24.32,29.52-28.23,47.71-4.14,19.29,3.09,38.21,4.79,57.32.55,8.93,15.38,9.81,14.72,0Z"/>
          <polyline class="cls-2" points="191.57 429.44 225.53 458.36 287.27 474.32 347.8 467.34 375.93 454.09 420.64 438.26 529.8 497.27 556.74 543.16 587.65 646.18 11.12 640.54 28.39 555.27 45.96 503.78 86.86 478.31"/>
          <path class="cls-5" d="m589.31,640.28c-5.52-37.56-12.81-76.65-27.28-111.86-3.73-9.08-7.94-18.33-14.6-25.69-8.16-9.01-19.59-15.81-29.74-22.3-24.73-15.81-50.67-29.66-77.12-42.34-34.14-15.51-55.82-28.59-64.12-67.52,15.2-22.43,19.97-50.31,22.94-76.52,1.4.08,2.82-.1,4.12-.8,20.24-10.98,43.37-45.1,22.05-65.26-8.47-7.09-17.76,5.2-9.02,11.82.24.29.34.4.37.43.07.1.14.2.21.3.32.51.61,1.04.93,1.54.1.18.19.37.28.55.37,1.04.63,2.09.85,3.17.17,1.36.05,2.79-.04,4.16.02-.63.02-.8.01-.74-.15,2.44-1.06,5.15-2.01,7.53-1.65,3.71-3.81,7.18-6.23,10.44-2.95,3.81-6.35,7.19-10.06,10.25.14-1.87.29-3.74.43-5.62.67-9.46-14.06-9.41-14.72,0-2.91,41.19-7.38,89.75-46.11,113.73-36.95,24.56-89.46,8.16-111.4-28.86-13.74-23.34-16.82-52.29-18.85-78.77-.72-9.39-15.45-9.47-14.72,0,.1,1.25.22,2.51.32,3.76-.74-.16-1.49-.49-2.22-.68-1.44-.8-2.93-1.67-4.3-2.59-2.08-1.77-4.01-3.73-5.71-5.87-2.49-3.37-4.65-7.27-6.37-11.17-1.68-4.37-3.05-9-3.69-13.65-.36-3.09-.42-6.22-.11-9.32.34-1.72.69-3.44,1.32-5.08.4-.93,1-1.76,1.51-2.62.57-.66,1.14-1.1,1.73-1.69-1.72,1.62.88-.66,1.44-.75.9-.24,1.78-.59,2.71-.73,4.17.22,8.49-.62,9.57-4.7,3.44-15.99-20.7-10.2-26.4-1.89-4.83,5.87-6.68,13.34-6.81,20.83-.02,22.94,13.66,52.04,38.78,54.94,3.36,27.09,8.87,55.63,26.18,77.54,35.77,44.64,101.48,50.91,141.57,10.06,6.13,25.58,25.47,45.06,48.52,56.67,26.06,13.3,52.74,25.44,77.81,40.63,19.35,12.45,43.13,22.41,53.52,44.21,17.69,37.66,22.81,80.02,30.92,120.35h11.85c1.32-1.57,2-3.75,1.66-5.89ZM182.02,227.52s.02,0,.03,0c-.45.06-.83.03-.03,0Z"/>
          <path class="cls-5" d="m553.56,639.38c-179.44.08-358.9-.07-538.32-.09,5.46-28.48,10.92-56.97,17.27-85.27,2.25-9.86,4.56-19.66,9.61-28.54,11.33-19.91,32.22-31.3,52.68-39.88,23.61-9.9,48.26-17.18,71.26-28.55,27.26-13.56,50.69-33.61,63.24-61.96,3.78-8.43-8.73-16.16-12.71-7.43-11.01,24.99-30.45,42.46-54.39,54.87-42.85,22.88-98.36,28.09-128.98,69.52-13.04,18.43-16.04,42.51-20.5,64.11-4.4,21.33-8.59,42.71-12.63,64.11-.43,2.12.17,4.32,1.45,5.89h1.72c-.26,3.86,2.08,7.93,7.07,7.93h183.61c119.56-.27,239.18.41,358.7,0,9.97,1.05,10.99-14.63.93-14.73Z"/>
          <path class="cls-5" d="m387.95,441.87c-47.89,30.41-125.07,30.25-171.91-2.27-7.82-5.51-14.99,7.32-7.43,12.71,51.22,35.24,134.47,35.38,186.78,2.27,7.66-4.75.86-18-7.43-12.72Z"/>
        </g>
      </g>
    </g>
  </g>
</svg>