<?xml version="1.0" encoding="utf-8"?>
<!-- Generator: Adobe Illustrator 13.0.0, SVG Export Plug-In . SVG Version: 6.00 Build 14948)  -->
<!DOCTYPE svg PUBLIC "-//W3C//DTD SVG 1.1//EN" "http://www.w3.org/Graphics/SVG/1.1/DTD/svg11.dtd">
<svg version="1.1" id="Layer_1" xmlns="http://www.w3.org/2000/svg" xmlns:xlink="http://www.w3.org/1999/xlink" x="0px" y="0px"
	 width="400px" height="400px" viewBox="0 0 400 400" enable-background="new 0 0 400 400" xml:space="preserve">
<g>
	<path fill="#64798A" d="M287.1,358.2c-24.9,0-48-7.6-67.1-20.7c-7,11.7-11,25.3-11,39.9c0,43.2,35,1.6,78.1,1.6
		c43.2,0,78.1,41.6,78.1-1.6c0-14.6-4.1-28.2-11-39.9C335.1,350.6,311.9,358.2,287.1,358.2z"/>
	<path fill="#3A556A" d="M354.2,337.5c-1.7-2.8-3.5-5.5-5.5-8c-17.6,12-38.8,19-61.6,19c-22.9,0-44.1-7-61.6-19
		c-2,2.5-3.8,5.2-5.5,8c19.1,13.1,42.3,20.7,67.1,20.7C311.9,358.2,335.1,350.6,354.2,337.5z"/>
	<path fill="#EBF0F3" d="M348.7,329.5c29-19.7,48.1-53,48.1-90.8c0-60.6-49.1-109.7-109.7-109.7c-60.6,0-109.7,49.1-109.7,109.7
		c0,37.7,19.1,71,48.1,90.8c17.6,12,38.8,19,61.6,19C309.9,348.5,331.2,341.5,348.7,329.5z M287.1,147c4.7,0,8.5,3.8,8.5,8.5
		c0,4.7-3.8,8.5-8.5,8.5s-8.5-3.8-8.5-8.5C278.6,150.8,282.4,147,287.1,147z M220,238.8c0-37.1,30-67.1,67.1-67.1
		c37.1,0,67.1,30,67.1,67.1c0,0.8,0,1.6-0.1,2.4c0,0.8,0.1,1.6,0.1,2.4c0,37.1-30,67.1-67.1,67.1c-37.1,0-67.1-30-67.1-67.1
		c0-0.8,0-1.6,0.1-2.4C220,240.4,220,239.6,220,238.8z"/>
	<path fill="#D5D6DB" d="M287.1,310.8c37.1,0,67.1-30,67.1-67.1c0-0.8,0-1.6-0.1-2.4c-1.3,35.9-30.8,64.7-67.1,64.7
		c-36.3,0-65.8-28.7-67.1-64.7c0,0.8-0.1,1.6-0.1,2.4C220,280.7,250,310.8,287.1,310.8z"/>
	<path fill="#E1E6E9" d="M287.1,305.9c36.3,0,65.8-28.7,67.1-64.7c0-0.8,0.1-1.6,0.1-2.4c0-37.1-30-67.1-67.1-67.1
		s-67.1,30-67.1,67.1c0,0.8,0,1.6,0.1,2.4C221.3,277.2,250.8,305.9,287.1,305.9z M287.1,190.5c26.7,0,48.3,21.6,48.3,48.3
		c0,26.7-21.6,48.3-48.3,48.3c-26.7,0-48.3-21.6-48.3-48.3C238.8,212.1,260.4,190.5,287.1,190.5z"/>
	<g>
		<path fill="#64798A" d="M287.1,287.1c26.7,0,48.3-21.6,48.3-48.3c0-26.7-21.6-48.3-48.3-48.3c-26.7,0-48.3,21.6-48.3,48.3
			C238.8,265.5,260.4,287.1,287.1,287.1z M287.1,204.2c19.1,0,34.6,15.5,34.6,34.6c0,19.1-15.5,34.6-34.6,34.6
			c-19.1,0-34.6-15.5-34.6-34.6C252.5,219.7,268,204.2,287.1,204.2z"/>
		<path fill="#64798A" d="M287.1,266.1c15.1,0,27.3-12.3,27.3-27.3c0-15.1-12.3-27.3-27.3-27.3c-15.1,0-27.3,12.3-27.3,27.3
			C259.8,253.8,272,266.1,287.1,266.1z M287.1,226.4c6.8,0,12.4,5.5,12.4,12.4c0,6.8-5.5,12.4-12.4,12.4c-6.8,0-12.4-5.5-12.4-12.4
			C274.7,232,280.3,226.4,287.1,226.4z M271.5,223.1c2.7-2.5,6.2-3,7.9-1.2c1.7,1.8,0.8,5.3-1.9,7.8c-2.7,2.5-6.2,3-7.9,1.2
			C268,229.1,268.8,225.6,271.5,223.1z"/>
	</g>
	<circle fill="#27A2DB" cx="287.1" cy="238.8" r="12.4"/>
	<circle fill="#E56353" cx="287.1" cy="155.5" r="8.5"/>
	
		<ellipse transform="matrix(-0.7368 0.6761 -0.6761 -0.7368 629.9199 207.6359)" fill="#FFFFFF" cx="274.5" cy="226.4" rx="6.6" ry="4.4"/>
	<path fill="#3A556A" d="M287.1,273.4c19.1,0,34.6-15.5,34.6-34.6s-15.5-34.6-34.6-34.6c-19.1,0-34.6,15.5-34.6,34.6
		C252.5,257.9,268,273.4,287.1,273.4z M287.1,211.5c15.1,0,27.3,12.3,27.3,27.3c0,15.1-12.3,27.3-27.3,27.3
		c-15.1,0-27.3-12.3-27.3-27.3C259.8,223.7,272,211.5,287.1,211.5z"/>
</g>
<g>
	<path fill="#415A6B" d="M24.2,149C17.1,113.8,27,75.9,53.9,48.4c43.4-42.9,112.7-42.9,156.1,0c27.5,27.5,36.8,65.4,29.7,100.6h13.7
		c7.1-38.5-3.8-80.3-34.1-110C171-9.3,92.4-9.3,44.6,39C14.9,68.7,3.4,110.5,10.5,149H24.2L24.2,149z"/>
	<path fill="#F3705A" d="M209.5,48.9c-1.1,1.1-2.7,1.1-3.8,0C185.9,29.7,160,19.2,132,19.2c-28,0-53.9,10.4-74.2,29.7
		c-1.1,0.6-2.2,0.6-3.3,0L44.6,39c-1.1-1.1-1.1-2.7,0-3.8C68.2,12.1,99,0,132,0c33,0,63.8,12.6,87.4,35.2c1.1,1.1,1.1,2.7,0,3.8
		L209.5,48.9z"/>
	<g>
		<path fill="#415A6B" d="M239.8,170.4c-0.5,35.2-26.9,65.4-61.6,70.9l-35.7,5.5v8.2l37.4-5.5c39-5.5,68.2-39.6,68.7-78.6h-8.8
			V170.4L239.8,170.4z"/>
		
			<ellipse transform="matrix(-0.9933 0.1156 -0.1156 -0.9933 292.1706 486.6663)" fill="#415A6B" cx="132" cy="251.8" rx="15.9" ry="12.1"/>
	</g>
	<path fill="#F3705A" d="M34.1,114.9c-19.2,2.7-34.1,18.7-34.1,37.9c0,19.2,14.8,35.2,34.1,37.9V114.9z"/>
	<path fill="#E8EAE9" d="M58.9,104.5H44c-5.5,0-9.9,4.9-9.9,11v74.8c0,6,4.4,11,9.9,11h14.8c5.5,0,9.9-4.9,9.9-11v-74.8
		C68.8,109.4,64.4,104.5,58.9,104.5z"/>
	<path fill="#F3705A" d="M229.9,114.9c19.2,2.7,34.1,18.7,34.1,37.9c0,19.2-14.8,35.2-34.1,37.9V114.9z"/>
	<path fill="#E8EAE9" d="M205.1,104.5H220c5.5,0,9.9,4.9,9.9,11v74.8c0,6-4.4,11-9.9,11h-14.8c-5.5,0-9.9-4.9-9.9-11v-74.8
		C195.2,109.4,199.6,104.5,205.1,104.5z"/>
</g>
</svg>
