<?xml version="1.0" encoding="utf-8"?>
<!-- Generator: Adobe Illustrator 27.2.0, SVG Export Plug-In . SVG Version: 6.00 Build 0)  -->
<svg version="1.1" id="レイヤー_1" xmlns="http://www.w3.org/2000/svg" xmlns:xlink="http://www.w3.org/1999/xlink" x="0px"
	 y="0px" viewBox="0 0 600 600" style="enable-background:new 0 0 600 600;" xml:space="preserve">
<style type="text/css">
	.st0{fill:#FFE033;}
	.st1{clip-path:url(#SVGID_00000174581857240815458760000009985898002676713880_);}
	.st2{fill:#6EC878;}
	.st3{fill:#FFFFFF;}
	.st4{fill:#323232;}
</style>
<circle class="st0" cx="300" cy="300" r="300"/>
<g>
	<defs>
		<circle id="SVGID_1_" cx="300" cy="300" r="300"/>
	</defs>
	<clipPath id="SVGID_00000044872641591154373500000015035416564954922886_">
		<use xlink:href="#SVGID_1_"  style="overflow:visible;"/>
	</clipPath>
	<g style="clip-path:url(#SVGID_00000044872641591154373500000015035416564954922886_);">
		<path class="st2" d="M402.8,327.3c0.1-0.2-0.4,0.3-0.5,0.5C402.5,327.7,402.6,327.5,402.8,327.3z"/>
		<path class="st2" d="M402,328.2c0.1-0.1,0.2-0.2,0.3-0.3c0,0,0,0,0-0.1C402.2,328,402.1,328.1,402,328.2z"/>
		<path class="st2" d="M403.6,335.2c-0.1-0.1-0.2-0.2-0.3-0.3c0,0,0,0-0.1,0C403.3,335,403.5,335.1,403.6,335.2z"/>
		<path class="st2" d="M409,326.6c0.1,0.1,0.2,0.2,0.3,0.3c0,0,0,0,0.1,0C409.2,326.9,409.1,326.8,409,326.6z"/>
		<path class="st2" d="M402.7,334.4c-0.2-0.1,0.3,0.4,0.5,0.5C403.1,334.7,402.9,334.6,402.7,334.4
			C402.7,334.4,402.7,334.4,402.7,334.4z"/>
		<path class="st2" d="M402.4,334.1c0.1,0.1,0.3,0.3,0.3,0.3c0.1,0,0.3,0.2,0.6,0.5c0.3,0.2,0.6,0.3,0.9,0.5
			c0.5,0.2,0.9,0.3,1.4,0.4c0.5,0,0.9,0,1.4,0c0.5-0.1,1-0.2,1.4-0.4c0.3-0.2,0.7-0.3,1-0.6c0.1-0.1,0.3-0.3,0.3-0.3
			c0-0.1,0.2-0.3,0.5-0.6c0.2-0.3,0.3-0.6,0.5-0.9c0.2-0.6,0.4-1.2,0.5-1.8c0-0.1,0-0.2,0-0.4c0-0.1,0-0.2,0-0.4
			c-0.1-0.6-0.3-1.2-0.5-1.8c-0.2-0.3-0.3-0.7-0.6-1c-0.1-0.1-0.3-0.3-0.3-0.3c-0.1,0-0.3-0.2-0.6-0.5c-0.3-0.2-0.6-0.3-0.9-0.5
			c-0.5-0.2-0.9-0.3-1.4-0.4c-0.5,0-0.9,0-1.4,0c-0.5,0.1-1,0.2-1.4,0.4c-0.3,0.2-0.7,0.3-1,0.6c-0.1,0.1-0.3,0.3-0.3,0.3
			c0,0.1-0.2,0.3-0.5,0.6c-0.2,0.3-0.3,0.6-0.5,0.9c-0.2,0.5-0.3,0.9-0.4,1.4c0,0.5,0,0.9,0,1.4c0.1,0.5,0.2,1,0.4,1.4
			C402,333.4,402.1,333.7,402.4,334.1z"/>
		<path class="st2" d="M409.7,334.5c-0.1,0.2,0.4-0.3,0.5-0.5C410.1,334.1,409.9,334.3,409.7,334.5
			C409.8,334.5,409.7,334.5,409.7,334.5z"/>
		<path class="st2" d="M409.9,327.5c0.2,0.1-0.3-0.4-0.5-0.5C409.5,327.1,409.7,327.3,409.9,327.5z"/>
		<path class="st2" d="M410.6,333.6c-0.1,0.1-0.2,0.2-0.3,0.3c0,0,0,0,0,0.1C410.3,333.8,410.4,333.7,410.6,333.6z"/>
		<path class="st2" d="M133.2,415.3c-0.4,0.1-0.8,0.2-1.2,0.4c0.2,0.4,0.4,0.8,0.6,1.3C132.8,416.5,133,415.9,133.2,415.3z"/>
		<path class="st2" d="M173.4,520.3c-24.7,2.4-44.6-18.3-49.2-41.2c-3.7-18.5,0.2-36.4,5.7-53.8c-12.1,7.1-24.5,13.8-36.1,21.6
			c-43.6,31.4-57,108.6-61.1,159.3c17.8-0.3,35.7,0.2,53.5,0.2c-2.8-38.8-5.8-77.6-8.5-116.4c-0.7-9.6,14.3-9.6,15,0
			c2.8,38.8,5.7,77.6,8.5,116.5c35.1,0,70.3,0,105.4,0c-2.6-32.3-16.6-62.8-19.6-94.9c-2.2,0.8-4.3,1.6-6.5,2
			C179.9,516.8,177.5,519.8,173.4,520.3z"/>
		<path class="st2" d="M541.6,453c-0.4-0.4-0.7-0.8-0.9-1.3c-0.1,0.6-0.3,1.3-0.6,1.8C540.6,453.4,541.1,453.2,541.6,453z"/>
		<path class="st3" d="M184.3,190.9c-5.2,70.8-9.3,142.8-30.7,210.9c-6.8,21.4-17.1,42.9-15.8,65.9c1.1,19.3,14.1,39.6,35.6,37.5
			c5.4-0.5,7.8,4,7,8.3c2.2-0.4,4.3-1.2,6.5-2c0.6-2.5,2.3-4.4,4.4-5.4c-39-34.3-15.8-69.6-10.5-111c0.8-9.6,15.8-9.6,15,0
			c-1.8,22.4-12.4,44.2-11.7,66.8c0.5,17.3,12.8,33.2,28.7,39.5c0.4-1,1-2,2.1-2.9c31.1-28.1,14.7-73.9,7.6-109.1
			c-13.5-63.6-16.4-129.2-14.3-194.1c0.5-9.6,15.5-9.7,15,0c-3.2,49.2,0.9,98.5,5.8,147.4c4.1,52.2,42.4,122.4-2.5,165.5
			c0.6,1.6,0.8,3.3,0.4,4.8c-3.9,10.4-18,3-24.9,0c5.4,31.4,17.1,61.5,19.8,93.4c57.4,0,114.8,0,172.3,0c2.7-27.7,4.2-55.4,7.2-83.1
			c0.4-4.2,3.4-7.9,8-7.4c0.6-2.5,1.2-5,1.5-7.5c-3.3-3.8-2.7-10.6,3.2-12.7c23.9-8.1,38.9-29.1,43.5-53.3
			c8-42.3-9.2-86.1-18.7-126.8c-11.7-50.4-14.7-102.6-16.4-154.1c-0.2-5.8,5.1-8,9.4-6.9c-0.8-3.9-1.5-7.7-1.8-11.7
			c-4.2,1-9.6-1.3-9.8-7c-2.7-52.9-54.3-100-106.6-101c-7.4-0.1-9.1-9-5.1-13c-3.4-0.1-7,0-10.4,0.2c1.6,3.8,0.5,8.7-4.7,9.7
			c-60.3,12.2-107.2,69.3-106,130.9c0.2,8.6-11.7,9.5-14.4,2.7c-1.6,7.7-2.4,15.1-2.6,22.5C173.2,181.5,184.9,182.4,184.3,190.9z
			 M262.3,446.5c-9.6-2.4-5-16.8,4-14.5c26.2,6.1,53.4,5.4,79.2-1.8c4.5-1.2,7.7,1.4,8.8,4.8c1.2,3.7,0,8.3-4.8,9.6
			C321,452.7,291,453.2,262.3,446.5z M377.5,351.3c0.3-10,15.4-9.1,15,0c-0.8,39.2,6,112.2-37.7,130.7c-9.2,3.1-13-11.4-4-14.5
			c9.1-3.1,14-13.6,17.5-21.8C380.6,415.9,376.9,382.9,377.5,351.3z M435.4,376.4c0,28.4-1,57.8-9.2,85.1
			c-10.7,33.4-47,57.7-80.9,40.3c-8.9-4.8-0.3-17.4,7.6-12.9c27.2,14.5,55.1-12.6,61.2-39.1c5.7-23.5,7.1-49.2,6.3-73.3
			C420.1,366.7,435.1,366.7,435.4,376.4z M409.9,280.5c0,10.3,0,20.5,0,30.8c9.7,2,17.3,11.2,16.2,21.2c-1,13.9-16.2,22.6-28.7,16.3
			c-13.6-6.2-14.7-26.7-2.1-34.6c-1-8.1-0.1-16.4-0.4-24.6c-9,32.5-30.1,62.5-64.7,70.3c-38.9,8.8-83.8-8.2-101.1-45.7
			c-4.1-7.8,8.5-16.7,12.9-7.6c21.1,47.1,93.3,55.9,123,12.7c15.8-22.6,20.8-51.4,22.1-78.4c0.4-9,13.5-9.6,14.9-1.8
			c0,11.7-1.6,23.5-3.6,35C403.3,270.9,410,274.8,409.9,280.5z M267.8,193.8c9.7,0,9.6,15,0,15C258.2,208.8,258.2,193.8,267.8,193.8
			z M318,222.9c0.2,3.2,0.5,6.5,0.9,9.7c1,5.6,3.1,13.4-4.2,15.6c-3.6,1.2-8.5-1.4-9.2-5.2c-2.3-12.4-3.2-25-2.3-37.5
			c0.3-4.2,3.2-7.3,7.5-7.5c3.8-0.2,7.8,3.6,7.5,7.5C317.7,211.3,317.6,217.1,318,222.9z M306.8,283.9c0.3,0,0.4,0.1,0.6,0.1
			c2.5,0.3,5.1,0.3,7.6,0c2.2-0.2,8.9-2,12.5-4.3c2.1-1.2,4.1-2.5,6-3.9c3.3-2.4,8.4-0.5,10.3,2.7c2.2,3.8,0.6,7.8-2.7,10.3
			c-16.7,13.4-41.5,14-58.4,0.7c-8.3-5.7-1-17.6,7.6-12.9C295.6,280.3,300.6,282.8,306.8,283.9z M350.6,192c9.7,0,9.6,15,0,15
			C340.9,207,341,192,350.6,192z M313.1,138.5c7.1-15.4,6.9-32.3,6.5-48.8c-0.3-9.4,14-9.6,14.9-0.6c0.5-4,5.4-7.5,9.3-6
			c35.2,14,55.9,52.4,55.9,89.3c0,2.9-1.3,4.8-3.2,6c-4.4,2.8-11.8,0.8-11.8-6c0-29.6-16.1-63.4-44.9-74.9c-2.4-0.9-4.2-2.7-5-4.9
			c-0.1,0-0.2,0-0.2,0c2.3,35.8-10,80.7-51.3,86c-4.1,0.4-7.4-3.7-7.5-7.5c0-4.4,3.5-7,7.5-7.5C297,162.1,307.6,150.4,313.1,138.5z
			 M219.5,172.6c1.1-4.1,5.2-6,9.2-5.2c13.7,2.6,25.2-9.1,30.6-20.4c6-12.5,9.8-27.3,10.4-41c0.4-9.6,15.4-9.6,15,0
			c-1.4,33.3-18.5,82.3-60,75.9C220.8,181,218.5,176.3,219.5,172.6z"/>
		<path class="st2" d="M334.6,92.7c0.1,0,0.2,0,0.2,0c-0.1-0.2-0.2-0.4-0.2-0.6C334.6,92.3,334.6,92.5,334.6,92.7z"/>
		<path class="st2" d="M416,523.4c-3,27.7-4.5,55.4-7.2,83.1c31.7,0,63.3,0,95,0c4.2-48.7,8.1-97.4,5.6-146.3
			c-0.3-9.7,14.7-9.6,15,0c2.6,48.9-1.4,97.6-5.6,146.3c17.1,0,34.3,0,51.4,0c-4.2-22.7-7.7-45.5-12-68.2
			c-4.9-26.1-12.9-51.4-21.5-76.4c-0.7-2-0.5-3.7,0.2-5.1c-4.7,2.3-9.6-1.5-13.9-3.2c-16.4-7.8-33.4-14.5-49.3-23.1
			c-0.9,34.9-21.8,68.9-55.9,79.8c-3.1,1.1-5.6,0.1-7.2-1.8c-0.4,2.5-0.9,5-1.5,7.5C412.6,516.2,416.4,519.5,416,523.4z"/>
		<path class="st4" d="M402.3,240.9c0.7-9.2-14.4-10-15,0c-1.6,60.2-29.7,120.7-100.1,103.5c-19.4-5.7-36.5-19.3-45.1-37.8
			c-4.4-9.2-17-0.3-12.9,7.6c17.3,37.5,62.2,54.5,101.1,45.7c34.5-7.8,55.7-37.8,64.7-70.3c0.3,8.2-0.6,16.5,0.4,24.6
			c-12.7,7.8-11.6,28.4,2.1,34.6c12.5,6.3,27.7-2.4,28.7-16.3c1.1-10-6.5-19.3-16.2-21.2c0-10.3,0-20.5,0-30.8
			c0.1-5.6-6.6-9.6-11.4-6.3C400.6,263.2,401.7,252,402.3,240.9z M401.4,330.2c0.1-0.5,0.2-1,0.4-1.4c0.2-0.3,0.3-0.6,0.5-0.9
			c-0.1,0.1-0.2,0.2-0.3,0.3c0.1-0.1,0.2-0.2,0.3-0.4c0.1-0.3,0.6-0.7,0.5-0.5c0.1-0.1,0.2-0.2,0.3-0.3c0.3-0.2,0.7-0.4,1-0.6
			c0.5-0.2,0.9-0.3,1.4-0.4c0.5,0,0.9,0,1.4,0c0.5,0.1,1,0.2,1.4,0.4c0.3,0.2,0.6,0.3,0.9,0.5c-0.1-0.1-0.2-0.2-0.3-0.3
			c0.1,0.1,0.2,0.2,0.4,0.3c0.3,0.1,0.7,0.6,0.5,0.5c0.1,0.1,0.2,0.2,0.3,0.3c0.2,0.3,0.4,0.7,0.6,1c0.2,0.6,0.4,1.2,0.5,1.8
			c0,0.1,0,0.2,0,0.4c0,0.1,0,0.2,0,0.4c-0.1,0.6-0.3,1.2-0.5,1.8c-0.2,0.3-0.3,0.6-0.5,0.9c0.1-0.1,0.2-0.2,0.3-0.3
			c-0.1,0.1-0.2,0.2-0.3,0.4c-0.1,0.3-0.6,0.7-0.5,0.5c-0.1,0.1-0.2,0.2-0.3,0.3c-0.3,0.2-0.7,0.4-1,0.6c-0.5,0.2-0.9,0.3-1.4,0.4
			c-0.5,0-0.9,0-1.4,0c-0.5-0.1-1-0.2-1.4-0.4c-0.3-0.2-0.6-0.3-0.9-0.5c0.1,0.1,0.2,0.2,0.3,0.3c-0.1-0.1-0.2-0.2-0.4-0.3
			c-0.3-0.1-0.7-0.6-0.5-0.5c-0.1-0.1-0.2-0.2-0.3-0.3c-0.2-0.3-0.4-0.7-0.6-1c-0.2-0.5-0.3-0.9-0.4-1.4
			C401.4,331.2,401.4,330.7,401.4,330.2z"/>
		<path class="st4" d="M310.6,197.9c-4.3,0.2-7.2,3.3-7.5,7.5c-0.9,12.6,0,25.2,2.3,37.5c0.7,3.9,5.6,6.4,9.2,5.2
			c7.3-2.2,5.2-9.9,4.2-15.6c-1.2-9-1.4-18.1-0.7-27.2C318.4,201.5,314.5,197.8,310.6,197.9z"/>
		<path class="st4" d="M350.6,207c9.6,0,9.7-15,0-15C341,192,340.9,207,350.6,207z"/>
		<path class="st4" d="M267.8,208.8c9.6,0,9.7-15,0-15C258.2,193.8,258.2,208.8,267.8,208.8z"/>
		<path class="st4" d="M409.8,334.4c0.2-0.2,0.3-0.3,0.4-0.5c0,0,0,0,0-0.1C409.9,334.2,409.8,334.4,409.8,334.4
			C409.7,334.5,409.8,334.5,409.8,334.4z"/>
		<path class="st4" d="M409.8,327.4c-0.2-0.2-0.3-0.3-0.5-0.4c0,0,0,0-0.1,0C409.6,327.3,409.8,327.4,409.8,327.4
			C409.8,327.4,409.8,327.4,409.8,327.4z"/>
		<path class="st4" d="M402.7,327.4c-0.2,0.2-0.3,0.3-0.4,0.5c0,0,0,0,0,0.1C402.6,327.6,402.8,327.4,402.7,327.4
			C402.8,327.4,402.8,327.4,402.7,327.4z"/>
		<path class="st4" d="M402.7,334.4c0.2,0.2,0.3,0.3,0.5,0.4c0,0,0,0,0.1,0C403,334.6,402.8,334.4,402.7,334.4
			C402.7,334.4,402.7,334.4,402.7,334.4z"/>
		<path class="st4" d="M313.3,35c52.3,0.9,103.9,48.1,106.6,101c0.4,9.5,15.4,9.7,15,0c-3.1-61.1-60.8-114.9-121.6-116
			c-2.2,0-3.9,0.8-5.1,2C304.2,26,305.9,34.9,313.3,35z"/>
		<path class="st4" d="M586.6,613.4c-9.4-52.4-16.4-105.4-35.5-155.5c-1.8-5.1-7.1-6.1-11.1-4.3c1.6-3.3,0.8-8.3-2.8-9.9
			c-15.8-7.1-31.6-14.3-47.2-21.7c-5.3-1.7-10.7-7.6-16.2-3.6c-0.8-30.6-9-60.2-16.6-89.7c-14.5-54.5-18.2-111-20.1-167.2
			c-0.2-9.3-15.2-9.9-15,0c1.8,51.5,4.7,103.8,16.4,154.1c14.2,57.1,48.7,150.4-24.8,180.1c-5.9,2.1-6.4,8.8-3.2,12.7
			c1.6,1.9,4.1,2.8,7.2,1.8c34.1-10.9,55-44.9,55.9-79.8c15.9,8.6,32.9,15.3,49.3,23.1c4.3,1.7,9.2,5.5,13.9,3.2
			c-0.7,1.4-0.8,3.1-0.2,5.1c8.6,25.1,16.6,50.3,21.5,76.4c4.3,22.7,7.8,45.5,12,68.2c-17.1,0-34.3,0-51.4,0
			c4.2-48.7,8.1-97.4,5.6-146.3c-0.3-9.6-15.3-9.7-15,0c2.6,48.9-1.4,97.6-5.6,146.3c-31.7,0-63.3,0-95,0
			c2.7-27.7,4.2-55.4,7.2-83.1c0.4-3.8-3.4-7.1-7-7.4c-4.6-0.4-7.6,3.3-8,7.4c-3,27.7-4.5,55.4-7.2,83.1c-57.4,0-114.8,0-172.3,0
			c-2.7-31.9-14.4-61.9-19.8-93.4c7,3,21.1,10.4,24.9,0c0.4-1.5,0.2-3.2-0.4-4.8c44.9-43.1,6.6-113.3,2.5-165.5
			c-4.9-49-9-98.2-5.8-147.4c0.5-9.7-14.5-9.6-15,0c-2.1,64.9,0.9,130.5,14.3,194.1c7.1,35.2,23.5,81-7.5,109.1
			c-1,0.9-1.7,1.9-2.1,2.9c-48.8-23.2-20.9-67.3-16.9-106.2c0.8-9.6-14.2-9.6-15,0c-5.2,41.4-28.4,76.7,10.5,111
			c-3.1,1.4-5.2,5-4.5,8.5c3,17.1,7,33.8,11.8,50.4c3.9,13.6,6.2,27.4,7.9,41.3c-35.1,0-70.3,0-105.4,0
			c-2.8-38.8-5.8-77.6-8.5-116.5c-0.7-9.6-15.7-9.6-15,0c2.8,38.8,5.7,77.6,8.5,116.4c-17.8-0.1-35.7-0.5-53.5-0.2
			c4.1-50.7,17.6-127.9,61.1-159.3c11.6-7.8,24-14.5,36.1-21.6c-5.5,17.5-9.4,35.4-5.7,53.8c4.6,22.9,24.5,43.6,49.2,41.2
			c9-0.6,10.1-15.7,0-15c-21.5,2.1-34.6-18.2-35.6-37.5c-1.3-23,9-44.5,15.8-65.9c13.3-41.9,19.8-85.8,24.2-129.5
			c2.7-27.1,4.6-54.3,6.5-81.5c0.6-8.5-11.1-9.5-14.2-2.9c-7,76.9-10,155.8-37.4,229c-1.5-4.1-5.9-7.1-10.7-4.4
			c-11.9,6.8-23.8,13.5-35.3,21c-18,11.9-30.7,30.4-39.9,49.6C28.9,521.9,20.4,564.8,17.6,607c-6.5,2.7-5.5,14.4,3,14.4
			c18.4,0,36.8,0,55.2,0c43.9,0,87.9,0,131.8,0c99.3,0,198.6,0,297.9,0c22.4,0,45,0.9,67.3,0c5.2,0.5,8.6-3.8,8.1-8.1H586.6z"/>
		<path class="st4" d="M187.1,162.8c-1.2-61.6,45.6-118.7,106-130.9c9.7-2.2,5-16.5-4-14.5c-67,13.5-120.8,79.6-116.4,148.1
			C175.4,172.3,187.3,171.4,187.1,162.8z"/>
		<path class="st4" d="M275.8,171.2c0.1,3.8,3.4,7.9,7.5,7.5c41.5-5.3,53.7-50.6,51.3-86.6c0.8,2.4,2.6,4.4,5.2,5.4
			c28.8,11.5,44.9,45.3,44.9,74.9c0,6.8,7.4,8.8,11.8,6c1.8-1.2,3.2-3.2,3.2-6c0-36.9-20.7-75.3-55.9-89.3c-4-1.6-8.8,2-9.3,6
			c-0.9-9-15.2-8.8-14.9,0.6c0.4,16.5,0.6,33.4-6.5,48.8c-5.5,11.9-16.1,23.6-29.8,25.2C279.3,164.1,275.8,166.8,275.8,171.2z"/>
		<path class="st4" d="M223.4,181.4c41.9,8.5,60-41.9,61.3-75.5c0.4-9.6-14.6-9.6-15,0c-0.6,13.7-4.4,28.5-10.4,41
			c-5.4,11.3-16.9,23-30.6,20.4C219.8,165.4,215.5,177,223.4,181.4z"/>
		<path class="st4" d="M373.9,427.7c-3.8,14-8.5,33.7-23.1,39.9c-9,3.1-5.3,17.6,4,14.5c43.8-18.5,37-91.4,37.7-130.7
			c0-1.7-0.4-3-1.2-4.1c-3.5-5.2-13.7-3.8-13.8,4.1C377,376.8,379.4,402.7,373.9,427.7z"/>
		<path class="st4" d="M420.4,376.4c0.8,24.1-0.7,49.8-6.3,73.3c-5.3,21.8-24.8,45-47.9,43c-4.3-0.4-8.8-1.5-13.3-3.9
			c-2.3-1.2-4.4-1.1-6.3-0.3c-5.1,2.2-7.6,10-1.3,13.3c33.8,17.4,70.1-6.9,80.9-40.3c4.5-12.5,5.8-26.3,7.2-39.4
			c1.6-15.1,2.6-30.5,2.1-45.7C435.1,366.7,420.1,366.7,420.4,376.4z"/>
		<path class="st4" d="M290.2,276.3c-3.3-2.4-8.4-0.6-10.3,2.7c-6.6,12.5,23.1,20.9,31.9,20.1c8.8,0.4,38.3-8.4,31.9-20.8
			c-1.9-3.2-7-5.1-10.3-2.7c-1.9,1.4-3.9,2.8-6,3.9c-3.6,2.3-10.3,4.2-12.5,4.3c-2.5,0.3-5.1,0.3-7.6,0c-0.1,0-0.3-0.1-0.6-0.1
			C300.6,282.8,295.6,280.3,290.2,276.3z"/>
		<path class="st4" d="M354.3,435.2c-1.1-3.4-4.3-6.1-8.8-4.8c-25.9,7.2-53.1,7.9-79.2,1.8c-9-2.3-13.6,12.1-4,14.5
			c28.7,6.7,58.7,6.2,87.2-1.8C354.3,443.4,355.5,438.9,354.3,435.2z"/>
	</g>
</g>
</svg>
