<?xml version="1.0" encoding="utf-8"?>
<!-- Generator: Adobe Illustrator 27.2.0, SVG Export Plug-In . SVG Version: 6.00 Build 0)  -->
<svg version="1.1" id="レイヤー_1" xmlns="http://www.w3.org/2000/svg" xmlns:xlink="http://www.w3.org/1999/xlink" x="0px"
	 y="0px" viewBox="0 0 600 600" style="enable-background:new 0 0 600 600;" xml:space="preserve">
<style type="text/css">
	.st0{fill:#FFE033;}
	.st1{clip-path:url(#SVGID_00000091017521261107976170000008779573477492460971_);}
	.st2{fill:none;}
	.st3{fill:#5A5A5A;}
	.st4{fill:#FFFFFF;}
	.st5{fill:#6EC878;}
	.st6{fill:#323232;}
</style>
<circle class="st0" cx="300" cy="300" r="300"/>
<g>
	<defs>
		<circle id="SVGID_1_" cx="300" cy="300" r="300"/>
	</defs>
	<clipPath id="SVGID_00000181060215131717701090000004540800100556293018_">
		<use xlink:href="#SVGID_1_"  style="overflow:visible;"/>
	</clipPath>
	<g style="clip-path:url(#SVGID_00000181060215131717701090000004540800100556293018_);">
		<path class="st2" d="M376.7,357.8c0.1,0.1,0.3,0.2,0.4,0.4C376.9,358,376.8,357.9,376.7,357.8z"/>
		<path class="st2" d="M368.3,356.9C368.3,356.9,368.3,356.9,368.3,356.9C368.3,356.9,368.3,356.9,368.3,356.9z"/>
		<path class="st2" d="M365.4,359.4c-0.1,0.1-0.2,0.2-0.3,0.4C365.2,359.6,365.3,359.5,365.4,359.4z"/>
		<path class="st2" d="M370.2,356.1c-0.1,0-0.2,0.1-0.3,0.1C370,356.2,370.1,356.2,370.2,356.1z"/>
		<path class="st2" d="M373.9,356.1c-0.1,0-0.1,0-0.2-0.1C373.8,356.1,373.8,356.1,373.9,356.1z"/>
		<path class="st2" d="M364.3,361.2c0,0.1-0.1,0.1-0.1,0.2C364.3,361.3,364.3,361.3,364.3,361.2z"/>
		<path class="st2" d="M363.5,350.2c0.3-0.3,0.6-0.6,0.8-1C364.1,349.6,363.8,349.9,363.5,350.2z"/>
		<path class="st2" d="M358.1,355.9c-0.1,0.1-0.1,0.1-0.2,0.2C357.9,356,358,356,358.1,355.9z"/>
		<path class="st2" d="M363.8,365.2c0,0.2,0,0.4,0.1,0.6C363.9,365.5,363.8,365.4,363.8,365.2z"/>
		<path class="st2" d="M363.8,363.7c0-0.2,0-0.3,0-0.5C363.8,363.3,363.8,363.5,363.8,363.7z"/>
		<path class="st2" d="M350.9,361.8c0.5-0.4,1-0.7,1.5-1.1C351.9,361.1,351.4,361.5,350.9,361.8z"/>
		<path class="st2" d="M366.5,358.2c0.1-0.1,0.1-0.1,0.2-0.2C366.6,358.1,366.5,358.2,366.5,358.2z"/>
		<path class="st2" d="M375.7,356.9c-0.1-0.1-0.3-0.2-0.4-0.3C375.4,356.7,375.5,356.8,375.7,356.9z"/>
		<path class="st3" d="M379.2,327.5c-3,5.4-6.2,10.7-9.9,15.7c0.4,4.6,1.3,8.8,2.8,12.7c2.7-0.1,5,1.6,6.2,4
			c4.3,8.7,9,17.3,15.7,24.4c13.8,14,32.2,22.2,49.8,30.3c-24.1-31.3,7.7-80.3-39.2-97.6c-6.6-2.2-8-11-1.5-14.5
			c-3.9-0.7-8.1-0.9-12.4-1C387.5,310.4,383.9,319.2,379.2,327.5z"/>
		<path class="st4" d="M409.8,214.8c-26.9-8.5-49-30.5-56.5-57.9c-6.1-5.6-9-13-10-20.9c-8.7,31.9-38.3,59-72.9,51.2
			c-5-1-6.4-5.4-5.3-9.2c-14.3,9-32.3,11.5-48.2,4c-5.9,6.2-12.7,11.5-20.1,15.6c0.7,4.3-3.2,9.2-7.8,8.8c-1.7-0.2-3.3-0.1-4.9-0.1
			c-0.8,0.1-2.5,0.4-3.4,0.8c0,0,0,0,0,0c-0.5,0.3-1.4,0.8-1.7,1.1c-0.5,0.5-1,0.9-1.4,1.4c-0.5,0.9-1,1.5-1.4,2.4
			c-0.6,1.6-0.9,2.8-1.1,4.4c-0.2,1-0.4,6.5,0.1,8.9c0.7,4.4,1.9,8.7,3.7,12.8c0.9,1.9,1.9,3.8,3,5.7c10.3-1.7,21,6,22.4,16.4
			c3.6,0.4,7,2.9,7.1,7.5c0.9,23.8,10.2,45.9,25.8,64c24.6,30.5,73.1,40.6,105.5,16.6c28.4-22.1,40.1-64,41.9-98.3
			c0.5-8.7,12.2-9.9,15.1-3.6c4.3-2.5,9.6-3.4,14.4-2.3c0.1-0.2,0.1-0.3,0.2-0.4c3.2-8,5.2-16.5,6.5-25c0.4-2.4,2.2-4.1,4.4-5
			c-1.5-1.9-3.4-3.5-5.6-4.7C418.5,213.3,413.9,216.1,409.8,214.8z M256.9,216.6c-10.1,0-10.1-15.7,0-15.7
			C267,200.9,267,216.6,256.9,216.6z M294.7,213.1c0.5-10.4,15.5-10.3,15.7,0c-0.7,9.2-0.5,18.5,0.6,27.6c1,6.1,3.7,14.6-4.3,17
			c-3.8,1.2-8.9-1.4-9.7-5.5C294.7,239.4,293.7,226.2,294.7,213.1z M326.8,304.9c-16.2,6.2-34.8,4.7-51.2,0.5
			c-4.3-1.1-6.4-5.6-5.5-9.7c3-9.8,14.1-3.8,21.1-3.2c6.6,0.9,13.1,1,19.7,0.3c4-0.6,8-1.6,11.8-3.1c4.1-1.6,8.5,1.8,9.7,5.5
			C333.7,299.5,330.7,303.4,326.8,304.9z M345.3,216.6c-10.1,0-10.1-15.7,0-15.7C355.4,200.9,355.4,216.6,345.3,216.6z"/>
		<path class="st3" d="M183.9,186.7c4.9-2.3,9.6-5.1,13.9-8.4c4.6-3.7,8.7-7.8,12.4-12.4c5.5-7.3,9.3-14.7,11.5-23.5
			c1.1-4.1,5.6-6.6,9.7-5.5c13.1,4.2-0.5,25.1-4.6,32.5c14.4,5.4,30.3-2.3,39.7-13.3c11.7-13.6,15.3-32.3,16.9-49.6
			c0.6-10.5,15.4-10.3,15.7,0c-2.2,23.8-7.9,48.6-26.1,65.4c32.2,7.3,53.5-24.2,58.3-52.2c2.5-10.6,4.7-22.3,1.4-32.9
			c-3-9.7,12.2-13.8,15.2-4.2c5.1,17.6,0.2,36.4-4.8,53.4c1.1,7.9,3.9,15.3,10,20.9c-4.6-10.9,10.6-17.3,14.6-6.2
			c3.7,15.3,12.6,28.2,24.8,37.8c4.7,3.6,9.9,6.6,15.3,9c0.2,0.1,1.4,0.6,1.4,0.6c3.8,1.3,8.7,2.4,9.9,6.8c0,0,0.1,0,0.1,0
			c2.9-3.7,4.6-17.1,6.7-23.1c-0.3,0-0.7,0.1-1.1,0.1c-3.9,5.7-15.2,4.9-14.2-3.8c2.4-18.9,2.5-38.1-1.8-56.8
			c-11.2-48.5-53-85.3-103.5-86.1c-6.8-0.1-9-7.2-6.7-11.8c-3.3-1.4-6.7-1.7-10-1.5c1.7,4,0.5,9.1-4.9,10.2
			c-32.6,6.4-61,25.2-82.4,50.3c-21.5,25.1-21.7,59.2-18.5,90.5c0.8,7.4-7.5,9.3-12.4,5.8c-0.4,3.9,1.1,7.7,3.2,11.6
			c3.1-0.8,6.1-1.8,9-3C183,187.2,183.8,186.8,183.9,186.7z"/>
		<path class="st4" d="M364.4,349.2c-30.5,36.6-91,36.4-125.7,6c-1.4,33.2-25.4,61.1-54.4,74.7c44.4,16.3,86.7,37.7,124.8,65.8
			c4.9,3.5,4,9.8,0.8,13c0.4,0.5,0.8,1,1.2,1.5c36.3-30.9,79-53.7,119.4-78.6c2.9-1.8,5.6-1.4,7.8,0c0.7-0.5,1.5-0.9,2.2-1.3
			c-14.9-6.4-29.6-13.4-43-22.5c-14.8-10.2-25-23.9-32.8-39.9c-1-2.1-1.2-4.5-0.2-6.6c1.3-3,4.4-5.2,7.6-5.3
			c-1.4-3.9-2.4-8-2.8-12.7C367.7,345.3,366.1,347.3,364.4,349.2z"/>
		<path class="st5" d="M57.2,490.8c-17,48.3-30.2,98.2-41,148.3c21.5-0.7,43.2,0,64.6,0.1c-1.5-54.8-5.9-109.6-4.3-164.4
			c0.3-10.1,16-10.1,15.7,0c-1.5,54.8,2.8,109.6,4.3,164.4c138.9,0,277.8,0,416.7,0c1.2-51.5-0.6-103-2.2-154.4
			c-0.3-10.1,15.4-10.1,15.7,0c1.5,51.4,3.3,103,2.2,154.4c18.4,0,36.8,0,55.2,0c-5.2-37.2-11.4-74.4-20.9-110.7
			c-4.9-16.4-9.2-37-20.8-49.6c-29.5-24-68.1-33-102.2-48.6c-0.8,0.4-1.5,0.8-2.2,1.3c4.3,2.8,5.9,10.1,0.2,13.6
			c-43,25.3-86.7,51.3-125.3,82.7c4.5,3.2,2.5,10.4,3,15.2c0.2,21.5,0.5,42.9,0.7,64.4c0.1,10.1-15.6,10.1-15.7,0
			c0-3.1-0.1-6.2-0.1-9.3c-0.2-21.5-0.5-42.9-0.7-64.4c0-4.4,2.9-6.9,6.2-7.5c-3.5-2.6-5.2-7.7-0.9-11.5c1.8-1.6,3.7-3.1,5.5-4.6
			c-0.4-0.5-0.8-1-1.2-1.5c-2.2,2.1-5.4,2.9-8.7,0.6c-20.3-14.5-41.3-28.1-63.6-39.4c-22.2-11.3-45.5-20.3-68.7-29.2
			c-1.6-0.6-2.7-1.5-3.6-2.6c-27.4,10.2-57.7,15.8-83.5,25.8c-5.7,2.2-9.5-2.5-9.4-7.4c-13.2,6.7-25.4,14-28.3,27
			C49.2,478.3,60.1,482.5,57.2,490.8z"/>
		<path class="st6" d="M306.9,257.8c8-2.4,5.3-10.9,4.3-17c-1.1-9.2-1.4-18.4-0.6-27.6c-0.2-10.3-15.2-10.4-15.7,0
			c-1,13.1-0.1,26.3,2.4,39.2C298,256.3,303,259,306.9,257.8z"/>
		<path class="st6" d="M322.7,289.7c-3.8,1.5-7.8,2.4-11.8,3.1c-6.6,0.7-13.2,0.6-19.7-0.3c-7-0.6-18.1-6.6-21.1,3.2
			c-0.9,4.1,1.2,8.6,5.5,9.7c16.5,4.2,35,5.7,51.2-0.5c3.8-1.5,6.9-5.4,5.5-9.7C331.1,291.5,326.8,288.1,322.7,289.7z"/>
		<path class="st6" d="M345.3,200.9c-10.1,0-10.1,15.7,0,15.7C355.4,216.6,355.4,200.9,345.3,200.9z"/>
		<path class="st6" d="M256.9,200.9c-10.1,0-10.1,15.7,0,15.7C267,216.6,267,200.9,256.9,200.9z"/>
		<path class="st6" d="M600.3,641.6c-4.6-36.3-10.7-72.6-19.4-108.1c-4.8-19.6-9.9-42-21.5-59c-7.5-10.9-20.1-17.8-31.5-23.9
			c-12.1-6.5-24.7-12-37.4-17.1c4.6-1.6,9-4.2,13-8c7.4-7-3.8-18.1-11.1-11.1c-11.1,10.5-24.2,3.9-33.3-5.7
			c-19.7-22.5-3.1-56.2-18.2-81.2c-7-12.7-19.2-20.3-32.2-25.7c-3.9-1.6-8.6,1.8-9.7,5.5c-1.3,4.5,1.6,8.1,5.5,9.7
			c46.7,17.2,15.1,66.5,39.2,97.6c-17.6-8.1-36-16.3-49.8-30.3c-7.4-7.5-11.7-17.1-16.9-26.1c-3.6-4.4-10.8-1.8-12.7,3.1
			c-0.9,2.1-0.7,4.5,0.2,6.6c23.6,52.7,85.9,64,133.6,85.9c21.1,9.9,46.9,18.2,54.9,42.9c17,45.7,23.9,94.6,31.1,142.6
			c-18.4,0-36.8,0-55.2,0c1.2-51.5-0.6-103-2.2-154.4c-0.3-10.1-16-10.1-15.7,0c1.5,51.4,3.3,103,2.2,154.4
			c-138.9,0-277.8,0-416.7,0c-1.5-54.8-5.9-109.6-4.3-164.4c0.3-10.1-15.5-10.1-15.7,0c-1.5,54.8,2.8,109.6,4.3,164.4
			c-21.5-0.1-43.2-0.8-64.6-0.1c10.8-50.1,24-100,41-148.3c2.9-8.3-8-12.4-13.2-7.3c-20.3,50.4-32.8,105-44.3,158.2h6.5
			c-3.8,4.4-1.9,13.3,5.7,13.3c19.2,0,38.4,0,57.6,0c150,0,300,0,450,0c23.4,0,47,1,70.4,0c7.9,0.8,10.9-8.4,6.7-13.3H600.3z"/>
		<path class="st6" d="M305.5,35.4C380.2,37,423,108.9,410.8,178.2c-0.7,5.4,3.6,7.8,7.8,7.4c3.8-0.4,7.3-3.4,7.9-7.4
			c4.3-33.6,0.3-68.8-17.2-98.3C388,43.7,347.5,20,305.5,19.7c-3.3,0-5.5,1.6-6.7,3.9C296.5,28.2,298.7,35.3,305.5,35.4z"/>
		<path class="st6" d="M182.9,172.9c-3.2-31.2-3-65.4,18.5-90.5c21.5-25.1,49.8-43.8,82.4-50.3c5.5-1.1,6.6-6.1,4.9-10.2
			c-1.4-3.3-4.7-5.9-9.1-5c-35.6,7-67.4,28.1-90.5,55.7c-23.6,28.2-25.6,65.1-22,100.2C167.7,182.2,183.8,183.6,182.9,172.9z"/>
		<path class="st6" d="M414,199.7c-1.5-0.5-3-1-4.5-1.6c0,0-1.2-0.5-1.4-0.6c-5.4-2.4-10.6-5.4-15.3-9
			c-12.1-9.6-21.1-22.5-24.8-37.8c-1-4.1-5.7-6.6-9.7-5.5c-5.1,1.4-6.9,7.1-4.9,11.7c7.5,27.3,29.6,49.4,56.5,57.9
			C419.8,217.3,423.9,202.9,414,199.7z"/>
		<path class="st4" d="M406.6,265.6c0.2,0.2,0.4,0.4,0.6,0.6c0.3,0.2,0.6,0.4,1,0.6c0.4,0.1,0.7,0.2,1.1,0.3c0.4,0,0.8,0,1.2,0
			c0.4-0.1,0.7-0.2,1.1-0.3c0.3-0.2,0.6-0.4,1-0.6c0.2-0.2,0.4-0.4,0.6-0.6c0.2-0.3,0.4-0.6,0.6-0.9c0.1-0.4,0.2-0.7,0.3-1.1
			c0-0.1,0-0.3,0-0.4c-0.1-0.4-0.2-0.8-0.3-1.1c-0.2-0.3-0.4-0.6-0.5-0.9c-0.2-0.2-0.4-0.4-0.6-0.6c-0.3-0.2-0.6-0.4-1-0.6
			c-0.4-0.1-0.7-0.2-1.1-0.3c-0.4,0-0.8,0-1.2,0c-0.4,0.1-0.7,0.2-1.1,0.3c-0.3,0.2-0.6,0.4-1,0.6c-0.2,0.2-0.4,0.4-0.6,0.6
			c-0.2,0.3-0.4,0.6-0.6,0.9c-0.1,0.2-0.1,0.5-0.2,0.7c0,0.4,0,0.8,0,1.1c0.1,0.3,0.1,0.5,0.2,0.7
			C406.2,265,406.4,265.3,406.6,265.6z"/>
		<path class="st4" d="M188.3,262c-0.2-0.3-0.4-0.6-0.5-0.9c-0.2-0.2-0.4-0.4-0.6-0.6c-0.3-0.2-0.6-0.4-1-0.6
			c-0.4-0.1-0.7-0.2-1.1-0.3c-0.4,0-0.8,0-1.2,0c-0.4,0.1-0.7,0.2-1.1,0.3c-0.3,0.2-0.6,0.4-1,0.6c-0.2,0.2-0.4,0.4-0.6,0.6
			c-0.2,0.3-0.4,0.6-0.6,0.9c-0.1,0.2-0.1,0.5-0.2,0.7c0,0.4,0,0.8,0,1.1c0.1,0.2,0.1,0.5,0.2,0.7c0.2,0.3,0.4,0.6,0.6,0.9
			c0.2,0.2,0.4,0.4,0.6,0.6c0.3,0.2,0.6,0.4,1,0.6c0.4,0.1,0.7,0.2,1.1,0.3c0.4,0,0.8,0,1.2,0c0.4-0.1,0.7-0.2,1.1-0.3
			c0.3-0.2,0.6-0.4,1-0.6c0.2-0.2,0.4-0.4,0.6-0.6c0.2-0.3,0.4-0.6,0.6-0.9c0.1-0.4,0.2-0.7,0.3-1.1c0-0.1,0-0.3,0-0.4
			C188.5,262.7,188.4,262.4,188.3,262z"/>
		<path class="st6" d="M81.8,463.9c25.8-10.1,56.1-15.6,83.5-25.8c0.9,1.1,2,2,3.6,2.6c23.3,8.9,46.5,17.9,68.7,29.2
			c22.3,11.3,43.2,24.9,63.6,39.4c8.5,5.8,16-8,7.9-13.6c-38.1-28.1-80.4-49.5-124.8-65.8c29-13.6,53-41.5,54.4-74.7
			c28.5,24.8,72.9,29.5,105.9,10.8c30.2-18.6,45.1-54.5,52.2-87.9c11.8,10.4,31.5,2.7,32.6-13.1c0.6-3.9-0.6-8.1-2.6-11.4
			c4.9-9.6,7.6-21.1,9-30.4c1.3-6.4-4.4-12-10.8-9.2c-2.2,0.9-4,2.5-4.4,5c-1.3,8.5-3.3,16.9-6.5,25c0,0.1-0.1,0.2-0.2,0.4
			c-4.8-1.1-10.1-0.2-14.4,2.3c-2.9-6.3-14.6-5.1-15.1,3.6c-1.8,34.3-13.5,76.2-41.9,98.3c-32.4,24.1-80.9,13.9-105.5-16.6
			c-15.6-18.1-24.9-40.2-25.8-64c-0.2-4.6-3.6-7.1-7.1-7.5c-1.4-10.4-12.1-18.1-22.4-16.4c-1.1-1.8-2.1-3.7-3-5.7
			c-1.8-4.1-2.9-8.4-3.7-12.8c-0.5-2.3-0.3-7.9-0.1-8.9c0.3-1.6,0.6-2.8,1.1-4.4c0.4-1,0.9-1.6,1.4-2.4c0.4-0.5,0.9-1,1.4-1.4
			c0.3-0.3,1.2-0.8,1.7-1.1c0,0,0,0,0,0c0.9-0.4,2.6-0.8,3.4-0.8c1.7-0.1,3.3-0.1,4.9,0.1c4.5,0.4,8.5-4.5,7.8-8.8
			c7.5-4.2,14.2-9.5,20.1-15.6c15.9,7.5,33.9,5.1,48.2-4c-1.1,3.8,0.4,8.1,5.3,9.2c34.6,7.8,64.2-19.4,72.9-51.2
			c5-17,9.9-35.9,4.8-53.4c-3-9.7-18.2-5.5-15.2,4.2c3.3,10.7,1,22.3-1.4,32.9c-4.8,28.1-26.2,59.6-58.3,52.2
			c18.2-16.9,23.9-41.6,26.1-65.4c-0.3-10.3-15.1-10.5-15.7,0c-1.6,17.3-5.2,36-16.9,49.6c-9.5,11-25.3,18.7-39.7,13.3
			c4.1-7.4,17.7-28.3,4.6-32.5c-4.1-1.1-8.6,1.4-9.7,5.5c-2.3,8.9-6,16.2-11.5,23.5c-3.7,4.6-7.7,8.7-12.4,12.4
			c-4.7,3.6-9.8,6.6-15.2,9c-5.5,2.7-14.7,2.4-15.2,10.3c-14,14.9-8.7,38.6,0.8,54.7c-12.8,18.4,10.7,39.6,28.2,26.6
			c3.4,26.5,16.5,51.9,35.9,70.7c-4.1-0.3-8.9,2.1-9.5,7.4c-7.8,67.5-95.7,72.3-145.4,91.7C68.7,451.8,71.8,467.5,81.8,463.9z
			 M405.8,262.8c0.1-0.3,0.1-0.5,0.2-0.7c0.2-0.3,0.4-0.6,0.6-0.9c0.2-0.2,0.4-0.4,0.6-0.6c0.3-0.2,0.6-0.4,1-0.6
			c0.4-0.1,0.7-0.2,1.1-0.3c0.4,0,0.8,0,1.2,0c0.4,0.1,0.7,0.2,1.1,0.3c0.3,0.2,0.6,0.4,1,0.6c0.2,0.2,0.4,0.4,0.6,0.6
			c0.2,0.3,0.4,0.6,0.5,0.9c0.1,0.4,0.2,0.7,0.3,1.1c0,0.1,0,0.3,0,0.4c-0.1,0.4-0.2,0.7-0.3,1.1c-0.2,0.3-0.4,0.6-0.6,0.9
			c-0.2,0.2-0.4,0.4-0.6,0.6c-0.3,0.2-0.6,0.4-1,0.6c-0.4,0.1-0.7,0.2-1.1,0.3c-0.4,0-0.8,0-1.2,0c-0.4-0.1-0.7-0.2-1.1-0.3
			c-0.3-0.2-0.6-0.4-1-0.6c-0.2-0.2-0.4-0.4-0.6-0.6c-0.2-0.3-0.4-0.6-0.6-0.9c-0.1-0.2-0.1-0.5-0.2-0.7
			C405.8,263.5,405.8,263.1,405.8,262.8z M188.6,263.5c-0.1,0.4-0.2,0.7-0.3,1.1c-0.2,0.3-0.4,0.6-0.6,0.9c-0.2,0.2-0.4,0.4-0.6,0.6
			c-0.3,0.2-0.6,0.4-1,0.6c-0.4,0.1-0.7,0.2-1.1,0.3c-0.4,0-0.8,0-1.2,0c-0.4-0.1-0.7-0.2-1.1-0.3c-0.3-0.2-0.6-0.4-1-0.6
			c-0.2-0.2-0.4-0.4-0.6-0.6c-0.2-0.3-0.4-0.6-0.6-0.9c-0.1-0.2-0.1-0.5-0.2-0.7c0-0.4,0-0.8,0-1.1c0.1-0.3,0.1-0.5,0.2-0.7
			c0.2-0.3,0.4-0.6,0.6-0.9c0.2-0.2,0.4-0.4,0.6-0.6c0.3-0.2,0.6-0.4,1-0.6c0.4-0.1,0.7-0.2,1.1-0.3c0.4,0,0.8,0,1.2,0
			c0.4,0.1,0.7,0.2,1.1,0.3c0.3,0.2,0.6,0.4,1,0.6c0.2,0.2,0.4,0.4,0.6,0.6c0.2,0.3,0.4,0.6,0.5,0.9c0.1,0.4,0.2,0.7,0.3,1.1
			C188.6,263.3,188.6,263.4,188.6,263.5z"/>
		<path class="st6" d="M430.4,431.5c-42.5,26.1-87.2,50.2-124.9,83.3c-4.2,3.8-2.6,8.9,0.9,11.5c-3.3,0.6-6.3,3.1-6.2,7.5
			c0.2,21.5,0.5,42.9,0.7,64.4c0,3.1,0.1,6.2,0.1,9.3c0.1,10.1,15.9,10.1,15.7,0c-0.2-21.5-0.5-42.9-0.7-64.4
			c-0.5-4.9,1.5-12.1-3-15.2c38.6-31.4,82.3-57.4,125.3-82.7C447,439.7,438.8,426.2,430.4,431.5z"/>
	</g>
</g>
</svg>
