<?xml version="1.0" encoding="UTF-8"?>
<svg id="_レイヤー_2" data-name="レイヤー 2" xmlns="http://www.w3.org/2000/svg" xmlns:xlink="http://www.w3.org/1999/xlink" viewBox="0 0 600 600">
  <defs>
    <style>
      .cls-1 {
        clip-path: url(#clippath);
      }

      .cls-2 {
        fill: #fff;
      }

      .cls-3 {
        fill: #ffe033;
      }

      .cls-4 {
        fill: #323232;
      }

      .cls-5 {
        fill: #dcdcdc;
      }

      .cls-6 {
        fill: #33c781;
      }

      .cls-7 {
        fill: #5a5a5a;
      }
    </style>
    <clipPath id="clippath">
      <circle class="cls-3" cx="300" cy="300" r="300"/>
    </clipPath>
  </defs>
  <g id="_レイヤー_1-2" data-name="レイヤー 1">
    <g>
      <circle class="cls-3" cx="300" cy="300" r="300"/>
      <g class="cls-1">
        <g>
          <path class="cls-6" d="m261.86,444.11c.15,1.52.34,3.06.51,4.57.36,2.65.87,5.28,1.43,7.89h20.27c5.39-11.39,10.38-23.77,11.57-36.36-1.98-3.96-3.96-7.91-5.93-11.87-3.14.83-7.36,2.13-9.91-.25-2.9.95-5.62-.9-8.31-1.76.32,1.54.15,3.17-.74,4.53-3.16,4.86-6.6,9.51-10.2,14.03.51,6.39.63,12.83,1.32,19.22Z"/>
          <path class="cls-2" d="m194.49,224.31c-5.42,10.13-3.89,22.85,2.96,31.86.55.69,2.2,2.29,2.82,2.78,1.24.87,2.4,1.57,3.85,2.14,4.33,1.59,10.17,1.54,10.64,7.43.9.77,1.6,1.88,1.93,3.39,4.01,18.4,9.97,36.53,20.56,52.27,19.23,29.7,58.65,46.43,90.4,25.59,24.75-17.13,40.64-49.55,39.34-79.58-.53-8.25,11.88-8.39,13.07-.66.26-.26.51-.51.76-.76-3.55-2.45-3.42-8.99.66-10.93,5.02-2.26,7.28-4.32,10.75-8.48,1.62-2.12,2.88-4.3,3.99-6.7.88-2.07,1.48-4.22,1.85-6.43.21-1.77.25-3.79-.03-5.53-.22-1.24-.51-2.22-.97-3.46-.59-1.31-1.2-2.31-2.02-3.44-.7-.8-1.33-1.51-2.09-2.19-.14-.13-1.52-1.29-.71-.66-3.49-2.44-4.63-7.58-1.02-10.56-1.34-.62-2.73-1.26-4.13-1.99-1.63,1.21-3.86,1.66-5.9,1.26-14.34-2.8-27.42-9.9-37.83-19.92-1.46.66-2.93,1.37-4.39,2.1,1.81,3.36,1.05,8.33-3.67,9.81-35.13,11.47-76.49-2.55-96.29-34.02,1.12,19.57-7.35,36.58-19.56,51.02,4.4,4.57-1.66,13.42-8.47,10.02-6.49-3.24-11.75-7.83-16-13.24-.49.39-.98.77-1.47,1.12,1.92,2.08,2.34,5.18.98,7.77Zm139.43-8.26c8.49,0,8.48,13.18,0,13.18s-8.48-13.18,0-13.18Zm-42.91,29.59c.04-7.89.09-15.79.13-23.68.02-3.69,3-6.43,6.59-6.59,5.51-.02,7.15,5.39,6.57,10-.04,7.89-.09,15.79-.13,23.68-.02,3.69-3,6.43-6.59,6.59-5.51.02-7.16-5.39-6.57-10Zm-19.36,52.92c1.99-3.72,6.55-3.74,9.87-2,2.72,1.01,5.47,1.69,8.35,2.12,3.88.46,7.75.42,11.63.01,2.93-.43,6-1.2,8.74-2.27,8.03-5.45,16.16,5.1,8.11,10.69-13.48,6.82-30.69,6.77-44.33.47-3.34-1.54-3.9-6.11-2.36-9.01Zm-15.19-82.51c8.49,0,8.48,13.18,0,13.18s-8.48-13.18,0-13.18Z"/>
          <path class="cls-7" d="m221.54,104.38c-17.96,14.83-27.01,38.23-27.66,61.17-.86,20.61,5.93,43.34,25.56,53.09,12.21-14.44,20.68-31.44,19.56-51.02-4.58-6.36-21.01-39.02-8.59-41.96,3.15-.83,7.57,1.06,8.1,4.6,3.04,20.05,13.95,38.7,30.96,50.08,18.32,12.25,41.38,15.15,62.31,8.6,3.36-1.05,5.9.52,7.18,2.89,1.46-.73,2.93-1.44,4.39-2.1-3.56-4.06-9.24-8.31-10.32-13.76-27.7-3.91-52.53-23.1-63.2-49.24-1.35-3.32,1.48-7.25,4.6-8.1,3.72-1.02,6.76,1.31,8.1,4.6,10.86,26.64,40.41,42.96,68.62,39.93,3.56-.38,6.59,3.32,6.59,6.59.02,4.92-4.77,6.91-9.01,6.74,2.72,3.09,5.68,5.86,8.93,8.42.23.17.96.71.95.7,4.13,2.99,8.58,5.54,13.26,7.56,4.13,1.67,8.44,2.93,12.81,3.78,5.04.99,6.47,8.63,2.39,11.45,1.4.73,2.79,1.37,4.13,1.99,1.73-1.47,4.31-2.24,6.42-1.48-.07-.62-.17-1.25-.29-1.9-4.22.43-8.84-2.84-7.17-8.02,5.39-16.77,4.75-34.71.49-51.66-16.7-71.95-92.19-103.66-152.78-59.66-3.08,2.33-8.24.16-9.4-3.23-3.74,2.29-6.31,5.87-8.86,9.76,3.83,1.84,6.04,6.79,1.91,10.2Z"/>
          <path class="cls-2" d="m240.71,366.75c4.84,6.17,10.2,12,16.37,16.86,4.94,3.76,10.39,6.84,16.07,9.33,2.85,1.37,6.25,1.89,8.87,3.66,31.57-7.24,58.96-27.7,82.08-49.68-1.22-4.32-2.22-8.72-3.08-13.15-30.61,48.87-91.12,50.51-127.17,7.19-.1,8.09-.42,16.56-1.22,24.82.02,0,.04,0,.06,0,2.48-1.42,6.23-1.29,8.02.98Z"/>
          <path class="cls-5" d="m91.42,603.42h62.08c-1.82-.77-2.87-3.18-3.17-5.41-5.73-28-13.84-55.47-20.2-83.33-3.75-22.14-15.9-43.64,15.22-49.28,2.33-14.06,9.43-26.91,15.93-39.44-25.87,9.08-54.4,14.14-76.66,31.04-6,4.99-8.53,10.99-11.34,18.14-16.19,41.19-25.65,85.12-36.3,128.07,18.12-.37,36.35.21,54.43.21Z"/>
          <path class="cls-5" d="m209.09,400.15c-7.54,8.63-17.87,14.39-28.69,18.89-8.06,13.68-16.15,27.77-20.85,42.97,4.91-1.17,9.81-2.34,14.72-3.51,8.26-1.97,11.75,10.74,3.5,12.71-8.43,2.01-16.87,4.03-25.31,6.04-4.59,1.09-14.96,1.49-14.76,7.82.19,5.77,2.04,11.88,3.24,17.51,6.64,31.3,16.06,61.96,22.4,93.32.7,3.17-1.19,6.37-3.98,7.53h20.34c-5.77-62.03,2.44-125.07,18.31-185.11,1.52-5.75,8.21-5.73,11.33-2.39,2.61-4.01,5.27-8.06,7.46-12.27-3.75-1.15-4.74-6.06-3.02-9.22,2.63-4.96,5.25-9.92,7.88-14.88-4.07,4-8.29,7.86-13.03,11.2,2.3,2.34,3.21,6.24.44,9.4Z"/>
          <path class="cls-2" d="m210.73,421.81c-15.74,59.02-23.25,120.62-17.98,181.61h17.8c10.2-46.98,22.75-95.2,41.6-139.2-2.48-8.04-3.04-16.61-3.83-24.97-6.95,7.8-14.1,15.44-20.87,23.35-2.32,2.72-6.95,2.37-9.32,0-2.65-2.65-2.31-6.62,0-9.32,13.86-16.19,29.56-31.14,41.23-49.08.61-.94,1.43-1.69,2.35-2.24-10.01-4.99-18.68-12.41-26.02-20.75-3.5,6.62-7.01,13.24-10.51,19.86-1.61,3.04-5.38,3.78-8.36,2.57-2.19,4.22-4.85,8.26-7.46,12.27,1.33,1.42,2.02,3.44,1.37,5.89Z"/>
          <path class="cls-6" d="m290.47,603.42c-1.43-1.08-2.27-3.15-2.07-5.41,1.33-42.53-.57-85.99-5.8-128.26h-19.49c-15.67,43.44-29.96,88.24-39.13,133.68h66.5Z"/>
          <path class="cls-2" d="m324.55,448.63c4.03,7.72-6.83,13.99-11.38,6.65-2.7-5.4-5.4-10.81-8.1-16.21-2.48,8.27-5.88,16.27-9.57,24.12.03.7-.11,1.36-.32,2,5.85,43.68,7.72,88.77,6.41,132.82.08,2.3-.96,4.33-2.48,5.41h7.08l4.74-20.71c-3.4-.68-6.47-3.7-5.48-8.05,2.35-10.32,4.77-20.62,7.22-30.92,8.62-32.42,13.69-66.26,28.1-96.77,11.63-22.68,26.8-43.92,42.73-63.84-6.33-6.63-11.05-14.27-14.6-22.53-19.66,17.99-41.67,33.63-66.49,43.72,7.38,14.77,14.77,29.54,22.15,44.3Z"/>
          <path class="cls-5" d="m374.13,603.42h171.14c-3.46-30.62-7.58-61.16-12.74-91.53-2.17-12.76-2.84-27.59-9.92-38.76-13.03-20.56-35.58-31.32-56.43-42.05-17.07-8.79-35.22-16.43-52.12-25.94-.69,14.91-1.38,29.82-2.07,44.72-.11,2.31-1.29,4.37-3.12,5.55,23.94,8.91,10.79,32.22,2.26,47.49-13.37,26.6-26.8,53.17-40.4,79.66-3.88,7.55-15.24.88-11.38-6.65,11.48-22.36,22.84-44.78,34.14-67.23,3.49-6.94,6.98-13.88,10.47-20.82,2.07-4.12,7.8-12.58,4.68-17.38-1.27-1.95-4.2-2.61-6.25-3.31-4.16-1.41-8.34-2.74-12.51-4.12-7.65-2.52-15.29-5.03-22.94-7.55-8.03-2.64-4.57-15.36,3.5-12.71,9.61,3.14,19.18,6.35,28.8,9.45-.76-16.15,1.44-32.68,1.71-48.95.09-1.87.89-3.58,2.16-4.79-3.32-2.15-6.55-4.42-9.7-6.81-16.26,21-32.7,43.57-44.18,67.82-6.52,14.1-9.6,30.01-13.41,45-6.22,24.46-12.09,49.02-17.69,73.63-.89,3.91-4.19,5.16-7.23,4.55l-4.74,20.71h67.95Z"/>
          <path class="cls-4" d="m558.63,605.04c-5.11-41.93-9.97-84.12-18.76-125.45-5.06-19.98-24.52-36.3-41.7-46.17-26.9-15.91-55.99-27.73-83.24-42.9-31.95-17.12-39.43-41.27-43.73-75.25,6.33-14.36,10.17-30.18,8.84-45.76-1.19-7.74-13.6-7.59-13.07.66,1.31,30.02-14.6,62.45-39.34,79.58-31.75,20.84-71.18,4.12-90.41-25.59-10.59-15.74-16.55-33.86-20.56-52.26-.33-1.51-1.03-2.62-1.93-3.39-.47-5.89-6.31-5.84-10.64-7.43-1.45-.56-2.6-1.27-3.85-2.14-.62-.49-2.26-2.08-2.82-2.78-6.85-9.02-8.37-21.74-2.96-31.86,1.36-2.59.94-5.69-.98-7.77-2.59-3.29-8.47-2.6-10.4,1.12-11.1,20.01-3.2,51.43,20.78,57.12,8.03,38.33,27.15,76.35,65.01,92.04,34.46,14.71,73.26-1.91,92.11-33.05.86,4.43,1.86,8.83,3.08,13.15-23.11,21.98-50.51,42.44-82.08,49.68-2.62-1.77-6.01-2.3-8.87-3.66-5.68-2.49-11.13-5.57-16.07-9.33-6.17-4.86-11.53-10.7-16.37-16.86-1.79-2.28-5.55-2.41-8.02-.98-2.15.11-4.25,1.02-5.33,3.07-4.52,8.53-9.03,17.06-13.55,25.6-1.72,3.15-.73,8.07,3.02,9.22,2.98,1.21,6.75.47,8.36-2.57,3.51-6.62,7.01-13.24,10.51-19.86,7.34,8.34,16.01,15.76,26.02,20.75-.91.55-1.73,1.3-2.35,2.24-11.67,17.94-27.37,32.89-41.23,49.08-2.31,2.7-2.65,6.66,0,9.32,2.37,2.37,6.99,2.72,9.32,0,6.77-7.91,13.92-15.55,20.87-23.35.79,8.35,1.34,16.92,3.83,24.97-18.85,44-31.4,92.21-41.6,139.2h-17.8c-5.26-60.98,2.24-122.59,17.98-181.61.65-2.45-.04-4.47-1.37-5.89-3.12-3.35-9.81-3.36-11.33,2.39-15.88,60.04-24.08,123.08-18.31,185.11h-20.34c2.79-1.17,4.67-4.35,3.98-7.53-6.34-31.36-15.76-62.02-22.4-93.32-1.2-5.63-3.05-11.74-3.24-17.51-.2-6.33,10.17-6.73,14.76-7.82,8.43-2.01,16.87-4.02,25.31-6.04,8.25-1.97,4.75-14.68-3.5-12.71-4.91,1.17-9.81,2.34-14.72,3.51,4.69-15.2,12.79-29.29,20.85-42.97,8-3.29,38.4-17.87,28.25-28.29-2.32-2.36-6.07-3.13-8.87.09-6.73,7.71-16.06,12.73-25.76,16.63-.4.11-.79.26-1.17.45-31.97,13.79-94.11,21.32-108.83,55.45-18.69,45.37-28.66,93.84-40.86,141.23-4.39,3.22-3.13,12,3.8,12h177.57c115.42-.26,230.9.4,346.3,0,5.93.64,8.77-5.65,6.44-9.91h1.35c.07-.51.09-1.05.03-1.65Zm-222.66-218.67c11.56-7.64,22.78-16.2,32.9-25.76,3.55,8.26,8.27,15.9,14.6,22.53-15.93,19.91-31.1,41.16-42.73,63.84-7.34,14.31-11.27,29.52-15.3,45-7.12,27.45-13.67,55.05-20.02,82.68-1.92,8.07,10.71,11.87,12.71,3.5,5.6-24.61,11.46-49.17,17.69-73.63,3.82-14.99,6.89-30.91,13.41-45,11.48-24.25,27.92-46.82,44.18-67.82,3.15,2.39,6.38,4.66,9.7,6.81-1.27,1.21-2.07,2.92-2.16,4.79-.27,16.27-2.47,32.8-1.71,48.95-9.62-3.1-19.2-6.31-28.8-9.45-8.07-2.66-11.53,10.06-3.5,12.71,7.65,2.52,15.29,5.03,22.94,7.55,17.7,6.24,26.08,4.1,14.09,24.8-14.76,29.41-29.59,58.78-44.61,88.05-3.86,7.53,7.5,14.2,11.38,6.65,13.59-26.49,27.03-53.06,40.4-79.66,8.52-15.26,21.68-38.59-2.26-47.49,1.82-1.18,3.01-3.24,3.12-5.55.69-14.91,1.38-29.81,2.07-44.72,16.9,9.51,35.05,17.15,52.12,25.94,20.85,10.74,43.41,21.49,56.43,42.05,7.07,11.17,7.74,26,9.92,38.76,5.17,30.37,9.29,60.92,12.74,91.53h-246.17c1.52-1.08,2.57-3.11,2.48-5.41,1.31-44.05-.56-89.14-6.41-132.82.21-.64.35-1.3.32-2,3.7-7.85,7.09-15.85,9.57-24.12,2.7,5.4,5.4,10.8,8.1,16.21,4.54,7.33,15.41,1.07,11.38-6.65-7.38-14.77-14.77-29.54-22.15-44.3,11.87-4.58,23.14-11.06,33.58-17.96Zm-65.24,24.49c.88-1.36,1.06-2.99.74-4.53,2.69.86,5.41,2.71,8.31,1.76,2.55,2.38,6.76,1.08,9.91.25,1.98,3.96,3.95,7.91,5.93,11.87-1.18,12.59-6.18,24.97-11.57,36.36h-20.27c-.57-2.61-1.08-5.24-1.43-7.89-1.04-7.89-1.25-15.87-1.83-23.79,3.6-4.52,7.04-9.17,10.2-14.03Zm-7.84,59.7c.1-.28.14-.54.21-.81h19.49c5.23,42.28,7.13,85.73,5.8,128.26-.2,2.25.64,4.33,2.07,5.41h-66.5c9.2-45.13,23.14-89.75,38.93-132.86Zm-189.62,4.58c4.46-15.82,17.97-24.37,32.36-30.28,17.94-7.87,37.1-12.67,55.64-18.9-6.5,12.53-13.6,25.39-15.93,39.44-31.12,5.65-18.97,27.12-15.22,49.28,6.35,27.86,14.47,55.33,20.2,83.33.3,2.2,1.35,4.66,3.17,5.41-38.85.23-77.65-.37-116.51-.21,10.65-42.95,20.1-86.87,36.3-128.07Z"/>
          <path class="cls-4" d="m274,307.58c13.64,6.3,30.85,6.36,44.33-.47,8.05-5.58-.07-16.14-8.11-10.69-2.74,1.07-5.81,1.84-8.74,2.27-3.87.41-7.75.44-11.63-.01-2.88-.43-5.63-1.11-8.35-2.12-3.31-1.74-7.88-1.72-9.87,2-1.54,2.9-.98,7.47,2.36,9.01Z"/>
          <path class="cls-4" d="m210.97,228.66c7.91,3.84,13.92-7.96,6.65-11.38-18.82-9.39-24.29-32.31-23.74-51.74.65-22.94,9.7-46.34,27.66-61.17,4.13-3.41,1.92-8.36-1.91-10.2-2.23-1.08-5.01-1.1-7.41.88-36.75,29.42-47.02,108.14-1.25,133.6Z"/>
          <path class="cls-4" d="m331.79,188.93c-42.48,13.82-87.32-14.43-93.27-58.67-.54-3.54-4.96-5.43-8.11-4.6-3.77,1-5.13,4.6-4.6,8.1,7.56,51.01,60.45,83.82,109.48,67.87,8.03-2.49,4.62-15.22-3.5-12.7Z"/>
          <path class="cls-4" d="m297.57,255.64c3.59-.16,6.57-2.89,6.59-6.59.04-7.89.09-15.79.13-23.68.59-4.6-1.06-10.03-6.57-10-3.59.16-6.57,2.89-6.59,6.59-.04,7.89-.09,15.79-.13,23.68-.59,4.6,1.06,10.03,6.57,10Z"/>
          <path class="cls-4" d="m256.45,229.23c8.48,0,8.49-13.18,0-13.18s-8.49,13.18,0,13.18Z"/>
          <path class="cls-4" d="m333.92,229.23c8.48,0,8.49-13.18,0-13.18s-8.49,13.18,0,13.18Z"/>
          <path class="cls-4" d="m237.9,87.65c60.63-44.01,136.08-12.26,152.78,59.66,4.26,16.95,4.9,34.89-.49,51.66-2.57,8.37,10.4,11.29,12.7,3.5,10.75-33.41.99-72.35-18.16-100.85-32.18-50.65-106.52-62.08-153.49-25.35-2.9,2.18-4.17,5.79-2.36,9.01,1.59,2.79,6.2,4.53,9.01,2.36Z"/>
          <path class="cls-4" d="m384.7,196.93c-4.38-.85-8.68-2.11-12.81-3.78-4.68-2.03-9.13-4.57-13.26-7.56.01.01-.72-.53-.95-.7-3.25-2.56-6.21-5.33-8.93-8.42,4.23.17,9.04-1.81,9.01-6.74,0-3.27-3.03-6.97-6.59-6.59-28.21,3.03-57.76-13.29-68.62-39.93-1.34-3.29-4.38-5.62-8.1-4.6-3.12.86-5.95,4.79-4.6,8.1,10.66,26.15,35.5,45.33,63.2,49.24,1.07,5.44,6.77,9.7,10.32,13.76,10.41,10.02,23.49,17.12,37.83,19.92,2.04.4,4.27-.05,5.9-1.26,4.07-2.82,2.65-10.46-2.39-11.45Z"/>
          <path class="cls-4" d="m391.23,210.38c-3.62,2.99-2.48,8.13,1.02,10.56-.24-.18-.29-.21-.24-.16,1.22,1.03,2.09,1.91,3.04,3.02.82,1.13,1.43,2.13,2.02,3.44.45,1.24.75,2.22.97,3.46.29,1.74.25,3.76.03,5.53-.37,2.21-.97,4.36-1.85,6.43-1.11,2.4-2.37,4.57-3.99,6.7-3.47,4.16-5.73,6.22-10.75,8.48-7.28,4.46-1.26,15.33,6.65,11.38,22.18-9.74,33.26-44.31,10.77-59.64-2.27-1.7-5.57-.97-7.67.82Z"/>
        </g>
      </g>
    </g>
  </g>
</svg>