<?xml version="1.0" encoding="UTF-8"?>
<svg id="_レイヤー_2" data-name="レイヤー 2" xmlns="http://www.w3.org/2000/svg" xmlns:xlink="http://www.w3.org/1999/xlink" viewBox="0 0 569.78 499.47">
  <defs>
    <style>
      .cls-1 {
        fill: none;
      }

      .cls-2 {
        fill: #ebebeb;
      }

      .cls-3 {
        fill: #fff;
      }

      .cls-4 {
        fill: #ffdc3f;
      }

      .cls-5 {
        fill: #33c781;
      }

      .cls-6 {
        fill: #2e2e2e;
      }

      .cls-7 {
        fill: url(#_新規パターンスウォッチ_2);
      }

      .cls-8 {
        fill: url(#_新規パターンスウォッチ_2-2);
      }
    </style>
    <pattern id="_新規パターンスウォッチ_2" data-name="新規パターンスウォッチ 2" x="0" y="0" width="12.5" height="12.5" patternTransform="translate(3650.14 -9674.98) rotate(-44.14) scale(.98) skewX(1.72)" patternUnits="userSpaceOnUse" viewBox="0 0 12.5 12.5">
      <g>
        <rect class="cls-1" width="12.5" height="12.5"/>
        <rect class="cls-3" x="0" y="0" width="12.5" height="12.5"/>
        <circle class="cls-5" cx="6.25" cy="6.25" r="2.43"/>
      </g>
    </pattern>
    <pattern id="_新規パターンスウォッチ_2-2" data-name="新規パターンスウォッチ 2" patternTransform="translate(-20.14 -40.54)" xlink:href="#_新規パターンスウォッチ_2"/>
  </defs>
  <g id="_レイヤー_1-2" data-name="レイヤー 1">
    <g>
      <g>
        <path class="cls-3" d="m359.56,185.02c1.69,2.44,3.92,4.58,6.71,4.68,2.69.09,4.27-2.09,5.22-4.49-3.98-.06-7.96-.13-11.93-.19Z"/>
        <path class="cls-4" d="m327.77,203.22c-1.89.67-2.49,3.7.14,3.92,1.24.1,2.31-.57,2.2-1.9-.13-1.6-1.17-1.95-2.34-2.01Z"/>
        <path class="cls-3" d="m390.16,450.31c-1.05.76.09-.34-.12-.01.54-.8.93-1.67,1.26-2.58,1.73-4.86,2.08-10.36,2-15.47-.07-4.46-.73-9.17-3.03-13.07-.57-.97-1.12-1.65-1.88-2.46-.06-.06-.22-.22-.36-.35-.04-.03-.09-.06-.13-.09-.17-.11-.32-.22-.45-.34-.53.12-1.06.25-1.59.35.72,1.69-.1,4.07-2.46,3.99-11.98-.38-24.14,1.2-36.08-.21-4.87-.58-9.39-2.06-14.05-3.55-5.15-1.65-10.33-2.25-15.6-3.31-5-1-9.72-1.94-14.71-.36-4.98,1.57-9.82,3.83-14.25,6.59-6.23,3.87-11.33,9.35-16.43,14.56-3.3,3.37-6.56,6.78-9.77,10.24.71,2.02,1.42,4.03,2.13,6.05.66-.9,1.34-1.75,1.9-2.53,3.91-5.47,8.41-10.54,13.68-14.74,8.14-6.5,17.98-10.73,27.33-15.16,3.27-1.55,6.12,3.32,2.85,4.87-9.53,4.51-19.85,8.77-27.93,15.71-5.73,4.93-10.54,10.87-14.47,17.31-.93,1.53.41,3.3,1.83,4.68,1.33,1.29,2.83,2.24,4.26,1.36-.08-2.09.64-4.17,1.88-6.01,4.57-6.84,12.61-10.73,18.79-15.87,3.76-3.13,6.96-5.85,11.67-7.52,5.16-1.83,10.63-2.6,15.89-4.09,3.5-.99,4.98,4.45,1.5,5.44-5.26,1.49-10.73,2.25-15.89,4.09-4.33,1.54-7.13,4.49-10.64,7.24-5.44,4.26-13,8.01-16.74,14.01-1.27,2.03-1.01,4.54,1.47,5.6,2.88,1.24,5.97-2,8.23-3.51,5.86-3.91,11.56-8.42,17.83-11.64,7.07-3.63,14.94-6.09,22.7-7.7.89-.18,1.64.02,2.23.44,2.07.64,2.53,4.46-.16,5.57-2.9,1.19-5.47,3.5-8.02,5.36-2.48,1.81-5.04,3.5-7.66,5.1-2.92,1.79-6.42,3.14-8.74,5.71-.51.57-2.58,2.76-2.38,3.67.43,1.99,3.99.91,5.18.56,4.25-1.25,8.36-3,12.32-4.96,7.68-3.8,15.01-8.22,22.91-11.57,3.31-1.4,6.18,3.46,2.85,4.87-3.49,1.47-6.86,3.17-10.21,4.92h14.32c-.37-1.6.52-3.54,2.64-3.54.17,0,.33,0,.5,0,11.3-.43,22.69-.07,34.01-.01.36-.72.66-1.45.85-2.21-2.2-.12-3.62-3.68-1.25-5.39Z"/>
        <path class="cls-7" d="m367.07,222.99c-2.38,1.54-4.77,3.09-7.15,4.63,2.62,4.21,5.24,8.42,7.85,12.63.94-1.91,2-3.77,3.11-5.59-1.11-.98-1.51-2.64-.04-3.84,2.18-1.79,2.49-5.16,2.74-7.8.22-2.32.26-4.65.38-6.97-1.32-.16-2.62-.41-3.9-.73-1.34.78-2.74,1.56-4.23,2.34,2.29.14,3.74,3.71,1.25,5.32Z"/>
        <path class="cls-4" d="m480.31,221.77c-7.83-6.31-11.65-16.21-12.83-26.13-1.47-12.35.03-24.99-.39-37.4-.42-12.52-1.67-25.01-3.75-37.37-1.97-11.65-4.41-23.42-8.15-34.64-3.32-9.98-8.27-19.39-16.68-25.97-1.5-1.18-1.1-2.83.03-3.81-3.33-2.09-7.12-3.52-10.92-4.68,5.82,4.1,10.79,9.53,14.3,15.32,9.42,15.53,11.33,33.22,10.82,50.99-.03.91-.4,1.59-.95,2.05.25.71.59,1.39.98,2.05.96-.5,2.16-.49,3.15.5,7.05,7.06,9.55,17.79,8.38,27.5-.9,7.49-3.95,15.22-10.04,19.99-4.76,3.72-10.94,4.71-16.4,2.46-.32.29-.74.51-1.29.61-.77.15-1.52.22-2.27.24-.08,3.04.11,6.07.54,9.11,1.46-1.66,4.98-1.06,5.01,1.81.08,9.19.21,18.93,3.29,27.7,1.81,5.17,5.07,9,10.09,11.22.56.25.94.6,1.18.99,4.15.63,8.51.68,12.8.26-5.28-3.52-8.81-9.45-11.27-15.15-3.09-7.16-4.94-15-4.61-22.83.15-3.62,5.79-3.63,5.64,0-.29,6.82,1.2,13.66,3.82,19.94,2.16,5.17,5.32,10.94,10.32,13.84,1.45.84,1.62,2.32,1.09,3.5,2.82-.51,5.55-1.22,8.11-2.08Z"/>
        <path class="cls-4" d="m354.27,92.12c-.76-5.01-.28-10.22.76-15.52.7-3.56,6.13-2.05,5.44,1.5-1.53,7.81-1.62,15.1,2.67,21.95.98.59,2,1.12,3.04,1.6-1.04-.47-2.05-1.01-3.04-1.6.15.24.29.48.45.71,3.26,4.82,8.19,8.6,14.08,9.39,2,.27,2.41,2.08,1.75,3.55,5.13,2.14,10.42,2.22,15.76,1.81-6.59-3.87-12.51-9.11-15.77-16.14-3.04-6.55-3.45-13.6-2.39-20.66.53-3.58,5.97-2.05,5.44,1.5-.85,5.71-.41,11.71,2.13,16.96,2.98,6.14,8.22,10.51,14.05,13.84,1.73.98,1.65,2.89.72,4.11,4.15-.44,8.32-.93,12.44-.75-2.01-2.07-3.81-4.34-5.3-6.87-4.37-7.41-5.48-16.06-4.77-24.51.3-3.6,5.94-3.62,5.64,0-.63,7.5.11,15.07,4,21.67,3.79,6.43,9.86,10.92,16.3,14.47.7.38,1.1.92,1.28,1.5.62-.47,1.27-.91,1.96-1.33-.13-.35-.2-.75-.15-1.22,1.2-13.03-1.93-27.23-6.32-39.45-3-8.36-7.6-20.28-17.55-22.1-2.75-.5-2.48-3.84-.58-5.05-.39-.45-.77-.91-1.15-1.36-1.27.08-2.53.25-3.8.55-2.72.63-4.23-2.44-3.18-4.26-5.53-.02-11.02.93-16.39,2.43.25,1.3-.28,2.78-1.9,3.29-12.27,3.88-22.52,11.67-29.88,21.66-1.58,6.62.35,13.1,4.27,18.36Z"/>
        <path class="cls-3" d="m425.26,124.19c-.15.19-.29.38-.43.57,1.4.88,2.13,2.85.59,4.32-5.65,5.37-6.85,15.51-5.46,22.9.75,4,2.47,8.22,5.31,11.2,1.19,1.25,3.01,2.71,4.97,3.66-9.16-10.72-8.75-29.37-1.23-40.51.83-1.22,2.13-1.47,3.24-1.14.17-1.5.11-3.08.02-4.6-.61-.22-1.12-.66-1.37-1.3-.69.42-1.34.86-1.96,1.33.6,1.95-1.38,4.42-3.69,3.57Z"/>
        <path class="cls-3" d="m434.22,184.38c0-.76.24-1.37.63-1.81-.42-3.04-.62-6.07-.54-9.11-9.6.24-17.17-9.77-19.39-18.21-2.54-9.64-.99-23.02,6.51-30.15,1.09-1.03,2.41-.96,3.4-.34.14-.19.29-.39.43-.57-.15-.05-.29-.12-.44-.2-4.73-2.61-9.26-5.75-13.02-9.62-4.12-.18-8.28.31-12.44.75-.77,1.02-2.14,1.57-3.57.75-.2-.12-.41-.24-.61-.36-5.34.41-10.63.33-15.76-1.81-.51,1.16-1.69,2.1-3.25,1.89-7.32-.98-13.45-6.06-17.45-11.98-2.48-3.67-3.85-7.52-4.45-11.48-3.92-5.26-5.85-11.73-4.27-18.36-7.67,10.41-12.2,23.19-12.58,36.42-.06,2.04-1.88,2.94-3.43,2.68-.02,3.46.03,6.97.39,10.46,1.57-.31,3.48.57,3.59,2.65.3,5.93.73,11.85,1.2,17.77.76,9.44,1.62,18.91,3.2,28.26,1.5,8.9,4.44,16.83,9.72,24.28,6.43,9.08,16.85,15.06,28.15,14.31,11.58-.77,23.82-7.11,30.61-16.59,2.1-2.93,6.99-.11,4.87,2.85-8.1,11.3-22.18,18.8-36.1,19.42-.21,6.31.2,14.46-4.78,18.54-1.33,1.09-2.94.75-3.95-.14-1.11,1.83-2.16,3.68-3.11,5.59,1.23,1.98,2.46,3.96,3.69,5.94.52.84.51,2.01,0,2.85-1.88,3.08-3.76,6.15-5.64,9.23,2.23,9.97,4.46,19.94,6.7,29.91,1.7-2.51,3.53-4.95,5.38-7.34,4.48-5.78,10.25-10.56,13.55-17.12,1.3-2.59,2.48-5.23,3.61-7.9.3-.71.52-1.62.94-2.27.05-.08.09-.13.12-.18.68-7.32.73-14.76,1.1-22.1.04-.9.43-1.57.97-2.02.31-.36.72-.66,1.27-.85,11.6-4.08,23.19-8.16,34.79-12.24,1.39-.49,2.46.12,3.01,1.09.52-.27,1.03-.57,1.52-.88-4.48-9.61-4.48-22.28-4.56-31.98Zm-88.03-46.06c-3.63,0-3.63-5.64,0-5.64s3.63,5.64,0,5.64Zm3.06,25.89c-.7-1.04-.39-2.57.44-3.42,4.1-4.21,5.99-9.73,8.45-14.95,1.55-3.28,6.41-.42,4.87,2.85-2.31,4.89-4.23,9.83-7.55,14.04,1.73,1.32,4.25,2.23,5.97,2.96,3.33,1.41.46,6.26-2.85,4.87-3.37-1.42-7.24-3.23-9.34-6.35Zm28.7,18.99c-1.19,5.67-4.67,11.92-11.19,12.13-6.9.22-11.81-6.27-14.55-11.79-.33-.65-.38-1.29-.26-1.87.15-1.21.99-2.31,2.5-2.37.32-.06.64-.06.94,0,6.61.11,13.22.21,19.84.32,1.92.03,3.1,1.77,2.72,3.57Zm3.07-43.76c-3.63,0-3.63-5.64,0-5.64s3.63,5.64,0,5.64Z"/>
        <path class="cls-3" d="m451.94,126.65c-1.57-1.58-.68-3.69.84-4.49-.4-.65-.73-1.33-.98-2.05-1.63,1.35-4.77.67-4.69-2.05.23-8.01.31-16.12-1.13-24.03-1.4-7.67-4.1-15.17-7.75-22.05-6.11-11.51-19.33-22.75-33.07-21.89.38.46.76.91,1.15,1.36.56-.36,1.27-.53,2.08-.39,11.24,2.06,16.82,14.03,20.55,23.56,2.75,7.03,4.6,14.42,5.92,21.85,1.25,7.07,2.19,14.4,1.53,21.58-.21,2.26-2.51,3.1-4.12,2.52.09,1.52.15,3.1-.02,4.6,1.61.48,2.83,2.2,1.63,3.99-5.23,7.75-6.13,18.03-3.15,26.82,2.09,6.17,7.41,13.29,14.79,12.15,7.49-1.16,11.5-9.54,12.84-16.17,1.74-8.65-.02-18.91-6.42-25.32Z"/>
        <path class="cls-4" d="m354.64,224.33c3.2-2.07,6.39-4.13,9.58-6.2.55-.36,1.09-.49,1.59-.46,1.5-.78,2.89-1.56,4.23-2.34-8.75-2.16-16.5-7.74-21.95-14.99-2.66-3.54-4.82-7.28-6.56-11.18.4,2.58.45,5.23.1,7.83,1.12.27,2.07,1.15,2.06,2.63-.03,9.45-2.66,22.65-11.63,27.55,3.03,1.1,6.22,1.37,9.46,1.25-.65-1.43-.26-3.41,1.67-4.03,4.73-1.52,6.07-7.68,6.5-12.01.36-3.58,6-3.61,5.64,0-.56,5.64-2.25,11.85-6.69,15.36,1.55-.21,3.09-.42,4.6-.6-.12-1.08.45-2.19,1.38-2.79Z"/>
        <path class="cls-8" d="m533.29,414.05c-1.02-24.02-2.14-48.04-3.41-72.05-.63-11.81-1.11-23.62-1.84-35.42-.5-7.97-1.03-15.99-2.53-23.84-2.16-11.3-6.96-20.4-16.03-27.62-7.28-5.8-15.66-10.37-23.79-14.82-5.78-3.16-11.66-6.26-17.72-8.85-3.33-1.42-.45-6.28,2.85-4.87.24.1.48.21.72.32-.37-.46-.73-.93-1.06-1.42-.66.22-1.42.19-2.2-.26-.36-.21-.71-.43-1.06-.66-4.28.42-8.64.36-12.8-.26,1.15,1.94-1.29,5.08-4.02,3.88-5.59-2.47-9.23-6.71-11.61-11.81-.49.31-.99.61-1.52.88.81,1.42.5,3.64-1.52,4.35-10.99,3.87-21.99,7.74-32.98,11.61-.18,3.67-.37,7.34-.55,11.01-.16,3.28.22,7.18-.59,10.39-.43,1.71-1.41,3.43-2.11,5.04-1.21,2.79-2.46,5.58-3.88,8.26-1.4,2.64-3.05,4.64-5.1,6.81-3.37,3.56-6.55,7.3-9.49,11.23-2.63,3.52-5.21,7.17-7.33,11.03-.93,1.68-3.39,1.75-4.57.45.37.59.73,1.18,1.1,1.77,1.01.3,1.77,1.15,1.6,2.55-.95,7.94-1.25,15.94-1.3,23.93-.09,15.29.75,30.58,1.84,45.83.73,10.19,1.83,20.38,2.28,30.59.16,3.63-5.48,3.61-5.64,0-.21-4.78-.65-9.55-1.03-14.32-1.12-14.05-2.18-28.11-2.72-42.19-.55-14.15-.79-28.46.79-42.56-.13-.14-.25-.3-.37-.48-6.95-11.18-13.89-22.36-20.84-33.54-1.92-3.09,2.96-5.92,4.87-2.85,6.32,10.17,12.64,20.34,18.95,30.51-.05-.12-.09-.25-.12-.38-.6-2.66-1.19-5.32-1.79-7.98-1.97-8.81-3.94-17.61-5.91-26.42-.5-2.23-1.27-4.11-.07-6.22,1.55-2.73,3.25-5.39,4.91-8.06-3.71-5.97-7.42-11.94-11.13-17.9-2.63,1.2-5.29,2.24-8.1,3.24,1.45,1.18,1.87,3.5-.27,4.41-12.96,5.47-30.6,5.83-39.66,17.89-7.8,10.4-12.59,23.02-18.86,34.35-5.74,10.36-11.57,20.68-17.4,30.99-8.24,14.55-16.52,29.08-24.84,43.59-1.18,2.06-3.66,1.56-4.74.09-1.32,1.98-2.64,3.95-3.95,5.93,7.36,21.55,14.88,43.04,22.42,64.52.41,1.17.82,2.34,1.23,3.5,3.49-3.72,7.03-7.39,10.63-11,1.5-1.5,3-2.97,4.53-4.4-1.09.19-2.31.19-3.54.19,1.23,0,2.45,0,3.54-.19,1.39-1.3,2.81-2.57,4.27-3.78,3.93-6.57,7.1-13.38,10.76-19.79-1.83-.26-3.41-2.13-2.1-4.09,5.83-8.65,11.65-17.29,17.48-25.94,1.52-2.26,4.67-1.21,5.26.74,1.06-1.34,2.09-2.71,3.03-4.11-1.33-10.24-1.44-20.54-.68-30.95.98-13.52,1.29-26.46-1.95-39.74-.86-3.53,4.58-5.02,5.44-1.5,1.95,8,3.05,16.18,3.04,24.42-.01,13.15-2.12,26.13-1.16,39.3,1.08,14.93,5.99,29.15,6.68,44.15.08,1.63-1.02,2.52-2.26,2.69.31,1.47.54,2.93.61,4.43,3.63.64,7.22,1.28,10.8,2.43,5.01,1.61,9.85,3.2,15.13,3.6,11.13.85,22.35-.39,33.5-.04,1.26.04,2.08.75,2.46,1.64.53-.1,1.06-.23,1.59-.35-1.86-1.68-.67-4.68,1.87-4.91,3.61-.32,7.22-.64,10.84-.97,25.52-2.28,51.04-4.55,76.55-6.83,3.62-.32,3.59,5.32,0,5.64-3.61.32-7.22.64-10.84.97-23.56,2.1-47.12,4.2-70.68,6.3,2.83,4.76,3.66,11.17,3.73,16.11.09,5.84-.36,12.28-2.5,17.77-.75,1.93-1.7,3.91-3.43,5.16-.55.4-1.09.55-1.6.52-.19.76-.49,1.49-.85,2.21.86,0,1.71.01,2.57.01h141.94c-.55-14.62-1.15-29.25-1.77-43.87Zm-267.65,6.59c-1.8-4.9-5.86-8.61-10.84-10.1-3.47-1.05-1.98-6.49,1.5-5.44,6.97,2.1,12.28,7.23,14.78,14.04,1.25,3.42-4.2,4.88-5.44,1.5Zm39.5-77.54c-5.35-7.32-9.9-15.17-15.25-22.5-2.14-2.94,2.75-5.75,4.87-2.85,5.35,7.32,9.9,15.17,15.25,22.5,2.14,2.94-2.75,5.75-4.87,2.85Zm143.01-102.91c-12.79,4.4-25.59,8.81-38.38,13.21-3.44,1.19-4.91-4.26-1.5-5.44,12.79-4.4,25.59-8.81,38.38-13.21,3.44-1.19,4.91,4.26,1.5,5.44Zm14.47,156.17c-2.7-29.23.59-58.75-2.12-87.99-.33-3.62,5.31-3.58,5.64,0,2.7,29.23-.59,58.75,2.12,87.99.33,3.62-5.31,3.58-5.64,0Zm-36.75,57.69c-1.16,3.42-6.6,1.94-5.44-1.5,3.48-10.26,3.91-21.03-1.14-30.86-1.66-3.23,3.21-6.07,4.87-2.85,5.72,11.15,5.68,23.49,1.7,35.21Z"/>
        <path class="cls-2" d="m356.05,463.56c-1.5,0-2.38-.97-2.64-2.1h-14.32c-4.91,2.58-9.75,5.28-14.78,7.64-3.75,1.76-7.62,3.36-11.59,4.53-3.63,1.06-7.8,1.27-10.6-1.74-4.38-4.7.91-11.57,5.07-14.36,2.83-1.9,5.77-3.59,8.68-5.34-3.93,1.65-7.71,3.64-11.24,6.06-3.38,2.32-6.79,4.59-10.19,6.86-3.08,2.05-6.09,4.75-9.85,5.29-3.28.47-6.3-.9-8.32-3.33-1.8.85-3.74.84-5.6.24,1.18,3.35,2.37,6.7,3.55,10.05,1.22,3.43-4.23,4.89-5.44,1.5-.36-1.01-.71-2.01-1.07-3.02-6.6-18.64-13.17-37.3-19.7-55.97-8.05-23.01-16.13-46.01-23.78-69.15-1.51-4.55-2.39-10.7-6.95-13.17-1.8-.98-3.73-1.08-5.71-1.24-4.13-.33-8.26-.66-12.39-.99-17.88-1.43-35.75-2.87-53.63-4.3-22.63-1.81-45.26-3.63-67.9-5.44-18.06-1.45-36.11-2.89-54.17-4.34-4.38-.35-8.76-.7-13.14-1.05-1.28-.1-2.47-.33-3.6.58-1.89,1.52-1.04,3.59-.37,5.41,5.17,14.17,10.35,28.35,15.52,42.52,7.62,20.89,15.25,41.77,22.87,62.66,3.91,10.72,7.82,21.44,11.74,32.15.81,2.23-1.21,3.62-3.07,3.39.2.41.38.83.57,1.25.39-.2.81-.31,1.23-.28.12,0,.25.03.37.03,2.81-.06,5.73.41,8.53.62,6.06.44,12.11.87,18.17,1.31,18.22,1.32,36.44,2.63,54.66,3.95,21.06,1.52,42.13,3.04,63.19,4.56,17.48,1.26,34.97,2.52,52.45,3.79,7.13.52,14.27,1.03,21.4,1.55.13-.06.26-.11.4-.16,9.77-3.01,19.55-6.01,29.32-9.02,3.48-1.07,4.96,4.37,1.5,5.44-9.36,2.88-18.72,5.76-28.08,8.64v4.54c2.01-.72,4.02-1.45,6.04-2.17,18.04-6.5,36.07-12.99,54.11-19.49,1.27-.46,2.28,0,2.86.84l20.95-8.73h-5.02Zm-227.21-46.68c-9.08,3.57-16.38-9.15-10.41-15.99,2.39-2.74,6.36,1.26,3.99,3.99-2.23,2.56,1.31,8.4,4.62,6.65,2.67-1.41,2.38-6.83-.52-7.78-3.43-1.13-1.95-6.58,1.5-5.44,7.89,2.61,8.88,15.4.82,18.57Z"/>
        <path class="cls-2" d="m271.49,489.32c-2.04-.12-4.15-.49-6.08-.63-6.06-.44-12.11-.87-18.17-1.31-18.22-1.32-36.44-2.63-54.66-3.95-21.06-1.52-42.13-3.04-63.19-4.56-17.48-1.26-34.97-2.52-52.45-3.79-6.2-.45-12.41-.9-18.61-1.34.14,1.45.28,2.91.42,4.36,2.13.13,4.28.39,6.39.55,5.96.43,11.91.86,17.87,1.3,18.14,1.32,36.27,2.63,54.41,3.95,21.08,1.53,42.15,3.06,63.23,4.59,17.34,1.26,34.67,2.51,52.01,3.77,6.28.46,12.55.91,18.83,1.37v-4.3Z"/>
        <path class="cls-6" d="m434.86,96.49c-1.32-7.43-3.17-14.82-5.92-21.85-3.74-9.54-9.32-21.51-20.55-23.56-.81-.15-1.52.02-2.08.39,2.17,2.5,4.67,4.81,8.36,5.63-3.69-.82-6.19-3.13-8.36-5.63-1.89,1.21-2.17,4.55.58,5.05,9.95,1.82,14.55,13.75,17.55,22.1,4.38,12.22,7.51,26.42,6.32,39.45-.04.47.02.87.15,1.22.41-.25.83-.49,1.27-.73-.02-.38-.03-.77-.03-1.14,0,.37.02.75.03,1.14.36-.2.72-.39,1.1-.57-.37.19-.74.38-1.1.57.03.66.06,1.34.1,2.03,1.6.58,3.91-.26,4.12-2.52.66-7.19-.28-14.51-1.53-21.58Z"/>
        <path class="cls-6" d="m430.91,119.29c.25.64.75,1.08,1.37,1.3-.04-.69-.08-1.37-.1-2.03-.43.24-.86.48-1.27.73Z"/>
        <path class="cls-6" d="m441.93,67.09c-3.51-5.79-8.48-11.23-14.3-15.32-1.7-.52-3.41-.99-5.07-1.43,1.66.44,3.36.91,5.07,1.43-8.14-5.73-17.94-8.83-27.77-6.55-.82.19-1.36.63-1.68,1.17,2.3.01,4.6.18,6.9.57-2.3-.38-4.61-.56-6.9-.57-1.05,1.82.46,4.89,3.18,4.26,1.27-.29,2.54-.47,3.8-.55-.41-.49-.8-.98-1.2-1.46.4.48.8.97,1.2,1.46,13.74-.86,26.97,10.38,33.07,21.89,3.65,6.88,6.35,14.38,7.75,22.05,1.44,7.91,1.36,16.02,1.13,24.03-.08,2.72,3.06,3.4,4.69,2.05-.3-.85-.48-1.75-.48-2.69,0,.94.18,1.84.48,2.69.55-.45.92-1.14.95-2.05.51-17.76-1.4-35.45-10.82-50.99Z"/>
        <path class="cls-6" d="m455.93,122.67c-.99-.99-2.19-1.01-3.15-.5.84,1.37,1.94,2.61,3.05,3.72-1.1-1.1-2.21-2.34-3.05-3.72-1.52.8-2.41,2.91-.84,4.49,6.39,6.41,8.16,16.67,6.42,25.32-1.34,6.63-5.34,15.01-12.84,16.17-7.38,1.14-12.7-5.98-14.79-12.15-2.98-8.79-2.08-19.06,3.15-26.82,1.2-1.78-.01-3.5-1.63-3.99-.19,1.69-.69,3.3-1.8,4.63,1.11-1.34,1.61-2.94,1.8-4.63-1.11-.33-2.42-.08-3.24,1.14-7.52,11.15-7.93,29.8,1.23,40.51-1.96-.95-3.78-2.41-4.97-3.66-2.84-2.98-4.56-7.2-5.31-11.2-1.38-7.39-.19-17.52,5.46-22.9,1.54-1.47.81-3.44-.59-4.32-.63.86-1.2,1.79-1.71,2.81.51-1.02,1.08-1.95,1.71-2.81-.99-.62-2.31-.7-3.4.34-7.5,7.13-9.05,20.51-6.51,30.15,2.22,8.44,9.79,18.45,19.39,18.21.02-.64.04-1.28.09-1.91-.04.64-.07,1.28-.09,1.91.74-.02,1.5-.09,2.27-.24.54-.1.97-.32,1.29-.61,5.45,2.25,11.64,1.26,16.4-2.46,6.09-4.77,9.15-12.5,10.04-19.99,1.16-9.7-1.34-20.43-8.38-27.5Z"/>
        <path class="cls-6" d="m321.38,202.09c-1.66,3.47-.99,7.94,3.29,9.92,7.58,3.51,14.63-5.55,8.99-11.92-1.19-1.34-2.74-2.3-4.53-2.54-.27-.07-.56-.11-.88-.1-.05,0-.09,0-.14.01-1.67-.07-3.17.09-4.86-.65-3.49-1.53-6.06-5-6.99-8.64-2.33-9.17,8.61-15.02,14.92-19.2,3.02-2,.08-6.81-2.95-4.8-5.58,3.69-11.68,7.43-15.43,13.13-3.46,5.28-3.09,11.68-.03,17.06,1.94,3.42,5,6.25,8.61,7.73Zm6.53,5.04c-2.63-.22-2.03-3.25-.14-3.92,1.18.07,2.21.41,2.34,2.01.11,1.33-.96,2-2.2,1.9Z"/>
        <path class="cls-6" d="m318.93,357.39c-.95-13.17,1.15-26.16,1.16-39.3,0-8.24-1.08-16.42-3.04-24.42-.86-3.52-6.3-2.03-5.44,1.5,3.24,13.29,2.93,26.22,1.95,39.74-.75,10.42-.64,20.71.68,30.95.2-.31.42-.61.61-.92-.19.31-.41.62-.61.92.51,3.93,1.19,7.86,2.08,11.78,1.8,7.93,3.26,15.75,3.64,23.9.09,1.99,1.85,2.89,3.38,2.69-.49-2.34-1.17-4.68-1.72-7.15.55,2.47,1.23,4.81,1.72,7.15,1.24-.17,2.33-1.06,2.26-2.69-.69-15-5.61-29.22-6.68-44.15Z"/>
        <path class="cls-6" d="m476.72,403.23c-25.52,2.28-51.04,4.55-76.55,6.83-3.61.32-7.22.64-10.84.97-2.55.23-3.74,3.23-1.87,4.91,1.79-.41,3.57-.8,5.22-.25-1.65-.55-3.43-.16-5.22.25.13.12.28.24.45.34.04.03.08.06.13.09.14.13.3.29.36.35.76.82,1.31,1.5,1.88,2.46,2.3,3.9,2.97,8.61,3.03,13.07.07,5.11-.27,10.61-2,15.47-.32.91-.72,1.77-1.26,2.58.22-.32-.92.77.12.01-2.37,1.71-.95,5.27,1.25,5.39.23-.9.3-1.83.14-2.81.16.98.09,1.91-.14,2.81.5.03,1.05-.12,1.6-.52,1.72-1.24,2.68-3.22,3.43-5.16,2.14-5.5,2.59-11.94,2.5-17.77-.07-4.94-.9-11.35-3.73-16.11,23.56-2.1,47.12-4.2,70.68-6.3,3.61-.32,7.22-.64,10.84-.97,3.59-.32,3.62-5.96,0-5.64Z"/>
        <path class="cls-6" d="m346.48,232.96c-1.11.4-2.25.79-3.42,1.18,1.17-.39,2.3-.78,3.42-1.18-.81-.66-1.93-.96-3.12-.46-12.15,5.13-26.83,5.71-37.13,14.73-5.06,4.43-8.46,10.89-11.57,16.74-3.26,6.12-6.14,12.43-9.47,18.51-11.34,20.67-23.07,41.14-34.75,61.62-3.28,5.75-6.57,11.5-9.86,17.25-.63,1.1-.45,2.15.13,2.94,1.23-1.85,2.46-3.69,3.69-5.54-1.23,1.85-2.46,3.69-3.69,5.54,1.08,1.47,3.56,1.97,4.74-.09,8.32-14.51,16.6-29.04,24.84-43.59,5.84-10.31,11.66-20.62,17.4-30.99,6.28-11.33,11.06-23.95,18.86-34.35,9.05-12.06,26.7-12.42,39.66-17.89,2.14-.9,1.72-3.23.27-4.41Z"/>
        <path class="cls-6" d="m567.06,457.92c-10.01,0,3.03,0-6.98,0-24.05,0,19.77,0-4.28,0h-15.1c-1.38-36.57-2.93-73.15-4.85-109.7-1.1-20.96-1.1-42.33-4.25-63.13-1.81-11.92-5.9-22.88-14.92-31.21-6.88-6.35-15.18-11.13-23.27-15.73-7.11-4.05-14.37-8-21.88-11.26.96,1.19,2.01,2.37,2.9,3.85-.89-1.49-1.94-2.66-2.9-3.85-.24-.1-.48-.21-.72-.32-3.3-1.41-6.18,3.45-2.85,4.87,6.06,2.59,11.94,5.69,17.72,8.85,8.14,4.45,16.51,9.02,23.79,14.82,9.07,7.22,13.87,16.32,16.03,27.62,1.5,7.85,2.03,15.88,2.53,23.84.74,11.8,1.22,23.61,1.84,35.42,1.27,24.01,2.39,48.03,3.41,72.05.62,14.62,1.22,29.24,1.77,43.87h-141.94c-.85,0-1.71,0-2.57-.01-.69,1.37-1.6,2.69-2.39,4,.79-1.32,1.7-2.63,2.39-4-11.32-.05-22.71-.42-34.01.01-.17,0-.33,0-.5,0-2.13,0-3.01,1.94-2.64,3.54h5.16-5.16c.26,1.13,1.14,2.1,2.64,2.1h5.02l5.59-2.33-5.59,2.33h184.43c25.14,0-17.71,0,7.42,0,12.16,0,1.48.47,13.63,0,.17,0,.33,0,.5,0,3.63,0,3.63-5.64,0-5.64Z"/>
        <path class="cls-6" d="m340.13,472.29l-4,1.66,4-1.66c-.58-.83-1.58-1.29-2.86-.84-18.04,6.5-36.07,12.99-54.11,19.49-2.01.72-4.02,1.45-6.04,2.17v-4.54c9.36-2.88,18.72-5.76,28.08-8.64,3.46-1.06,1.98-6.51-1.5-5.44-9.77,3.01-19.55,6.01-29.32,9.02-.14.04-.27.1-.4.16-7.13-.52-14.27-1.03-21.4-1.55-17.48-1.26-34.97-2.52-52.45-3.79-21.06-1.52-42.13-3.04-63.19-4.56-18.22-1.32-36.44-2.63-54.66-3.95-6.06-.44-12.11-.87-18.17-1.31-2.8-.2-5.72-.67-8.53-.62-.12,0-.25-.02-.37-.03-.41-.03-.84.08-1.23.28,1.33,3.1,2.27,6.41,3.21,9.54-.94-3.14-1.88-6.45-3.21-9.54-.95.48-1.69,1.52-1.59,2.54.32,3.37.64,6.75.96,10.12.06.68.32,1.23.69,1.65.45.63,1.16,1.1,2.13,1.17,7.22.52,14.43,1.05,21.65,1.57,17.34,1.26,34.67,2.51,52.01,3.77,21.08,1.53,42.15,3.06,63.23,4.59,18.14,1.32,36.27,2.63,54.41,3.95,5.96.43,11.91.86,17.87,1.3,2.83.21,5.73.61,8.57.62.12,0,.25.02.37.03.4.03.79-.06,1.14-.22.45.12.98.11,1.56-.1,18.04-6.5,36.07-12.99,54.11-19.49,2.55-.92,5.1-1.84,7.65-2.76,2.13-.77,2.34-3.2,1.36-4.6Zm-68.64,21.33c-6.28-.46-12.55-.91-18.83-1.37-17.34-1.26-34.67-2.51-52.01-3.77-21.08-1.53-42.15-3.06-63.23-4.59-18.14-1.32-36.27-2.63-54.41-3.95-5.96-.43-11.91-.86-17.87-1.3-2.11-.15-4.25-.42-6.39-.55-.14-1.45-.28-2.91-.42-4.36,6.2.45,12.41.9,18.61,1.34,17.48,1.26,34.96,2.52,52.45,3.79,21.06,1.52,42.13,3.04,63.19,4.56,18.22,1.32,36.44,2.63,54.66,3.95,6.06.44,12.11.87,18.17,1.31,1.92.14,4.04.51,6.08.63v4.3Z"/>
        <path class="cls-6" d="m118.44,400.89c-5.98,6.84,1.33,19.56,10.41,15.99,8.06-3.17,7.08-15.96-.82-18.57-3.45-1.14-4.93,4.3-1.5,5.44,2.9.96,3.18,6.37.52,7.78-3.31,1.75-6.85-4.1-4.62-6.65,2.38-2.72-1.59-6.73-3.99-3.99Z"/>
        <path class="cls-6" d="m310.01,340.25c-5.35-7.32-9.9-15.17-15.25-22.5-2.12-2.9-7.01-.09-4.87,2.85,5.35,7.32,9.9,15.17,15.25,22.5,2.12,2.9,7.01.09,4.87-2.85Z"/>
        <path class="cls-6" d="m425.87,454.06c3.98-11.72,4.02-24.06-1.7-35.21-1.66-3.23-6.52-.38-4.87,2.85,5.04,9.83,4.62,20.6,1.14,30.86-1.17,3.44,4.28,4.92,5.44,1.5Z"/>
        <path class="cls-6" d="m278.79,420.76c.35-.57.7-1.14,1.04-1.71-1.46,1.21-2.88,2.47-4.27,3.78,1.41-.24,2.59-.79,3.23-2.07Z"/>
        <path class="cls-6" d="m385.86,416.28c-1.34.26-2.65.38-3.9-.04,1.24.41,2.56.29,3.9.04-.39-.9-1.21-1.6-2.46-1.64-11.15-.35-22.37.89-33.5.04-5.28-.4-10.11-1.99-15.13-3.6-3.58-1.15-7.17-1.79-10.8-2.43.05,1.01.04,2.03-.08,3.08v-.56.56c.12-1.05.13-2.07.08-3.08-1.59-.28-3.19-.56-4.8-.88-4.94-.99-9.8-2-14.84-1.09-5.14.93-10.33,3.41-14.91,5.85-3.48,1.85-6.63,4.08-9.59,6.53-.34.57-.69,1.14-1.04,1.71-.64,1.27-1.82,1.83-3.23,2.07-1.53,1.43-3.03,2.91-4.53,4.4-3.6,3.61-7.14,7.28-10.63,11-.41-1.17-.82-2.34-1.23-3.5-7.54-21.48-15.06-42.97-22.42-64.52-.83,1.25-1.67,2.5-2.5,3.75.83-1.25,1.67-2.5,2.5-3.75-1.09-3.18-2.18-6.36-3.26-9.55-1.58-4.66-3.15-9.33-4.68-14.01-1.87-5.72-3.47-11.42-9.36-14.31-3.59-1.76-8.17-1.68-12.15-2-15.35-1.23-30.71-2.46-46.06-3.69-22.68-1.82-45.37-3.64-68.05-5.45-20.33-1.63-40.66-3.26-60.99-4.89-6.03-.48-12.07-.97-18.1-1.45-4.29-.34-8.44-1.2-11.84,2.43-4.32,4.61-1.43,10.1.35,14.99,2.6,7.12,5.2,14.24,7.8,21.36,7.7,21.1,15.4,42.2,23.11,63.3,5.56,15.24,11.12,30.47,16.68,45.71.29.79.58,1.58.86,2.37.43,1.18,1.38,1.77,2.37,1.89-.95-2.01-2.1-3.9-3.55-5.56,1.45,1.66,2.6,3.55,3.55,5.56,1.85.23,3.88-1.17,3.07-3.39-3.91-10.72-7.82-21.44-11.74-32.15-7.62-20.89-15.25-41.77-22.87-62.66-5.17-14.17-10.35-28.35-15.52-42.52-.66-1.82-1.52-3.89.37-5.41,1.13-.91,2.32-.68,3.6-.58,4.38.35,8.76.7,13.14,1.05,18.06,1.45,36.11,2.89,54.17,4.34,22.63,1.81,45.26,3.63,67.9,5.44,17.88,1.43,35.75,2.87,53.63,4.3,4.13.33,8.26.66,12.39.99,1.98.16,3.9.26,5.71,1.24,4.56,2.47,5.44,8.62,6.95,13.17,7.66,23.14,15.74,46.14,23.78,69.15,6.53,18.67,13.1,37.32,19.7,55.97.36,1.01.71,2.01,1.07,3.02,1.2,3.4,6.65,1.93,5.44-1.5-1.19-3.35-2.37-6.7-3.55-10.05,1.86.59,3.8.6,5.6-.24,2.02,2.43,5.04,3.8,8.32,3.33,3.76-.54,6.78-3.24,9.85-5.29,3.41-2.27,6.81-4.55,10.19-6.86,3.54-2.42,7.32-4.41,11.24-6.06-2.91,1.75-5.85,3.45-8.68,5.34-4.16,2.79-9.45,9.66-5.07,14.36,2.8,3,6.97,2.8,10.6,1.74,3.98-1.16,7.85-2.77,11.59-4.53,5.03-2.36,9.87-5.07,14.78-7.64h-4.58,4.58c3.34-1.75,6.72-3.45,10.21-4.92,3.33-1.41.46-6.27-2.85-4.87-7.91,3.34-15.23,7.77-22.91,11.57-3.97,1.96-8.07,3.71-12.32,4.96-1.19.35-4.74,1.43-5.18-.56-.2-.9,1.87-3.1,2.38-3.67,2.32-2.57,5.82-3.92,8.74-5.71,2.62-1.6,5.18-3.3,7.66-5.1,2.55-1.86,5.12-4.17,8.02-5.36,2.69-1.11,2.24-4.92.16-5.57-.58-.42-1.34-.62-2.23-.44-7.76,1.6-15.62,4.06-22.7,7.7-6.27,3.22-11.97,7.73-17.83,11.64-2.26,1.51-5.36,4.75-8.23,3.51-2.48-1.07-2.74-3.57-1.47-5.6,3.75-6,11.3-9.75,16.74-14.01,3.51-2.75,6.31-5.7,10.64-7.24,5.16-1.83,10.63-2.6,15.89-4.09,3.49-.99,2-6.43-1.5-5.44-5.26,1.49-10.73,2.25-15.89,4.09-4.71,1.67-7.91,4.4-11.67,7.52-6.18,5.14-14.22,9.04-18.79,15.87-1.23,1.84-1.96,3.92-1.88,6.01-1.44.88-2.93-.07-4.26-1.36-1.42-1.38-2.77-3.15-1.83-4.68,3.94-6.44,8.74-12.38,14.47-17.31,8.08-6.94,18.39-11.2,27.93-15.71,3.28-1.55.42-6.41-2.85-4.87-9.36,4.43-19.19,8.66-27.33,15.16-5.27,4.2-9.77,9.27-13.68,14.74-.56.78-1.23,1.63-1.9,2.53-.71-2.02-1.42-4.03-2.13-6.05,3.21-3.46,6.47-6.87,9.77-10.24,5.1-5.2,10.2-10.69,16.43-14.56,4.43-2.75,9.27-5.02,14.25-6.59,5-1.58,9.71-.64,14.71.36,5.27,1.05,10.45,1.66,15.6,3.31,4.65,1.49,9.17,2.98,14.05,3.55,11.93,1.41,24.09-.17,36.08.21,2.37.08,3.19-2.3,2.46-3.99Z"/>
        <path class="cls-6" d="m311.23,369.98c-2.06,2.61-4.22,5.16-5.95,7.93,1.73-2.77,3.89-5.33,5.95-7.93-.59-1.95-3.73-3-5.26-.74-5.83,8.65-11.65,17.29-17.48,25.94-1.32,1.95.27,3.83,2.1,4.09,1.08-1.9,2.21-3.76,3.42-5.57-1.21,1.81-2.33,3.67-3.42,5.57.99.14,2.06-.19,2.77-1.24,5.83-8.65,11.65-17.29,17.48-25.94.5-.74.58-1.47.39-2.11Z"/>
        <path class="cls-6" d="m256.3,405.1c-3.48-1.05-4.97,4.39-1.5,5.44,4.97,1.5,9.04,5.2,10.84,10.1,1.24,3.38,6.69,1.92,5.44-1.5-2.5-6.81-7.81-11.94-14.78-14.04Z"/>
        <path class="cls-6" d="m410.84,193.99c-6.79,9.48-19.03,15.82-30.61,16.59-11.3.75-21.72-5.23-28.15-14.31-5.27-7.45-8.22-15.38-9.72-24.28-1.57-9.35-2.43-18.82-3.2-28.26-.48-5.92-.9-11.84-1.2-17.77-.11-2.08-2.02-2.97-3.59-2.65.32,3.15.89,6.27,1.91,9.33-1.02-3.05-1.59-6.18-1.91-9.33-1.16.23-2.13,1.11-2.05,2.65.81,15.86,1.97,31.86,4.6,47.53.92,5.48,2.42,10.7,4.61,15.65-.28-1.78-.71-3.52-1.31-5.19.6,1.67,1.03,3.42,1.31,5.19,1.73,3.91,3.9,7.64,6.56,11.18,5.45,7.26,13.2,12.83,21.95,14.99,1.18-.68,2.32-1.37,3.46-2.05-1.14.68-2.28,1.37-3.46,2.05,1.28.32,2.58.56,3.9.73-.12,2.32-.16,4.65-.38,6.97-.25,2.64-.55,6.01-2.74,7.8-1.47,1.2-1.07,2.86.04,3.84.68-1.12,1.37-2.23,2.07-3.34-.69,1.11-1.39,2.22-2.07,3.34,1.01.9,2.62,1.23,3.95.14,4.99-4.08,4.58-12.24,4.78-18.54,13.92-.62,28.01-8.12,36.1-19.42,2.12-2.95-2.77-5.77-4.87-2.85Z"/>
        <path class="cls-6" d="m378.39,46.66c-27.49,8.68-45.77,35.03-46.59,63.52-.05,1.58,1,2.48,2.21,2.68.01-2.07.04-4.13.04-6.15,0,2.02-.03,4.08-.04,6.15,1.56.26,3.37-.63,3.43-2.68.38-13.23,4.91-26.02,12.58-36.42.43-1.79,1.1-3.59,2.07-5.39-.97,1.79-1.65,3.6-2.07,5.39,7.36-9.99,17.61-17.79,29.88-21.66,1.62-.51,2.15-1.99,1.9-3.29-2.22.62-4.42,1.32-6.59,2.09,2.17-.77,4.37-1.47,6.59-2.09-.28-1.47-1.56-2.73-3.4-2.15Z"/>
        <path class="cls-6" d="m338.07,199.61c0,2.32-.17,5.05-.62,7.81,2.34-3.09,3.69-6.7,4.2-10.45-1.61-.38-3.57.49-3.58,2.63Z"/>
        <path class="cls-6" d="m343.71,199.61c0-1.49-.94-2.37-2.06-2.63-.51,3.74-1.86,7.36-4.2,10.45-1.16,7.11-4.2,14.48-11.28,15.88-3.56.71-2.05,6.14,1.5,5.44,1.62-.32,3.08-.87,4.41-1.59-1.06-.38-2.1-.87-3.11-1.48,1.02.61,2.06,1.09,3.11,1.48,8.98-4.89,11.6-18.1,11.63-27.55Z"/>
        <path class="cls-6" d="m355.35,212.36c.36-3.61-5.28-3.58-5.64,0-.43,4.33-1.78,10.5-6.5,12.01-1.93.62-2.31,2.6-1.67,4.03,2.36-.09,4.75-.37,7.11-.69,4.45-3.5,6.13-9.72,6.69-15.36Z"/>
        <path class="cls-6" d="m341.54,228.41c.51,1.12,1.64,1.89,3.17,1.4,1.51-.49,2.82-1.2,3.95-2.09-2.37.31-4.75.6-7.11.69Z"/>
        <path class="cls-6" d="m486.26,219.09c-9.35-5.65-12.79-16.82-13.48-27.15-.82-12.28.38-24.64-.17-36.95-1.06-23.53-4.52-47.86-11.97-70.27-3.6-10.83-8.99-21.3-18.13-28.46-1.34-1.05-2.94-.71-3.96.17,2.8,1.75,5.27,3.96,7.13,6.86-1.86-2.9-4.33-5.1-7.13-6.86-1.13.98-1.54,2.64-.03,3.81,8.41,6.58,13.36,15.99,16.68,25.97,3.74,11.23,6.18,22.99,8.15,34.64,2.08,12.35,3.34,24.84,3.75,37.37.41,12.42-1.08,25.05.39,37.4,1.18,9.92,4.99,19.82,12.83,26.13,1.08-.36,2.13-.75,3.14-1.16-1.01.42-2.07.8-3.14,1.16.98.79,2,1.53,3.11,2.19,3.11,1.88,5.95-2.99,2.85-4.87Z"/>
        <path class="cls-6" d="m469.36,223.42c.12.29.25.56.39.83.83-.12,1.65-.25,2.46-.4.54-1.18.36-2.67-1.09-3.5-5.01-2.9-8.16-8.66-10.32-13.84-2.62-6.28-4.11-13.12-3.82-19.94.15-3.63-5.48-3.62-5.64,0-.33,7.83,1.52,15.68,4.61,22.83,2.46,5.7,5.99,11.63,11.27,15.15.85-.08,1.69-.19,2.53-.3-.14-.27-.27-.54-.39-.83Z"/>
        <path class="cls-6" d="m472.2,223.85c-.81.15-1.63.28-2.46.4.22.43.46.84.73,1.23.77-.26,1.39-.88,1.73-1.63Z"/>
        <path class="cls-6" d="m469.74,224.25c-.84.12-1.68.22-2.53.3.35.23.7.45,1.06.66.78.45,1.54.49,2.2.26-.26-.39-.51-.8-.73-1.23Z"/>
        <path class="cls-6" d="m454.41,224.29c-1.44-.22-2.85-.5-4.23-.87,1.38.36,2.79.65,4.23.87-.23-.4-.62-.74-1.18-.99-5.03-2.22-8.28-6.05-10.09-11.22-3.08-8.77-3.21-18.51-3.29-27.7-.02-2.86-3.54-3.47-5.01-1.81.67,4.78,1.9,9.57,3.5,14.35-1.59-4.78-2.83-9.57-3.5-14.35-.39.44-.64,1.04-.63,1.81.08,9.7.08,22.37,4.56,31.98.42-.27.84-.55,1.26-.82-.42.28-.83.56-1.26.82,2.38,5.1,6.02,9.35,11.61,11.81,2.73,1.2,5.17-1.94,4.02-3.88Z"/>
        <path class="cls-6" d="m381.02,139.44c3.63,0,3.63-5.64,0-5.64s-3.63,5.64,0,5.64Z"/>
        <path class="cls-6" d="m346.19,132.68c-3.63,0-3.63,5.64,0,5.64s3.63-5.64,0-5.64Z"/>
        <path class="cls-6" d="m349.25,164.21c2.1,3.12,5.97,4.93,9.34,6.35,3.3,1.39,6.18-3.46,2.85-4.87-1.72-.73-4.24-1.64-5.97-2.96,3.32-4.21,5.24-9.15,7.55-14.04,1.54-3.26-3.32-6.13-4.87-2.85-2.46,5.22-4.35,10.74-8.45,14.95-.83.85-1.14,2.38-.44,3.42Z"/>
        <path class="cls-6" d="m446.65,234.75c-12.79,4.4-25.59,8.81-38.38,13.21-3.41,1.17-1.95,6.62,1.5,5.44,12.79-4.4,25.59-8.81,38.38-13.21,3.41-1.17,1.95-6.62-1.5-5.44Z"/>
        <path class="cls-6" d="m437.26,217.24c-.87.46-1.8.85-2.86,1.11,1.06-.27,1.99-.66,2.86-1.11-.55-.97-1.62-1.58-3.01-1.09-11.6,4.08-23.19,8.16-34.79,12.24-.54.19-.96.49-1.27.85-.54.45-.93,1.13-.97,2.02-.37,7.35-.42,14.78-1.1,22.1-.03.04-.07.1-.12.18-.42.65-.64,1.56-.94,2.27-1.13,2.66-2.31,5.31-3.61,7.9-3.3,6.56-9.07,11.34-13.55,17.12-1.85,2.38-3.67,4.82-5.38,7.34-2.23-9.97-4.46-19.94-6.7-29.91,1.88-3.08,3.76-6.15,5.64-9.23.51-.84.52-2.01,0-2.85-1.23-1.98-2.46-3.96-3.69-5.94-.82,1.67-1.56,3.38-2.16,5.16.59-1.78,1.33-3.49,2.16-5.16-2.62-4.21-5.24-8.42-7.85-12.63,2.38-1.54,4.77-3.09,7.15-4.63,2.49-1.61,1.04-5.18-1.25-5.32-.44.23-.88.45-1.33.68.45-.23.9-.45,1.33-.68-.5-.03-1.04.1-1.59.46-3.19,2.07-6.39,4.13-9.58,6.2-.94.61-1.5,1.71-1.38,2.79,1.13-.13,2.24-.24,3.34-.31-1.1.07-2.21.18-3.34.31.04.36.16.73.37,1.07.32.51.64,1.02.96,1.54.86-.39,1.72-.79,2.57-1.22-.86.43-1.71.83-2.57,1.22,3.71,5.97,7.42,11.94,11.13,17.9-1.66,2.67-3.36,5.33-4.91,8.06-1.2,2.11-.43,3.99.07,6.22,1.97,8.81,3.94,17.61,5.91,26.42.6,2.66,1.19,5.32,1.79,7.98.03.13.07.26.12.38-6.32-10.17-12.64-20.34-18.95-30.51-1.91-3.08-6.79-.25-4.87,2.85,6.95,11.18,13.89,22.36,20.84,33.54.11.18.24.34.37.48-1.58,14.1-1.34,28.41-.79,42.56.55,14.09,1.6,28.14,2.72,42.19.38,4.77.82,9.54,1.03,14.32.16,3.61,5.8,3.63,5.64,0-.44-10.21-1.55-20.4-2.28-30.59-1.09-15.25-1.93-30.54-1.84-45.83.05-7.99.35-16,1.3-23.93.17-1.4-.59-2.25-1.6-2.55-.37-.59-.73-1.18-1.1-1.77,1.18,1.3,3.65,1.23,4.57-.45,2.12-3.86,4.69-7.51,7.33-11.03,2.93-3.92,6.12-7.67,9.49-11.23,2.05-2.17,3.7-4.17,5.1-6.81,1.42-2.69,2.68-5.47,3.88-8.26.69-1.61,1.67-3.33,2.11-5.04.82-3.21.43-7.11.59-10.39.18-3.67.37-7.34.55-11.01,10.99-3.87,21.99-7.74,32.98-11.61,2.02-.71,2.32-2.92,1.52-4.35Z"/>
        <path class="cls-6" d="m395.8,115.87c1.43.82,2.79.26,3.57-.75-1.39.15-2.79.29-4.18.4.2.12.41.24.61.36Z"/>
        <path class="cls-6" d="m398.64,111c-5.83-3.32-11.08-7.7-14.05-13.84-2.54-5.25-2.98-11.25-2.13-16.96.53-3.55-4.9-5.08-5.44-1.5-1.05,7.06-.64,14.11,2.39,20.66,3.26,7.03,9.18,12.27,15.77,16.14,1.39-.11,2.78-.25,4.18-.4.93-1.23,1.01-3.13-.72-4.11Z"/>
        <path class="cls-6" d="m428.95,120.62c-.18-.58-.59-1.11-1.28-1.5-6.44-3.55-12.5-8.04-16.3-14.47-3.89-6.6-4.63-14.16-4-21.67.3-3.62-5.34-3.6-5.64,0-.71,8.46.4,17.1,4.77,24.51,1.49,2.52,3.29,4.8,5.3,6.87.96.04,1.91.12,2.87.24,2.26,0,4.51,2.82,7.33,2.82-2.82,0-5.07-2.82-7.33-2.82-.95-.12-1.91-.2-2.87-.24,3.76,3.87,8.29,7.01,13.02,9.62.15.08.3.14.44.2,1.07-1.36,2.3-2.53,3.69-3.57Z"/>
        <path class="cls-6" d="m425.26,124.19c2.3.85,4.29-1.62,3.69-3.57-1.38,1.04-2.61,2.21-3.69,3.57Z"/>
        <path class="cls-6" d="m363.14,100.05c-4.29-6.84-4.2-14.13-2.67-21.95.7-3.54-4.74-5.06-5.44-1.5-1.04,5.3-1.52,10.51-.76,15.52,2.35,3.15,5.42,5.87,8.87,7.92Z"/>
        <path class="cls-6" d="m377.67,110.15c-5.89-.79-10.83-4.57-14.08-9.39-.16-.24-.3-.48-.45-.71-3.45-2.05-6.52-4.77-8.87-7.92.6,3.97,1.97,7.81,4.45,11.48,4,5.92,10.13,11,17.45,11.98,1.57.21,2.74-.73,3.25-1.89-1.23-.51-2.45-1.14-3.67-1.91,1.21.77,2.43,1.4,3.67,1.91.65-1.47.25-3.28-1.75-3.55Z"/>
        <path class="cls-6" d="m466.14,308.38c-.33-3.58-5.97-3.62-5.64,0,2.7,29.23-.59,58.75,2.12,87.99.33,3.58,5.97,3.62,5.64,0-2.7-29.23.59-58.75-2.12-87.99Z"/>
        <path class="cls-6" d="m355.4,179.31c-.31-.06-.63-.06-.94,0-1.52.06-2.35,1.16-2.5,2.37-.12.58-.06,1.21.26,1.87,2.74,5.52,7.65,12.02,14.55,11.79,6.52-.21,9.99-6.46,11.19-12.13.38-1.8-.8-3.54-2.72-3.57-6.61-.11-13.22-.21-19.84-.32Zm10.88,10.39c-2.8-.1-5.02-2.24-6.71-4.68,3.98.06,7.96.13,11.93.19-.95,2.4-2.53,4.58-5.22,4.49Z"/>
      </g>
      <g>
        <path class="cls-4" d="m484.08,48.21c-5.01,5.01-12.79-2.76-7.78-7.78,6.29-6.29,12.58-12.58,18.87-18.87,5.01-5.01,12.79,2.76,7.78,7.78-6.29,6.29-12.58,12.58-18.87,18.87Z"/>
        <path class="cls-4" d="m461.51,32.59c-1.83,6.83-12.44,3.93-10.61-2.92,2.3-8.59,4.6-17.18,6.91-25.77,1.83-6.83,12.44-3.93,10.61,2.92-2.3,8.59-4.6,17.18-6.91,25.77Z"/>
        <path class="cls-4" d="m520.62,66.71c-8.59,2.3-17.18,4.6-25.77,6.91-6.85,1.83-9.77-8.77-2.92-10.61,8.59-2.3,17.18-4.6,25.77-6.91,6.85-1.83,9.77,8.77,2.92,10.61Z"/>
      </g>
    </g>
  </g>
</svg>