<?xml version="1.0" encoding="UTF-8"?>
<svg id="_レイヤー_2" data-name="レイヤー 2" xmlns="http://www.w3.org/2000/svg" xmlns:xlink="http://www.w3.org/1999/xlink" viewBox="0 0 466.03 556.48">
  <defs>
    <style>
      .cls-1 {
        fill: none;
      }

      .cls-2 {
        fill: #fff;
      }

      .cls-3 {
        fill: #323232;
      }

      .cls-4 {
        fill: #dcdcdc;
      }

      .cls-5 {
        fill: #33c781;
      }

      .cls-6 {
        fill: url(#_新規パターン_3-2);
      }

      .cls-7 {
        fill: url(#_新規パターン_3);
      }
    </style>
    <pattern id="_新規パターン_3" data-name="新規パターン 3" x="0" y="0" width="4.98" height="5.18" patternTransform="translate(-16084.46 -830.97) rotate(90) scale(1.03)" patternUnits="userSpaceOnUse" viewBox="0 0 4.98 5.18">
      <g>
        <rect class="cls-1" width="4.98" height="5.18"/>
        <rect class="cls-2" x="0" y="0" width="4.98" height="5.18"/>
        <circle class="cls-5" cx="2.49" cy="2.59" r="1.06"/>
      </g>
    </pattern>
    <pattern id="_新規パターン_3-2" data-name="新規パターン 3" patternTransform="translate(659.8 -28.04)" xlink:href="#_新規パターン_3"/>
  </defs>
  <g id="_レイヤー_1-2" data-name="レイヤー 1">
    <g>
      <g>
        <g>
          <path class="cls-7" d="m149.26,385.55c-.71-13.49-1.72-27.08-1.46-40.56-2.59,1.36-5.92-.3-8.52-1.09-4.84,2.05-9.89,2.57-15.4-.08-.48,1.38-1.62,2.55-3.44,2.73-14.11,1.39-25.2-10.63-27.4-23.72-2.28-13.55,2.76-26.33,7.1-38.9,3.02-8.73,5.45-17.65,7.47-26.67l-16.43,7.22c1.65,1.83,1.53,5.53-1.57,6.65-6.72,2.44-14.15,3.79-18.68,9.74-6.48,8.52-10.05,19.52-14.12,29.34-16.42,39.54-30.19,80.21-45.08,120.34-3.13,8.43-5.96,18.12-2.79,26.96,6.11,15.55,23.7,20.64,38.39,24.26,5.37,1.59,10.73,3.18,16.1,4.77,3.38,1,3.32,5.03,1.31,6.79l3.86,2.29c-2.33-26.96-4.66-53.92-6.99-80.87-2.06-13.82-1.79-23.37,15.13-22.14h78.62l.21-4.11c-2.46,2.14-6.24.18-6.29-2.96Zm-91.66,36.48c-.66,2.62-3.79,3.47-6.01,2.27-2.97-1.02-5.93-2.04-8.9-3.06-2.05-.7-3.19-2.6-2.7-4.75.66-2.62,3.79-3.48,6.01-2.27,2.97,1.02,5.93,2.04,8.9,3.06,2.05.7,3.19,2.6,2.7,4.75Zm35.16-35.07c-1.69.99-4.39.5-5.29-1.39-.87-1.83-1.75-3.67-2.62-5.5-6.08-12.77-12.17-25.55-18.25-38.32-2.33-4.56,3.99-8.21,6.67-3.9,6.96,14.61,13.91,29.21,20.87,43.82.9,1.89.54,4.16-1.39,5.29Z"/>
          <path class="cls-2" d="m252.12,337.59c-6.62-.03-13.23,5.3-19.85,3.09-.55-.37-1.11-.76-1.68-1.18-4.77.16-9.57-.84-13.97-3.09-4.43-2.26-.52-8.93,3.9-6.67.37.19.73.3,1.1.47-.88-1.45-1.55-2.96-1.96-4.53-3.72-1.07-3.8-6.78.65-7.9.42-.95.94-1.9,1.65-2.85-.71.95-1.23,1.9-1.65,2.85,10.7-5.67,13.65-25.09,14.24-36.19-2.11,1.96-4.27,3.8-6.52,5.35.42,1.48.02,3.15-1.74,4.11-9.05,4.95-18.93,8.18-29.31,8.39-10.72.22-21.04-2.82-30.72-7.21-3.15-1.43-2.2-5.09.19-6.49-3.08-1.32-6.07-2.8-8.95-4.45,3.89,17.24,8.02,38.38-2.87,53.37l.4,10.05c1.07,13.5.79,27.28,1.94,40.84.08,1.18-.54,2.24-1.44,2.96l-.21,4.11h91.77l.69-6.88c-.74-.62-1.24-1.56-1.23-2.83.08-8.09.66-16.16,1.4-24.21.51-5.47,1.27-10.99,1.19-16.49-.03-2.18,1.43-3.4,3.09-3.67-.09-.31-.13-.62-.14-.94Z"/>
          <path class="cls-4" d="m149.8,340c.31.87.24,1.88-.14,2.82,1.89-.87,4.51-.23,5.39,1.89l-.4-10.05c-1.37,1.88-2.96,3.68-4.85,5.34Z"/>
          <path class="cls-6" d="m333.35,479.15c6.26-2.76,12.53-5.53,18.79-8.29,14.18-6.04,32.79-12.54,28.63-31.65-1.91-9.83-6.43-19.31-10-28.63-15.05-40.12-31.28-79.88-44.18-120.76-2.24-12.71-13.67-17.74-25.28-19.51-1.28-.21-2.34-.36-4.12-.44-3.43-.14-4.49-3.88-3.18-6.1l-10.85-4.62c8.02,31.16,9.61,68.93-26.45,81.93.42,13.04-2.73,27.99-2.41,41.82-.04,3.71-4.33,4.65-6.5,2.83l-.69,6.88c26.14.07,52.29-.14,78.43,0,7.67.08,11.65,6.16,11.03,13.36-2.36,27.24-4.71,54.49-7.07,81.73l3.03-2.9c-1.59-1.69-1.86-4.47.81-5.65Zm-20.47-155.39c-3.52,21.16-7.04,42.32-10.3,63.52-.76,4.91-8.2,2.81-7.45-2.05,3.26-21.2,6.78-42.36,10.3-63.52.82-4.9,8.26-2.81,7.45,2.05Zm25.15,95.29c1.83-2.6,5.63-2.38,8.37-3.51,3.22-.99,6.15,2.83,4.36,5.68-1.83,2.6-5.63,2.38-8.37,3.51-3.22.99-6.15-2.83-4.36-5.68Z"/>
          <path class="cls-2" d="m231.7,242.34c-19.5,27.49-66.22,21.21-79.82-8.97-1.02-2.2.06-4.25,1.67-5.25l-5.05-8.68c.72,9.89,1.55,19.78,2.56,29.62,1.12,10.9,4.04,21.56,6.46,32.22,2.87,1.65,5.86,3.13,8.95,4.45,1.04-.61,2.35-.8,3.71-.18,16.67,8.14,36.09,8.35,52.23-1.18,2.6-1.42,5.02.37,5.64,2.56,2.25-1.55,4.41-3.39,6.52-5.35.49-9.21.04-18.49.19-27.68.04-2.3,1.71-3.53,3.5-3.7-.28-4.99-.78-9.99-1.93-14.98-1.4,2.47-2.93,4.86-4.62,7.11Z"/>
          <path class="cls-2" d="m267.32,227.17c-5.54-27.8-7.38-56.47-8.36-84.75-.1-2.94,2.54-4.12,4.77-3.59l-.08-7.86c-2.05,1.93-6.52,1.01-6.72-2.74-1.55-29.57-30.81-55.27-59.86-55.79-4.97-.09-4.97-7.81,0-7.73.55.01,1.11.05,1.66.07-2.94-.81-6.03-.58-9.37.43,1.18,2.03.76,4.94-2.16,5.52-33.45,6.62-60.12,37.93-59.42,72.25.06,2.82-2.39,4.04-4.55,3.66l-.48,15.33c1.87.07,3.61,1.29,3.44,3.7-2.87,38.86-5.16,78.36-17.06,115.73-3.78,11.75-9.55,23.58-8.93,36.21.54,11.02,8.02,22.42,20.25,21.21,3.12-.31,4.25,2.65,3.44,5,5.51,2.65,10.56,2.13,15.4.08-10.37-4-18.56-13.96-20.48-24.86-2.44-13.85,4.97-27.39,6.1-41.01.41-4.93,8.14-4.96,7.73,0-1.03,12.34-6.9,24.29-6.55,36.72.28,9.83,7.48,18.73,16.54,22.09.16-.62.52-1.23,1.17-1.78,8.58-7.23,10.7-17.51,10.11-28.31-1.79-22.17-10.02-43.26-11.26-65.54-2.13-24.44-3.93-48.55-2.55-73.1.22-3.84,4.89-4.7,6.86-2.58l1.51-5.33c-1.6-.75-2.43-2.87-1.98-4.52,1.28-4.33,5.9-1.95,9-2.67-.16-.12-.32-.21-.48-.33.16.12.32.21.48.33,13.91-3.25,18.05-21.74,19.05-34.07.22-4.96,7.94-4.97,7.73,0-1.03,13.53-4.8,29.59-16.49,37.82,4.05.11,7.98-1.19,12.24-2.53.3-1.88,1.93-3.04,3.8-3.25,7.86-.88,13.94-7.44,17.06-14.29,3.84-8.41,3.75-17.64,3.51-26.67-.13-4.65,6.6-4.94,7.6-.92.34-.14.67-.25,1.01-.33.77-1.6,2.79-2.82,4.53-2.13,19.37,7.6,30.99,28.57,31.01,48.88,0,1.46-.67,2.48-1.61,3.08l.57,12.02c2.07-.19,4.2,1.02,4.01,3.68-.51,6.92-1.33,13.81-1.84,20.73-.45,14.12-4.38,27.83-11.35,40.22,1.15,4.99,1.65,9.99,1.93,14.98,2.07-.2,4.27,1.03,4.23,3.7-.22,13.69.75,27.56-1.69,41.11-2.09,11.33-7.78,29.12-21.12,30.66.4,1.57,1.08,3.08,1.96,4.53,15.44,6.87,29.88-7.65,33.49-21.86,3.29-12.96,4.07-27.36,3.63-40.68-.17-4.98,7.56-4.96,7.73,0,.28,8.38-.28,16.8-1.15,25.12-.77,7.34-1.5,15.05-4.14,22-4.61,12.95-16.28,24.46-30.59,24.71.57.42,1.13.81,1.68,1.18,6.62,2.21,13.23-3.12,19.85-3.09-.1-1.63.68-3.33,2.65-3.98,43.9-17.85,19.55-72.8,12.55-106.43Z"/>
          <path class="cls-2" d="m238.81,155.5c-.01-16.56-9.26-35.12-25.33-41.43-2.14-.79-3.56-3.08-2.47-5.32-.34.09-.67.2-1.01.33,1.86,20.47-4.35,46.41-28.17,49.6-2.3.24-4.22-2.37-3.8-4.48-4.25,1.34-8.18,2.64-12.24,2.53-4.94,3.28-11.24,5.06-17.31,3.44l-1.51,5.33c.57.61.93,1.47.86,2.58-.99,17.12-.81,34.26.67,51.35l5.05,8.68c1.68-1.04,3.93-.95,5,1.35,12.84,28.46,56.6,31.2,70.77,2.4,7.47-12.6,10.88-27.15,11.03-41.68.49-5.3,1.04-10.6,1.43-15.91.17-2.29,1.93-3.51,3.72-3.68l-.57-12.02c-2.26,1.46-6.12.43-6.12-3.08Zm-65.63,26.96c-4.98,0-4.97-7.73,0-7.73s4.97,7.73,0,7.73Zm20.05-1.56c.26-5.08,7.62-5.08,7.73,0-.37,5-.26,10.03.4,15,.48,3.01,1.81,7.04-2.1,8.27-1.88.61-4.37-.71-4.75-2.7-1.3-6.78-1.78-13.69-1.27-20.58Zm16.48,48.11c-8.43,3.25-18.1,2.45-26.68.25-4.82-1.52-2.92-8.62,2.05-7.45,7.57,1.9,15.11,2.62,22.57-.25,2.02-.78,4.16.87,4.75,2.7.69,2.12-.82,4.03-2.7,4.75Zm9.71-46.55c-4.98,0-4.97-7.73,0-7.73s4.97,7.73,0,7.73Z"/>
          <path class="cls-3" d="m83.84,267.71l7.34-3.23c-.82-.91-2.07-1.36-3.63-.8-6.13,2.22-13.63,3.8-18.68,8.11-8.35,7.12-12.06,18.86-16.23,28.63-8.56,20.1-16.18,40.57-23.73,61.06-7.8,21.17-15.37,42.42-23.32,63.53-12,28.26-5.03,48.14,24.15,59.6,10.54,3.13,21.09,6.25,31.63,9.38,1.39.41,2.54.06,3.36-.66l-7.31-4.34,7.31,4.34c2.01-1.76,2.07-5.79-1.31-6.79-5.37-1.59-10.73-3.18-16.1-4.77-14.7-3.62-32.26-8.69-38.39-24.26-3.17-8.84-.34-18.53,2.79-26.96,14.89-40.13,28.66-80.8,45.08-120.34,4.08-9.82,7.64-20.81,14.12-29.34,4.53-5.95,11.95-7.31,18.68-9.74,3.1-1.12,3.22-4.82,1.57-6.65l-7.34,3.23Z"/>
          <path class="cls-3" d="m381.49,417.04c-15.89-42.3-32.97-84.21-46.81-127.24-1.38-4.46-2.38-9.09-5.13-12.96-7.32-10.01-20.44-13.95-32.35-14.7-1.53-.06-2.59.63-3.18,1.62l21.49,9.15-21.49-9.15c-1.31,2.22-.25,5.96,3.18,6.1,1.78.07,2.84.23,4.12.44,11.65,1.8,23.01,6.75,25.28,19.51,12.9,40.88,29.13,80.64,44.18,120.76,3.57,9.32,8.09,18.8,10,28.63,4.16,19.07-14.46,25.64-28.64,31.65-6.26,2.76-12.53,5.53-18.79,8.29-2.67,1.18-2.4,3.96-.81,5.65l4.2-4.03-4.2,4.03c1.11,1.18,2.86,1.84,4.71,1.02,5.69-2.51,11.38-5.02,17.07-7.53,34.58-13.48,42.63-26.16,27.17-61.25Z"/>
          <path class="cls-3" d="m54.91,417.28c-3.39-1.16-6.77-2.33-10.16-3.49-4.95-1.19-6.88,5.84-2.05,7.45,3.39,1.16,6.77,2.33,10.16,3.49.91.31,2.16.09,2.98-.39,2.92-1.64,2.26-6.16-.92-7.06Z"/>
          <path class="cls-3" d="m245.5,170.61l1.16,24.35-1.16-24.35c-1.8.17-3.55,1.39-3.72,3.68-.39,5.31-.95,10.6-1.43,15.91-.15,14.53-3.56,29.09-11.03,41.68-14.46,28.9-57.63,26.1-70.77-2.4-1.07-2.3-3.33-2.4-5-1.35l5.65,9.71-5.65-9.71c-1.61,1-2.69,3.06-1.67,5.25,16.27,33.85,67.24,36.24,84.45,1.86-.41-1.77-.88-3.53-1.47-5.3.59,1.77,1.07,3.53,1.47,5.3,6.97-12.39,10.9-26.09,11.35-40.22.51-6.92,1.33-13.81,1.84-20.73.2-2.66-1.93-3.87-4.01-3.68Z"/>
          <path class="cls-3" d="m197.09,177.04c-2.22.1-3.7,1.7-3.86,3.86-.51,6.89-.03,13.8,1.27,20.58.38,1.99,2.88,3.31,4.75,2.7,3.91-1.23,2.59-5.26,2.1-8.27-.66-4.97-.77-10.01-.4-15,.15-2.02-1.88-3.95-3.86-3.86Z"/>
          <path class="cls-3" d="m180.33,224.51c-.46,2.01.6,4.22,2.7,4.75,8.58,2.2,18.25,3.01,26.68-.25,1.88-.72,3.39-2.63,2.7-4.75-.59-1.83-2.73-3.48-4.75-2.7-7.46,2.86-15,2.14-22.57.25-1.95-.5-4.28.64-4.75,2.7Z"/>
          <path class="cls-3" d="m219.42,182.46c4.97,0,4.98-7.73,0-7.73s-4.98,7.73,0,7.73Z"/>
          <path class="cls-3" d="m173.18,182.46c4.97,0,4.98-7.73,0-7.73s-4.98,7.73,0,7.73Z"/>
          <path class="cls-3" d="m228.05,286.94c-4.17,2.88-8.67,4.8-13.8,4.8,5.13,0,9.63-1.92,13.8-4.8-.62-2.19-3.04-3.98-5.64-2.56-16.15,9.53-35.57,9.32-52.23,1.18-1.36-.62-2.67-.43-3.71.18,6.26,2.67,12.85,4.68,19.45,6-6.6-1.32-13.2-3.33-19.45-6-2.39,1.4-3.34,5.06-.19,6.49,9.68,4.4,20,7.43,30.72,7.21,10.38-.21,20.26-3.44,29.31-8.39,1.77-.96,2.16-2.63,1.74-4.11Z"/>
          <path class="cls-3" d="m302.58,387.28c3.26-21.2,6.78-42.36,10.3-63.52.81-4.86-6.63-6.96-7.45-2.05-3.52,21.16-7.04,42.32-10.3,63.52-.75,4.86,6.69,6.96,7.45,2.05Z"/>
          <path class="cls-3" d="m73.28,337.85c-2.66-4.29-9.01-.69-6.67,3.9,6.96,14.61,13.91,29.21,20.87,43.82,2.66,4.29,9.01.69,6.67-3.9-6.96-14.61-13.91-29.21-20.87-43.82Z"/>
          <path class="cls-3" d="m155.05,344.71l.68,16.97-.68-16.97c-.88-2.12-3.5-2.76-5.39-1.89.38-.93.45-1.95.14-2.82,1.89-1.66,3.47-3.46,4.85-5.34l-.22-5.46.22,5.46c10.89-14.98,6.76-36.13,2.87-53.37-2.67-1.53-5.24-3.19-7.66-5,2.42,1.81,4.99,3.47,7.66,5-2.42-10.67-5.34-21.33-6.46-32.22-1.01-9.85-1.84-19.74-2.56-29.62l-3.16-5.43,3.16,5.43c-1.48-17.09-1.66-34.22-.67-51.35.06-1.12-.29-1.97-.86-2.58l-6.39,22.51,6.39-22.51c-1.97-2.11-6.65-1.25-6.86,2.58-1.38,24.55.42,48.66,2.55,73.1,1.24,22.28,9.47,43.38,11.26,65.54.59,10.8-1.53,21.07-10.11,28.31-.65.55-1.01,1.16-1.17,1.78-9.06-3.36-16.26-12.26-16.54-22.09-.36-12.43,5.52-24.38,6.55-36.72.41-4.96-7.32-4.93-7.73,0-1.14,13.62-8.55,27.16-6.1,41.01,1.92,10.9,10.11,20.87,20.48,24.86,4.51-1.91,8.83-5.13,13.15-8.37-4.32,3.24-8.64,6.46-13.15,8.37,2.6.79,5.93,2.44,8.52,1.09-.25,13.48.75,27.07,1.46,40.56.05,3.13,3.83,5.1,6.29,2.96l.6-12.1-.6,12.1c.9-.72,1.51-1.78,1.43-2.96-1.16-13.57-.87-27.34-1.94-40.84Z"/>
          <path class="cls-3" d="m198.73,64.79c3.6.99,6.98,3.53,10.37,8.04-3.38-4.51-6.77-7.05-10.37-8.04-.55-.03-1.1-.06-1.66-.07-4.97-.09-4.97,7.64,0,7.73,29.05.52,58.31,26.22,59.86,55.79.2,3.74,4.67,4.67,6.72,2.74l-.1-10.06.1,10.06c.66-.62,1.07-1.53,1.01-2.74-1.74-33.25-33.12-61.93-65.93-63.44Z"/>
          <path class="cls-3" d="m286.21,273.87c-.82-4.95-1.87-9.85-3.04-14.72l-8.36-3.56,8.36,3.56c-5.63-21.22-11-42.54-12.89-64.49-1.88-17.35-2.99-34.79-3.59-52.23-.07-2.03-1.41-3.22-2.96-3.59l.26,26.25-.26-26.25c-2.22-.53-4.87.65-4.77,3.59.98,28.28,2.82,56.95,8.36,84.75,7,33.61,31.35,88.6-12.55,106.43-1.97.66-2.74,2.35-2.65,3.98,1.11,0,2.22.15,3.33.52-1.11-.37-2.22-.51-3.33-.52.02.32.06.64.14.94-1.66.27-3.12,1.5-3.09,3.67.07,5.5-.69,11.02-1.19,16.49-.75,8.05-1.32,16.12-1.4,24.21-.01,1.27.49,2.21,1.23,2.83l1.02-10.2-1.02,10.2c2.17,1.81,6.46.87,6.5-2.83-.32-13.86,2.83-28.75,2.41-41.82,29.35-10.07,34.8-39.88,29.49-67.21Z"/>
          <path class="cls-3" d="m185.14,63.29c-36.71,7.27-65.86,42.17-65.09,79.7.04,2.16,1.53,3.38,3.18,3.66l.45-14.49-.45,14.49c2.16.37,4.61-.84,4.55-3.66-.7-34.32,25.97-65.63,59.42-72.25,2.92-.58,3.34-3.49,2.16-5.52-1.91.58-3.91,1.4-6.02,2.46,2.11-1.05,4.1-1.88,6.02-2.46-.79-1.35-2.27-2.32-4.21-1.93Z"/>
          <path class="cls-3" d="m210.12,110.01c-.13-4.96-7.86-4.98-7.73,0,.24,9.03.33,18.26-3.51,26.67-3.13,6.84-9.21,13.41-17.06,14.29-1.88.21-3.5,1.36-3.8,3.25,1.71-.54,3.48-1.08,5.32-1.55-1.85.46-3.61,1.01-5.32,1.55-.42,2.11,1.5,4.71,3.8,4.48,23.7-3.31,29.66-28.23,28.3-48.69Z"/>
          <path class="cls-3" d="m151.24,152.97c-4.56-.97-6.8,4.94-2.77,7.22l1.19-4.2-1.19,4.2c6.07,1.62,12.36-.16,17.31-3.44-3.26-.09-6.62-1.12-10.29-3.74-1.36.23-2.78.24-4.25-.03Z"/>
          <path class="cls-3" d="m174.67,146.87c4.5-8.38,7.18-18.45,7.59-27.94.22-4.97-7.51-4.96-7.73,0-1,12.33-5.14,30.82-19.05,34.07,3.67,2.63,7.02,3.66,10.29,3.74,3.67-2.47,6.76-5.9,8.89-9.88Z"/>
          <path class="cls-3" d="m244.5,149.49l.43,9.09c.94-.6,1.61-1.62,1.61-3.08-.02-20.31-11.64-41.28-31.01-48.88-1.94-.76-4.24.84-4.75,2.7-.6,2.19.75,3.99,2.7,4.75,16.07,6.31,25.32,24.88,25.33,41.43,0,3.51,3.86,4.54,6.12,3.08l-.43-9.09Z"/>
          <path class="cls-3" d="m120.45,338.83c-12.23,1.21-19.71-10.18-20.25-21.21-.62-12.63,5.15-24.46,8.93-36.21,11.9-37.37,14.19-76.86,17.06-115.73.17-2.41-1.57-3.63-3.44-3.7l-.81,26.05.81-26.05c-1.98-.07-4.11,1.16-4.29,3.7-2.18,30.65-4.15,61.52-10.85,91.58l4.81-2.11-4.81,2.11c-2.01,9.01-4.44,17.93-7.47,26.67-4.35,12.57-9.39,25.35-7.1,38.9,2.21,13.09,13.3,25.11,27.4,23.72,1.81-.18,2.96-1.35,3.44-2.73-1.6-.77-3.24-1.8-4.93-3.14,1.69,1.35,3.33,2.37,4.93,3.14.81-2.35-.32-5.3-3.44-5Z"/>
          <path class="cls-3" d="m220.32,317.78c-4.45,1.12-4.37,6.84-.65,7.9-.66-2.54-.55-5.2.65-7.9Z"/>
          <path class="cls-3" d="m238.25,250.22c-1.78.17-3.46,1.39-3.5,3.7-.15,9.19.3,18.48-.19,27.68,1.83-1.7,3.63-3.5,5.43-5.3-1.45-8.69-1.27-17.38-1.75-26.08Z"/>
          <path class="cls-3" d="m242.48,253.91c.04-2.67-2.16-3.89-4.23-3.7.48,8.69.3,17.39,1.75,26.08-1.8,1.8-3.6,3.6-5.43,5.3-.59,11.08-3.54,30.51-14.24,36.19-1.2,2.7-1.31,5.36-.65,7.9,13.34-1.54,19.03-19.33,21.12-30.66,2.44-13.55,1.47-27.42,1.69-41.11Z"/>
          <path class="cls-3" d="m221.63,330.21c-.37-.16-.73-.28-1.1-.47-4.42-2.26-8.33,4.41-3.9,6.67,4.4,2.25,9.2,3.25,13.97,3.09-3.28-2.41-6.74-5.62-8.97-9.29Z"/>
          <path class="cls-3" d="m266.47,267.67c-.17-4.96-7.89-4.98-7.73,0,.44,13.32-.33,27.72-3.63,40.68-3.61,14.21-18.05,28.72-33.49,21.86,2.23,3.67,5.68,6.88,8.97,9.29,14.31-.25,25.98-11.75,30.59-24.71,2.63-6.95,3.37-14.66,4.14-22,.87-8.33,1.43-16.75,1.15-25.12Z"/>
          <path class="cls-3" d="m339.42,424.34c2.92,1.42,6.09-.86,9.04-1.34,3.21-.78,3.84-5.49.92-7.06-2.92-1.42-6.09.86-9.04,1.34-3.21.78-3.84,5.49-.92,7.06Z"/>
        </g>
        <g>
          <path class="cls-4" d="m197.58,479.88c-3.99.07-3.98,6,0,6.06,3.99-.07,3.99-6,0-6.06Z"/>
          <path class="cls-4" d="m328.75,407.23c1.63-8.04-2.69-7.21-9.04-6.89H72.4c-4.58-.51-4.22,3.31-3.73,6.69,4.08,47.16,8.15,94.32,12.23,141.48,78.53.51,157.08.02,235.62.18,4.08-47.16,8.15-94.31,12.23-141.47Zm-120.35,76.72c-.81,10.59-14.8,13.82-20.23,4.75-5.19-8.45,3.59-19.34,12.95-15.87,4.56,1.7,7.77,6.18,7.28,11.12Z"/>
          <path class="cls-3" d="m325.55,392.62c-82.94-.06-165.88.04-248.82,0-16.8-1.22-17.23,8.18-15.12,22.14,3.87,44.79,7.75,89.59,11.62,134.38.16,2.94.22,7.25,4.16,7.29,8.05,0,16.09,0,24.14,0,72.69-.1,145.41.15,218.09,0,1.94.15,3.59-1,3.97-2.6,4.88-49.18,8.53-98.61,13-147.86.62-7.19-3.36-13.27-11.03-13.36Zm-3.81,95.61c-1.74,20.16-3.49,40.31-5.23,60.47-78.54-.17-157.08.33-235.62-.18-4.08-47.16-8.16-94.32-12.23-141.48-.47-3.34-.9-7.21,3.73-6.69h247.31c5.7-.22,10.84-1.45,9.04,6.89-2.33,27-4.67,54-7,81Z"/>
          <path class="cls-3" d="m201.12,472.83c-9.36-3.47-18.14,7.42-12.95,15.87,5.42,9.07,19.42,5.83,20.23-4.75.49-4.94-2.72-9.42-7.28-11.12Zm-3.54,13.11c-3.98-.07-3.99-6,0-6.06,3.99.07,3.99,6,0,6.06Z"/>
        </g>
      </g>
      <g>
        <rect class="cls-5" x="329.09" y="40.49" width="107.52" height="85.64"/>
        <path class="cls-5" d="m450.1,46.92c-38.18-68.93-141.12-42.69-141.54,36.1.31,22.78,11.08,44.19,28.86,58.34.99.79,1.18,2.2,1,3.35-1.53,9.91-3.05,19.83-4.58,29.74,7.46-6.71,14.91-13.41,22.37-20.12.87-.78,2.15-1.4,3.35-1,63.02,22.3,122.63-47.71,90.54-106.41Zm-29.32,46.89c-12.3,4.56-25.32,7.53-37.86,11.59-5.64,1.28-11.13,4.37-17.01,3.94-5.47-.87-8.02-5.3-9.93-9.98-2.46-6.04-4.91-12.08-7.37-18.11-1.96-4.82-4.61-9.46-1.89-14.54,2.18-4.06,6.81-6.89,11.46-6.18,5.03.76,7.91,4.6,9.73,9.01,2.08,5.03,4.11,10.08,6.16,15.13,9.73-2.9,19.46-5.81,29.18-8.71,8.43-3.1,17.49-6.18,22.38,3.88.18.29.35.61.46,1,.19.48.26.93.26,1.35.7,4.59-1.41,9.31-5.58,11.64Z"/>
        <path class="cls-3" d="m459.81,51.04c-18.68-46.88-78.09-65.88-120.37-38.18-46.61,29.23-50.75,97.67-8.26,132.48-1.93,12.52-3.85,25.05-5.78,37.57-.54,3.52,3.36,5.63,6.01,3.25,9.42-8.48,18.84-16.95,28.26-25.43,66.16,19.97,126.18-45.61,100.14-109.69Zm-77,106.27c-7.92-.07-15.73-1.49-23.25-3.97-1.2-.4-2.48.22-3.35,1-7.46,6.71-14.91,13.41-22.37,20.12,1.52-9.91,3.05-19.83,4.58-29.74.18-1.16,0-2.56-1-3.35-61.1-49.76-17.49-146.27,60.2-133.07,89.6,20.17,76.91,146.79-14.81,149.01Z"/>
        <path class="cls-2" d="m414.48,62.82c-3.33-2.77-5.92.1-8.29,2.46-9.3,9.3-18.6,18.6-27.9,27.9-1.46,1.46-3.53,1.22-5.01,0-4.82-3.97-9.63-7.94-14.45-11.9-1.6-1.32-3.47-3.03-5.75-2.59-1.67.33-2.69,1.88-2.98,3.48-.45,2.47,1.13,3.47,2.87,4.9,2.37,1.95,4.74,3.9,7.1,5.85,4.37,3.6,8.61,7.81,13.31,10.95,4.89,3.27,8.36-2.5,11.53-5.67,4.34-4.34,8.68-8.68,13.02-13.01,4.07-4.07,8.13-8.13,12.2-12.2,2.45-2.45,8-6.4,4.35-10.17Z"/>
        <path class="cls-3" d="m419.49,57.82c-.28-.29-.57-.49-.87-.66-9.1-6.52-15.58.49-21.53,7.22-7.18,7.18-14.36,14.36-21.54,21.53-4.2-3.47-8.38-6.95-12.61-10.38-3.7-3.01-8.06-5.02-12.85-3.3-4.43,1.59-7.16,6.29-7.15,10.89.02,5.77,4.55,8.59,8.57,11.9,5.03,4.14,10.06,8.29,15.09,12.43,6.6,5.88,13.63,6.58,19.65-.57,9.49-9.49,18.98-18.98,28.47-28.47,6.21-5.22,11.14-11.74,5.62-19.53-.19-.37-.47-.73-.87-1.06Zm-21.56,27.38c-27.31,26.23-15.28,25.37-44.96,1.89-1.74-1.43-3.32-2.43-2.87-4.9,1.21-5.26,5.81-3.82,8.73-.9,4.82,3.96,9.63,7.93,14.45,11.9,1.48,1.22,3.55,1.46,5.01,0,9.3-9.3,18.6-18.6,27.9-27.9,2.36-2.36,4.96-5.23,8.29-2.46,3.65,3.77-1.89,7.72-4.35,10.17-4.07,4.07-8.13,8.13-12.2,12.2Z"/>
      </g>
    </g>
  </g>
</svg>